M48
;Layer_Color=9474304
;FILE_FORMAT=4:4
METRIC,LZ
;TYPE=PLATED
T01F00S00C0.3000
T02F00S00C1.0160
T03F00S00C2.0000
%
T01
X00019695Y000495
X00058Y00085652
X00108402
X00189695Y000495
X00228Y00085652
X00278402
X00359695Y000495
X00398Y00085652
X00448402
X00529695Y000495
X00568Y00085652
X00618402
X00699695Y000495
X00738Y00085652
X00788402
Y00205652
X00738
X00699695Y001695
Y002895
X00738Y00325652
X00788402
Y00445652
X00738
X00699695Y004095
Y005295
X00738Y00565652
X00788402
X00618402
X00568
X00529695Y005295
X00448402Y00565652
X00398
X00359695Y005295
Y004095
X00398Y00445652
X00448402
X00529695Y004095
X00568Y00445652
X00618402
Y00325652
X00568
X00529695Y002895
X00448402Y00325652
X00398
X00359695Y002895
Y001695
X00398Y00205652
X00448402
X00529695Y001695
X00568Y00205652
X00618402
X00278402
X00228
X00189695Y001695
X00108402Y00205652
X00058
X00019695Y001695
Y002895
X00058Y00325652
X00108402
X00189695Y002895
X00228Y00325652
X00278402
Y00445652
X00228
X00189695Y004095
X00108402Y00445652
X00058
X00019695Y004095
Y005295
X00058Y00565652
X00108402
X00189695Y005295
X00228Y00565652
X00278402
T02
X0001945Y0002525
X0004485
X0007025
X0009565
X0012105
X0018945
X0021485
X0024025
X0026565
Y0014525
X0024025
X0021485
X0018945
X0012105
X0009565
X0007025
X0004485
X0001945
X0029105
X0035945
X0038485
X0041025
X0043565
X0046105
X0052945
X0055485
X0058025
X0060565
X0063105
Y0002525
X0060565
X0058025
X0055485
X0052945
X0046105
X0043565
X0041025
X0038485
X0035945
X0029105
X0069945
X0072485
X0075025
X0077565
X0080105
Y0014525
X0077565
X0075025
X0072485
X0069945
Y0026525
X0072485
X0075025
X0077565
X0080105
Y0038525
X0077565
X0075025
X0072485
X0069945
Y0050525
X0072485
X0075025
X0077565
X0080105
X0063105
X0060565
X0058025
X0055485
X0052945
X0046105
X0043565
X0041025
X0038485
X0035945
X0029105
Y0038525
X0035945
X0038485
X0041025
X0043565
X0046105
X0052945
X0055485
X0058025
X0060565
X0063105
Y0026525
X0060565
X0058025
X0055485
X0052945
X0046105
X0043565
X0041025
X0038485
X0035945
X0029105
X0026565
X0024025
X0021485
X0018945
X0012105
X0009565
X0007025
X0004485
X0001945
Y0038525
X0004485
X0007025
X0009565
X0012105
X0018945
X0021485
X0024025
X0026565
Y0050525
X0024025
X0021485
X0018945
X0012105
X0009565
X0007025
X0004485
X0001945
T03
X0007Y-00034
X0075725Y-0003
X0007Y0062875
M30
