G04*
G04 #@! TF.GenerationSoftware,Altium Limited,Altium Designer,23.8.1 (32)*
G04*
G04 Layer_Color=255*
%FSLAX44Y44*%
%MOMM*%
G71*
G04*
G04 #@! TF.SameCoordinates,016EFE59-DA19-4AE6-B192-11953897C182*
G04*
G04*
G04 #@! TF.FilePolarity,Positive*
G04*
G01*
G75*
%ADD10C,1.0000*%
%ADD16R,1.8796X1.8796*%
%ADD17C,1.8796*%
D10*
X787250Y-60000D02*
D03*
X40000Y-64000D02*
D03*
Y658750D02*
D03*
X759250Y639750D02*
D03*
D16*
X19450Y25250D02*
D03*
X189450D02*
D03*
X359450D02*
D03*
X529450D02*
D03*
X699450D02*
D03*
X19450Y145250D02*
D03*
X189450D02*
D03*
X359450D02*
D03*
X529450D02*
D03*
X699450D02*
D03*
X19450Y265250D02*
D03*
X189450D02*
D03*
X359450D02*
D03*
X529450D02*
D03*
X699450D02*
D03*
X19450Y385250D02*
D03*
X189450D02*
D03*
X359450D02*
D03*
X529450D02*
D03*
X699450D02*
D03*
X19450Y505250D02*
D03*
X189450D02*
D03*
X359450D02*
D03*
X529450D02*
D03*
X699450D02*
D03*
D17*
X44850Y25250D02*
D03*
X70250D02*
D03*
X95650D02*
D03*
X121050D02*
D03*
X214850D02*
D03*
X240250D02*
D03*
X265650D02*
D03*
X291050D02*
D03*
X384850D02*
D03*
X410250D02*
D03*
X435650D02*
D03*
X461050D02*
D03*
X554850D02*
D03*
X580250D02*
D03*
X605650D02*
D03*
X631050D02*
D03*
X724850D02*
D03*
X750250D02*
D03*
X775650D02*
D03*
X801050D02*
D03*
X44850Y145250D02*
D03*
X70250D02*
D03*
X95650D02*
D03*
X121050D02*
D03*
X214850D02*
D03*
X240250D02*
D03*
X265650D02*
D03*
X291050D02*
D03*
X384850D02*
D03*
X410250D02*
D03*
X435650D02*
D03*
X461050D02*
D03*
X554850D02*
D03*
X580250D02*
D03*
X605650D02*
D03*
X631050D02*
D03*
X724850D02*
D03*
X750250D02*
D03*
X775650D02*
D03*
X801050D02*
D03*
X44850Y265250D02*
D03*
X70250D02*
D03*
X95650D02*
D03*
X121050D02*
D03*
X214850D02*
D03*
X240250D02*
D03*
X265650D02*
D03*
X291050D02*
D03*
X384850D02*
D03*
X410250D02*
D03*
X435650D02*
D03*
X461050D02*
D03*
X554850D02*
D03*
X580250D02*
D03*
X605650D02*
D03*
X631050D02*
D03*
X724850D02*
D03*
X750250D02*
D03*
X775650D02*
D03*
X801050D02*
D03*
X44850Y385250D02*
D03*
X70250D02*
D03*
X95650D02*
D03*
X121050D02*
D03*
X214850D02*
D03*
X240250D02*
D03*
X265650D02*
D03*
X291050D02*
D03*
X384850D02*
D03*
X410250D02*
D03*
X435650D02*
D03*
X461050D02*
D03*
X554850D02*
D03*
X580250D02*
D03*
X605650D02*
D03*
X631050D02*
D03*
X724850D02*
D03*
X750250D02*
D03*
X775650D02*
D03*
X801050D02*
D03*
X44850Y505250D02*
D03*
X70250D02*
D03*
X95650D02*
D03*
X121050D02*
D03*
X214850D02*
D03*
X240250D02*
D03*
X265650D02*
D03*
X291050D02*
D03*
X384850D02*
D03*
X410250D02*
D03*
X435650D02*
D03*
X461050D02*
D03*
X554850D02*
D03*
X580250D02*
D03*
X605650D02*
D03*
X631050D02*
D03*
X724850D02*
D03*
X750250D02*
D03*
X775650D02*
D03*
X801050D02*
D03*
M02*
