G04*
G04 #@! TF.GenerationSoftware,Altium Limited,Altium Designer,23.8.1 (32)*
G04*
G04 Layer_Physical_Order=2*
G04 Layer_Color=16711680*
%FSLAX44Y44*%
%MOMM*%
G71*
G04*
G04 #@! TF.SameCoordinates,016EFE59-DA19-4AE6-B192-11953897C182*
G04*
G04*
G04 #@! TF.FilePolarity,Positive*
G04*
G01*
G75*
%ADD10C,1.0000*%
%ADD14C,0.5000*%
%ADD15C,2.0000*%
%ADD16R,1.8796X1.8796*%
%ADD17C,1.8796*%
%ADD18C,0.6000*%
%ADD19C,0.2032*%
D10*
X787250Y-60000D02*
D03*
X40000Y-64000D02*
D03*
Y658750D02*
D03*
X759250Y639750D02*
D03*
D14*
X19695Y49500D02*
X65000D01*
X121050Y42300D02*
X130250Y51500D01*
X121050Y25250D02*
Y42300D01*
X65000Y49500D02*
X70250Y44250D01*
Y25250D02*
Y44250D01*
X58000Y85652D02*
X108402D01*
X123848D01*
X130250Y79250D01*
Y51500D02*
Y79250D01*
X189695Y49500D02*
X235000D01*
X291050Y42300D02*
X300250Y51500D01*
X291050Y25250D02*
Y42300D01*
X235000Y49500D02*
X240250Y44250D01*
Y25250D02*
Y44250D01*
X228000Y85652D02*
X278402D01*
X293848D01*
X300250Y79250D01*
Y51500D02*
Y79250D01*
X359695Y49500D02*
X405000D01*
X461050Y42300D02*
X470250Y51500D01*
X461050Y25250D02*
Y42300D01*
X405000Y49500D02*
X410250Y44250D01*
Y25250D02*
Y44250D01*
X398000Y85652D02*
X448402D01*
X463848D01*
X470250Y79250D01*
Y51500D02*
Y79250D01*
X529695Y49500D02*
X575000D01*
X631050Y42300D02*
X640250Y51500D01*
X631050Y25250D02*
Y42300D01*
X575000Y49500D02*
X580250Y44250D01*
Y25250D02*
Y44250D01*
X568000Y85652D02*
X618402D01*
X633848D01*
X640250Y79250D01*
Y51500D02*
Y79250D01*
X699695Y49500D02*
X745000D01*
X801050Y42300D02*
X810250Y51500D01*
X801050Y25250D02*
Y42300D01*
X745000Y49500D02*
X750250Y44250D01*
Y25250D02*
Y44250D01*
X738000Y85652D02*
X788402D01*
X803848D01*
X810250Y79250D01*
Y51500D02*
Y79250D01*
X19695Y169500D02*
X65000D01*
X121050Y162300D02*
X130250Y171500D01*
X121050Y145250D02*
Y162300D01*
X65000Y169500D02*
X70250Y164250D01*
Y145250D02*
Y164250D01*
X58000Y205652D02*
X108402D01*
X123848D01*
X130250Y199250D01*
Y171500D02*
Y199250D01*
X189695Y169500D02*
X235000D01*
X291050Y162300D02*
X300250Y171500D01*
X291050Y145250D02*
Y162300D01*
X235000Y169500D02*
X240250Y164250D01*
Y145250D02*
Y164250D01*
X228000Y205652D02*
X278402D01*
X293848D01*
X300250Y199250D01*
Y171500D02*
Y199250D01*
X359695Y169500D02*
X405000D01*
X461050Y162300D02*
X470250Y171500D01*
X461050Y145250D02*
Y162300D01*
X405000Y169500D02*
X410250Y164250D01*
Y145250D02*
Y164250D01*
X398000Y205652D02*
X448402D01*
X463848D01*
X470250Y199250D01*
Y171500D02*
Y199250D01*
X529695Y169500D02*
X575000D01*
X631050Y162300D02*
X640250Y171500D01*
X631050Y145250D02*
Y162300D01*
X575000Y169500D02*
X580250Y164250D01*
Y145250D02*
Y164250D01*
X568000Y205652D02*
X618402D01*
X633848D01*
X640250Y199250D01*
Y171500D02*
Y199250D01*
X699695Y169500D02*
X745000D01*
X801050Y162300D02*
X810250Y171500D01*
X801050Y145250D02*
Y162300D01*
X745000Y169500D02*
X750250Y164250D01*
Y145250D02*
Y164250D01*
X738000Y205652D02*
X788402D01*
X803848D01*
X810250Y199250D01*
Y171500D02*
Y199250D01*
X19695Y289500D02*
X65000D01*
X121050Y282300D02*
X130250Y291500D01*
X121050Y265250D02*
Y282300D01*
X65000Y289500D02*
X70250Y284250D01*
Y265250D02*
Y284250D01*
X58000Y325652D02*
X108402D01*
X123848D01*
X130250Y319250D01*
Y291500D02*
Y319250D01*
X189695Y289500D02*
X235000D01*
X291050Y282300D02*
X300250Y291500D01*
X291050Y265250D02*
Y282300D01*
X235000Y289500D02*
X240250Y284250D01*
Y265250D02*
Y284250D01*
X228000Y325652D02*
X278402D01*
X293848D01*
X300250Y319250D01*
Y291500D02*
Y319250D01*
X359695Y289500D02*
X405000D01*
X461050Y282300D02*
X470250Y291500D01*
X461050Y265250D02*
Y282300D01*
X405000Y289500D02*
X410250Y284250D01*
Y265250D02*
Y284250D01*
X398000Y325652D02*
X448402D01*
X463848D01*
X470250Y319250D01*
Y291500D02*
Y319250D01*
X529695Y289500D02*
X575000D01*
X631050Y282300D02*
X640250Y291500D01*
X631050Y265250D02*
Y282300D01*
X575000Y289500D02*
X580250Y284250D01*
Y265250D02*
Y284250D01*
X568000Y325652D02*
X618402D01*
X633848D01*
X640250Y319250D01*
Y291500D02*
Y319250D01*
X699695Y289500D02*
X745000D01*
X801050Y282300D02*
X810250Y291500D01*
X801050Y265250D02*
Y282300D01*
X745000Y289500D02*
X750250Y284250D01*
Y265250D02*
Y284250D01*
X738000Y325652D02*
X788402D01*
X803848D01*
X810250Y319250D01*
Y291500D02*
Y319250D01*
X19695Y409500D02*
X65000D01*
X121050Y402300D02*
X130250Y411500D01*
X121050Y385250D02*
Y402300D01*
X65000Y409500D02*
X70250Y404250D01*
Y385250D02*
Y404250D01*
X58000Y445652D02*
X108402D01*
X123848D01*
X130250Y439250D01*
Y411500D02*
Y439250D01*
X189695Y409500D02*
X235000D01*
X291050Y402300D02*
X300250Y411500D01*
X291050Y385250D02*
Y402300D01*
X235000Y409500D02*
X240250Y404250D01*
Y385250D02*
Y404250D01*
X228000Y445652D02*
X278402D01*
X293848D01*
X300250Y439250D01*
Y411500D02*
Y439250D01*
X359695Y409500D02*
X405000D01*
X461050Y402300D02*
X470250Y411500D01*
X461050Y385250D02*
Y402300D01*
X405000Y409500D02*
X410250Y404250D01*
Y385250D02*
Y404250D01*
X398000Y445652D02*
X448402D01*
X463848D01*
X470250Y439250D01*
Y411500D02*
Y439250D01*
X529695Y409500D02*
X575000D01*
X631050Y402300D02*
X640250Y411500D01*
X631050Y385250D02*
Y402300D01*
X575000Y409500D02*
X580250Y404250D01*
Y385250D02*
Y404250D01*
X568000Y445652D02*
X618402D01*
X633848D01*
X640250Y439250D01*
Y411500D02*
Y439250D01*
X699695Y409500D02*
X745000D01*
X801050Y402300D02*
X810250Y411500D01*
X801050Y385250D02*
Y402300D01*
X745000Y409500D02*
X750250Y404250D01*
Y385250D02*
Y404250D01*
X738000Y445652D02*
X788402D01*
X803848D01*
X810250Y439250D01*
Y411500D02*
Y439250D01*
X19695Y529500D02*
X65000D01*
X121050Y522300D02*
X130250Y531500D01*
X121050Y505250D02*
Y522300D01*
X65000Y529500D02*
X70250Y524250D01*
Y505250D02*
Y524250D01*
X58000Y565652D02*
X108402D01*
X123848D01*
X130250Y559250D01*
Y531500D02*
Y559250D01*
X189695Y529500D02*
X235000D01*
X291050Y522300D02*
X300250Y531500D01*
X291050Y505250D02*
Y522300D01*
X235000Y529500D02*
X240250Y524250D01*
Y505250D02*
Y524250D01*
X228000Y565652D02*
X278402D01*
X293848D01*
X300250Y559250D01*
Y531500D02*
Y559250D01*
X359695Y529500D02*
X405000D01*
X461050Y522300D02*
X470250Y531500D01*
X461050Y505250D02*
Y522300D01*
X405000Y529500D02*
X410250Y524250D01*
Y505250D02*
Y524250D01*
X398000Y565652D02*
X448402D01*
X463848D01*
X470250Y559250D01*
Y531500D02*
Y559250D01*
X529695Y529500D02*
X575000D01*
X631050Y522300D02*
X640250Y531500D01*
X631050Y505250D02*
Y522300D01*
X575000Y529500D02*
X580250Y524250D01*
Y505250D02*
Y524250D01*
X568000Y565652D02*
X618402D01*
X633848D01*
X640250Y559250D01*
Y531500D02*
Y559250D01*
X699695Y529500D02*
X745000D01*
X801050Y522300D02*
X810250Y531500D01*
X801050Y505250D02*
Y522300D01*
X745000Y529500D02*
X750250Y524250D01*
Y505250D02*
Y524250D01*
X738000Y565652D02*
X788402D01*
X803848D01*
X810250Y559250D01*
Y531500D02*
Y559250D01*
D15*
X757250Y-30000D02*
D03*
X70000Y-34000D02*
D03*
X70000Y628750D02*
D03*
D16*
X19450Y25250D02*
D03*
X189450D02*
D03*
X359450D02*
D03*
X529450D02*
D03*
X699450D02*
D03*
X19450Y145250D02*
D03*
X189450D02*
D03*
X359450D02*
D03*
X529450D02*
D03*
X699450D02*
D03*
X19450Y265250D02*
D03*
X189450D02*
D03*
X359450D02*
D03*
X529450D02*
D03*
X699450D02*
D03*
X19450Y385250D02*
D03*
X189450D02*
D03*
X359450D02*
D03*
X529450D02*
D03*
X699450D02*
D03*
X19450Y505250D02*
D03*
X189450D02*
D03*
X359450D02*
D03*
X529450D02*
D03*
X699450D02*
D03*
D17*
X44850Y25250D02*
D03*
X70250D02*
D03*
X95650D02*
D03*
X121050D02*
D03*
X214850D02*
D03*
X240250D02*
D03*
X265650D02*
D03*
X291050D02*
D03*
X384850D02*
D03*
X410250D02*
D03*
X435650D02*
D03*
X461050D02*
D03*
X554850D02*
D03*
X580250D02*
D03*
X605650D02*
D03*
X631050D02*
D03*
X724850D02*
D03*
X750250D02*
D03*
X775650D02*
D03*
X801050D02*
D03*
X44850Y145250D02*
D03*
X70250D02*
D03*
X95650D02*
D03*
X121050D02*
D03*
X214850D02*
D03*
X240250D02*
D03*
X265650D02*
D03*
X291050D02*
D03*
X384850D02*
D03*
X410250D02*
D03*
X435650D02*
D03*
X461050D02*
D03*
X554850D02*
D03*
X580250D02*
D03*
X605650D02*
D03*
X631050D02*
D03*
X724850D02*
D03*
X750250D02*
D03*
X775650D02*
D03*
X801050D02*
D03*
X44850Y265250D02*
D03*
X70250D02*
D03*
X95650D02*
D03*
X121050D02*
D03*
X214850D02*
D03*
X240250D02*
D03*
X265650D02*
D03*
X291050D02*
D03*
X384850D02*
D03*
X410250D02*
D03*
X435650D02*
D03*
X461050D02*
D03*
X554850D02*
D03*
X580250D02*
D03*
X605650D02*
D03*
X631050D02*
D03*
X724850D02*
D03*
X750250D02*
D03*
X775650D02*
D03*
X801050D02*
D03*
X44850Y385250D02*
D03*
X70250D02*
D03*
X95650D02*
D03*
X121050D02*
D03*
X214850D02*
D03*
X240250D02*
D03*
X265650D02*
D03*
X291050D02*
D03*
X384850D02*
D03*
X410250D02*
D03*
X435650D02*
D03*
X461050D02*
D03*
X554850D02*
D03*
X580250D02*
D03*
X605650D02*
D03*
X631050D02*
D03*
X724850D02*
D03*
X750250D02*
D03*
X775650D02*
D03*
X801050D02*
D03*
X44850Y505250D02*
D03*
X70250D02*
D03*
X95650D02*
D03*
X121050D02*
D03*
X214850D02*
D03*
X240250D02*
D03*
X265650D02*
D03*
X291050D02*
D03*
X384850D02*
D03*
X410250D02*
D03*
X435650D02*
D03*
X461050D02*
D03*
X554850D02*
D03*
X580250D02*
D03*
X605650D02*
D03*
X631050D02*
D03*
X724850D02*
D03*
X750250D02*
D03*
X775650D02*
D03*
X801050D02*
D03*
D18*
X19695Y49500D02*
D03*
X58000Y85652D02*
D03*
X108402D02*
D03*
X189695Y49500D02*
D03*
X228000Y85652D02*
D03*
X278402D02*
D03*
X359695Y49500D02*
D03*
X398000Y85652D02*
D03*
X448402D02*
D03*
X529695Y49500D02*
D03*
X568000Y85652D02*
D03*
X618402D02*
D03*
X699695Y49500D02*
D03*
X738000Y85652D02*
D03*
X788402D02*
D03*
X19695Y169500D02*
D03*
X58000Y205652D02*
D03*
X108402D02*
D03*
X189695Y169500D02*
D03*
X228000Y205652D02*
D03*
X278402D02*
D03*
X359695Y169500D02*
D03*
X398000Y205652D02*
D03*
X448402D02*
D03*
X529695Y169500D02*
D03*
X568000Y205652D02*
D03*
X618402D02*
D03*
X699695Y169500D02*
D03*
X738000Y205652D02*
D03*
X788402D02*
D03*
X19695Y289500D02*
D03*
X58000Y325652D02*
D03*
X108402D02*
D03*
X189695Y289500D02*
D03*
X228000Y325652D02*
D03*
X278402D02*
D03*
X359695Y289500D02*
D03*
X398000Y325652D02*
D03*
X448402D02*
D03*
X529695Y289500D02*
D03*
X568000Y325652D02*
D03*
X618402D02*
D03*
X699695Y289500D02*
D03*
X738000Y325652D02*
D03*
X788402D02*
D03*
X19695Y409500D02*
D03*
X58000Y445652D02*
D03*
X108402D02*
D03*
X189695Y409500D02*
D03*
X228000Y445652D02*
D03*
X278402D02*
D03*
X359695Y409500D02*
D03*
X398000Y445652D02*
D03*
X448402D02*
D03*
X529695Y409500D02*
D03*
X568000Y445652D02*
D03*
X618402D02*
D03*
X699695Y409500D02*
D03*
X738000Y445652D02*
D03*
X788402D02*
D03*
X19695Y529500D02*
D03*
X58000Y565652D02*
D03*
X108402D02*
D03*
X189695Y529500D02*
D03*
X228000Y565652D02*
D03*
X278402D02*
D03*
X359695Y529500D02*
D03*
X398000Y565652D02*
D03*
X448402D02*
D03*
X529695Y529500D02*
D03*
X568000Y565652D02*
D03*
X618402D02*
D03*
X699695Y529500D02*
D03*
X738000Y565652D02*
D03*
X788402D02*
D03*
D19*
X69964Y54458D02*
G03*
X65000Y56516I-4964J-4958D01*
G01*
X77266Y44250D02*
G03*
X75211Y49211I-7016J0D01*
G01*
X77266Y44250D02*
G03*
X75208Y49214I-7016J0D01*
G01*
X69961Y54461D02*
G03*
X65000Y56516I-4961J-4961D01*
G01*
X109564Y25250D02*
G03*
X82950Y30934I-13914J0D01*
G01*
Y19566D02*
G03*
X109564Y25250I12700J5684D01*
G01*
X57550Y19566D02*
G03*
X82950Y19566I12700J5684D01*
G01*
Y30934D02*
G03*
X77266Y37266I-12700J-5684D01*
G01*
X63234D02*
G03*
X57550Y30934I7016J-12016D01*
G01*
X22391Y56516D02*
G03*
X22391Y42484I-2695J-7016D01*
G01*
X33364Y17397D02*
G03*
X57550Y19566I11486J7853D01*
G01*
Y30934D02*
G03*
X33364Y33103I-12700J-5684D01*
G01*
X124235Y114724D02*
X134724Y104235D01*
X117050Y114724D02*
X134724Y97050D01*
X131419Y114724D02*
X134724Y111419D01*
X102682Y114724D02*
X134724Y82682D01*
X109866Y114724D02*
X134724Y89866D01*
X88313Y114724D02*
X134724Y68313D01*
X81129Y114724D02*
X134724Y61129D01*
X95498Y114724D02*
X134724Y75498D01*
X59577Y114724D02*
X134724Y39577D01*
X71294Y53128D02*
X132891Y114724D01*
X77266Y37547D02*
X134724Y95005D01*
X99802Y38530D02*
X134724Y73452D01*
X92997Y38909D02*
X134724Y80636D01*
X80994Y34091D02*
X134724Y87820D01*
X104469Y36012D02*
X134724Y66268D01*
X74887Y49535D02*
X134724Y109373D01*
X73945Y114724D02*
X134724Y53945D01*
X77251Y44715D02*
X134724Y102189D01*
X66761Y114724D02*
X134724Y46761D01*
X67158Y56176D02*
X125707Y114724D01*
X69964Y54458D02*
X75208Y49214D01*
X53130Y56516D02*
X111338Y114724D01*
X53130Y56516D02*
X111338Y114724D01*
X60314Y56516D02*
X118523Y114724D01*
X77266Y37266D02*
Y44250D01*
X63234Y37266D02*
Y41344D01*
X62094Y42484D02*
X63234Y41344D01*
X76418Y47593D02*
X87491Y36521D01*
X60954Y35603D02*
X63234Y37883D01*
X59975Y42484D02*
X63234Y39225D01*
X49386Y38404D02*
X53467Y42484D01*
X53946Y35779D02*
X60651Y42484D01*
X52790D02*
X60299Y34975D01*
X107754Y32113D02*
X134724Y59083D01*
X109492Y26667D02*
X134724Y51899D01*
X108908Y29471D02*
X133104Y5276D01*
X134724D02*
Y114724D01*
X109653Y5276D02*
X134724Y30347D01*
X52392Y114724D02*
X134724Y32392D01*
X102469Y5276D02*
X134724Y37531D01*
X106274Y16265D02*
X134724Y44715D01*
X116838Y5276D02*
X134724Y23162D01*
X109182Y22013D02*
X125920Y5276D01*
X106921Y17091D02*
X118735Y5276D01*
X131206D02*
X134724Y8794D01*
X124022Y5276D02*
X134724Y15978D01*
X95285Y5276D02*
X104635Y14626D01*
X103239Y13588D02*
X111551Y5276D01*
X98091Y11552D02*
X104367Y5276D01*
X77266Y39561D02*
X83988Y32839D01*
X79975Y15299D02*
X89998Y5276D01*
X73732D02*
X84888Y16431D01*
X57135Y31783D02*
X59897Y34546D01*
X56332Y17390D02*
X68446Y5276D01*
X52180D02*
X61409Y14506D01*
X80917Y5276D02*
X88787Y13146D01*
X75660Y12431D02*
X82814Y5276D01*
X69552Y11353D02*
X75630Y5276D01*
X89861Y12597D02*
X97183Y5276D01*
X88101D02*
X94233Y11408D01*
X52745Y13793D02*
X61262Y5276D01*
X47719Y11635D02*
X54077Y5276D01*
X66548D02*
X72854Y11582D01*
X59364Y5276D02*
X66068Y11980D01*
X24393Y56516D02*
X82601Y114724D01*
X31578Y56516D02*
X89786Y114724D01*
X17326Y56633D02*
X75417Y114724D01*
X38762Y56516D02*
X96970Y114724D01*
X9287D02*
X68343Y55669D01*
X5276Y73320D02*
X46680Y114724D01*
X5276Y66135D02*
X53865Y114724D01*
X5276Y80504D02*
X39496Y114724D01*
X5276Y51767D02*
X68233Y114724D01*
X5276Y58951D02*
X61049Y114724D01*
X45946Y56516D02*
X104154Y114724D01*
X22391Y56516D02*
X65000D01*
X5276Y89998D02*
X38758Y56516D01*
X22391Y42484D02*
X62094D01*
X5536Y39164D02*
X33364D01*
X5276Y114724D02*
X134724D01*
X5276Y111551D02*
X60311Y56516D01*
X5276Y104367D02*
X53127Y56516D01*
X5276Y97183D02*
X45943Y56516D01*
X5276Y82814D02*
X31574Y56516D01*
X5276Y75630D02*
X24390Y56516D01*
X5276Y68446D02*
X17150Y56572D01*
X5276Y61262D02*
X13221Y53317D01*
X5276Y102057D02*
X17944Y114724D01*
X5276Y109241D02*
X10759Y114724D01*
X5276Y87688D02*
X32312Y114724D01*
X5276Y94872D02*
X25128Y114724D01*
X16782Y42572D02*
X20189Y39164D01*
X14226D02*
X17404Y42342D01*
X7041Y39164D02*
X13350Y45472D01*
X24053Y42484D02*
X27374Y39164D01*
X21410D02*
X24730Y42484D01*
X5276Y54077D02*
X12767Y46586D01*
X5276Y44583D02*
X12562Y51869D01*
X5276Y46893D02*
X13005Y39164D01*
X5276Y39709D02*
X5821Y39164D01*
X38422Y42484D02*
X42031Y38875D01*
X42812Y39014D02*
X46283Y42484D01*
X33364Y36750D02*
X39098Y42484D01*
X38024Y114724D02*
X134724Y18024D01*
X45208Y114724D02*
X134724Y25208D01*
X23656Y114724D02*
X99872Y38508D01*
X16472Y114724D02*
X92413Y38782D01*
X30840Y114724D02*
X134724Y10840D01*
X33364Y36750D02*
X39098Y42484D01*
X45606D02*
X49859Y38231D01*
X37811Y5276D02*
X43903Y11368D01*
X33364Y11621D02*
X39709Y5276D01*
X44995D02*
X58132Y18412D01*
X39937Y12232D02*
X46893Y5276D01*
X5276D02*
X134724D01*
X30627D02*
X38317Y12965D01*
X31238Y42484D02*
X36990Y36731D01*
X33364Y33103D02*
Y39164D01*
X28594D02*
X31914Y42484D01*
X33364Y15197D02*
X34321Y16154D01*
X33364Y11336D02*
Y17397D01*
X5536Y37659D02*
X7041Y39164D01*
X5536Y11336D02*
Y39164D01*
X5276Y8662D02*
X7950Y11336D01*
X5276Y5276D02*
Y114724D01*
X16259Y5276D02*
X22319Y11336D01*
X19281D02*
X25340Y5276D01*
X12096Y11336D02*
X18156Y5276D01*
X26465Y11336D02*
X32525Y5276D01*
X23443D02*
X29503Y11336D01*
X5536D02*
X33364D01*
X5276Y8662D02*
X7950Y11336D01*
X9075Y5276D02*
X15134Y11336D01*
X5276Y10972D02*
X10972Y5276D01*
X239964Y54458D02*
G03*
X235000Y56516I-4964J-4958D01*
G01*
X247266Y44250D02*
G03*
X245211Y49211I-7016J0D01*
G01*
X247266Y44250D02*
G03*
X245208Y49214I-7016J0D01*
G01*
X239961Y54461D02*
G03*
X235000Y56516I-4961J-4961D01*
G01*
X279564Y25250D02*
G03*
X252950Y30934I-13914J0D01*
G01*
Y19566D02*
G03*
X279564Y25250I12700J5684D01*
G01*
X227550Y19566D02*
G03*
X252950Y19566I12700J5684D01*
G01*
Y30934D02*
G03*
X247266Y37266I-12700J-5684D01*
G01*
X233234D02*
G03*
X227550Y30934I7016J-12016D01*
G01*
X192391Y56516D02*
G03*
X192391Y42484I-2695J-7016D01*
G01*
X203364Y17397D02*
G03*
X227550Y19566I11486J7853D01*
G01*
Y30934D02*
G03*
X203364Y33103I-12700J-5684D01*
G01*
X294235Y114724D02*
X304724Y104235D01*
X287050Y114724D02*
X304724Y97050D01*
X301419Y114724D02*
X304724Y111419D01*
X272682Y114724D02*
X304724Y82682D01*
X279866Y114724D02*
X304724Y89866D01*
X258313Y114724D02*
X304724Y68313D01*
X251129Y114724D02*
X304724Y61129D01*
X265498Y114724D02*
X304724Y75498D01*
X229577Y114724D02*
X304724Y39577D01*
X241294Y53128D02*
X302891Y114724D01*
X247266Y37547D02*
X304724Y95005D01*
X269802Y38530D02*
X304724Y73452D01*
X262997Y38909D02*
X304724Y80636D01*
X250994Y34091D02*
X304724Y87820D01*
X274469Y36012D02*
X304724Y66268D01*
X244887Y49535D02*
X304724Y109373D01*
X243945Y114724D02*
X304724Y53945D01*
X247251Y44715D02*
X304724Y102189D01*
X236761Y114724D02*
X304724Y46761D01*
X237158Y56176D02*
X295707Y114724D01*
X239964Y54458D02*
X245208Y49214D01*
X223130Y56516D02*
X281338Y114724D01*
X223130Y56516D02*
X281338Y114724D01*
X230314Y56516D02*
X288522Y114724D01*
X247266Y37266D02*
Y44250D01*
X233234Y37266D02*
Y41344D01*
X232094Y42484D02*
X233234Y41344D01*
X246418Y47593D02*
X257491Y36521D01*
X230954Y35603D02*
X233234Y37883D01*
X229975Y42484D02*
X233234Y39225D01*
X219386Y38404D02*
X223467Y42484D01*
X223946Y35779D02*
X230651Y42484D01*
X222790D02*
X230299Y34975D01*
X277754Y32113D02*
X304724Y59083D01*
X279492Y26667D02*
X304724Y51899D01*
X278908Y29471D02*
X303104Y5276D01*
X304724D02*
Y114724D01*
X279653Y5276D02*
X304724Y30347D01*
X222392Y114724D02*
X304724Y32392D01*
X272469Y5276D02*
X304724Y37531D01*
X276274Y16265D02*
X304724Y44715D01*
X286838Y5276D02*
X304724Y23162D01*
X279182Y22013D02*
X295919Y5276D01*
X276921Y17091D02*
X288735Y5276D01*
X301206D02*
X304724Y8794D01*
X294022Y5276D02*
X304724Y15978D01*
X265285Y5276D02*
X274635Y14626D01*
X273239Y13588D02*
X281551Y5276D01*
X268091Y11552D02*
X274367Y5276D01*
X247266Y39561D02*
X253988Y32839D01*
X249975Y15299D02*
X259998Y5276D01*
X243732D02*
X254888Y16431D01*
X227135Y31783D02*
X229897Y34546D01*
X226332Y17390D02*
X238446Y5276D01*
X222180D02*
X231409Y14506D01*
X250917Y5276D02*
X258787Y13146D01*
X245660Y12431D02*
X252814Y5276D01*
X239552Y11353D02*
X245630Y5276D01*
X259861Y12597D02*
X267183Y5276D01*
X258101D02*
X264233Y11408D01*
X222745Y13793D02*
X231262Y5276D01*
X217719Y11635D02*
X224077Y5276D01*
X236548D02*
X242854Y11582D01*
X229364Y5276D02*
X236067Y11980D01*
X194393Y56516D02*
X252601Y114724D01*
X201578Y56516D02*
X259786Y114724D01*
X187326Y56633D02*
X245417Y114724D01*
X208762Y56516D02*
X266970Y114724D01*
X179287D02*
X238343Y55669D01*
X175276Y73320D02*
X216680Y114724D01*
X175276Y66135D02*
X223865Y114724D01*
X175276Y80504D02*
X209496Y114724D01*
X175276Y51767D02*
X238233Y114724D01*
X175276Y58951D02*
X231049Y114724D01*
X215946Y56516D02*
X274154Y114724D01*
X192391Y56516D02*
X235000D01*
X175276Y89998D02*
X208758Y56516D01*
X192391Y42484D02*
X232094D01*
X175536Y39164D02*
X203364D01*
X175276Y114724D02*
X304724D01*
X175276Y111551D02*
X230311Y56516D01*
X175276Y104367D02*
X223127Y56516D01*
X175276Y97183D02*
X215943Y56516D01*
X175276Y82814D02*
X201574Y56516D01*
X175276Y75630D02*
X194390Y56516D01*
X175276Y68446D02*
X187150Y56572D01*
X175276Y61262D02*
X183221Y53317D01*
X175276Y102057D02*
X187943Y114724D01*
X175276Y109241D02*
X180759Y114724D01*
X175276Y87688D02*
X202312Y114724D01*
X175276Y94872D02*
X195128Y114724D01*
X186782Y42572D02*
X190189Y39164D01*
X184226D02*
X187404Y42342D01*
X177041Y39164D02*
X183350Y45472D01*
X194053Y42484D02*
X197374Y39164D01*
X191410D02*
X194730Y42484D01*
X175276Y54077D02*
X182767Y46586D01*
X175276Y44583D02*
X182562Y51869D01*
X175276Y46893D02*
X183005Y39164D01*
X175276Y39709D02*
X175821Y39164D01*
X208422Y42484D02*
X212031Y38875D01*
X212812Y39014D02*
X216283Y42484D01*
X203364Y36750D02*
X209098Y42484D01*
X208024Y114724D02*
X304724Y18024D01*
X215208Y114724D02*
X304724Y25208D01*
X193656Y114724D02*
X269872Y38508D01*
X186472Y114724D02*
X262413Y38782D01*
X200840Y114724D02*
X304724Y10840D01*
X203364Y36750D02*
X209098Y42484D01*
X215606D02*
X219859Y38231D01*
X207811Y5276D02*
X213904Y11368D01*
X203364Y11621D02*
X209709Y5276D01*
X214995D02*
X228132Y18412D01*
X209937Y12232D02*
X216893Y5276D01*
X175276D02*
X304724D01*
X200627D02*
X208316Y12965D01*
X201238Y42484D02*
X206990Y36731D01*
X203364Y33103D02*
Y39164D01*
X198594D02*
X201914Y42484D01*
X203364Y15197D02*
X204321Y16154D01*
X203364Y11336D02*
Y17397D01*
X175536Y37659D02*
X177041Y39164D01*
X175536Y11336D02*
Y39164D01*
X175276Y8662D02*
X177950Y11336D01*
X175276Y5276D02*
Y114724D01*
X186259Y5276D02*
X192319Y11336D01*
X189280D02*
X195340Y5276D01*
X182096Y11336D02*
X188156Y5276D01*
X196465Y11336D02*
X202525Y5276D01*
X193443D02*
X199503Y11336D01*
X175536D02*
X203364D01*
X175276Y8662D02*
X177950Y11336D01*
X179074Y5276D02*
X185134Y11336D01*
X175276Y10972D02*
X180972Y5276D01*
X409964Y54458D02*
G03*
X405000Y56516I-4964J-4958D01*
G01*
X417266Y44250D02*
G03*
X415211Y49211I-7016J0D01*
G01*
X417266Y44250D02*
G03*
X415208Y49214I-7016J0D01*
G01*
X409961Y54461D02*
G03*
X405000Y56516I-4961J-4961D01*
G01*
X449564Y25250D02*
G03*
X422950Y30934I-13914J0D01*
G01*
Y19566D02*
G03*
X449564Y25250I12700J5684D01*
G01*
X397550Y19566D02*
G03*
X422950Y19566I12700J5684D01*
G01*
Y30934D02*
G03*
X417266Y37266I-12700J-5684D01*
G01*
X403234D02*
G03*
X397550Y30934I7016J-12016D01*
G01*
X362391Y56516D02*
G03*
X362391Y42484I-2695J-7016D01*
G01*
X373364Y17397D02*
G03*
X397550Y19566I11486J7853D01*
G01*
Y30934D02*
G03*
X373364Y33103I-12700J-5684D01*
G01*
X464235Y114724D02*
X474724Y104235D01*
X457050Y114724D02*
X474724Y97050D01*
X471419Y114724D02*
X474724Y111419D01*
X442682Y114724D02*
X474724Y82682D01*
X449866Y114724D02*
X474724Y89866D01*
X428313Y114724D02*
X474724Y68313D01*
X421129Y114724D02*
X474724Y61129D01*
X435498Y114724D02*
X474724Y75498D01*
X399577Y114724D02*
X474724Y39577D01*
X411295Y53128D02*
X472891Y114724D01*
X417266Y37547D02*
X474724Y95005D01*
X439802Y38530D02*
X474724Y73452D01*
X432996Y38909D02*
X474724Y80636D01*
X420994Y34091D02*
X474724Y87820D01*
X444469Y36012D02*
X474724Y66268D01*
X414887Y49535D02*
X474724Y109373D01*
X413945Y114724D02*
X474724Y53945D01*
X417251Y44715D02*
X474724Y102189D01*
X406761Y114724D02*
X474724Y46761D01*
X407158Y56176D02*
X465707Y114724D01*
X409964Y54458D02*
X415208Y49214D01*
X393130Y56516D02*
X451338Y114724D01*
X393130Y56516D02*
X451338Y114724D01*
X400314Y56516D02*
X458522Y114724D01*
X417266Y37266D02*
Y44250D01*
X403234Y37266D02*
Y41344D01*
X402094Y42484D02*
X403234Y41344D01*
X416418Y47593D02*
X427491Y36521D01*
X400954Y35603D02*
X403234Y37883D01*
X399975Y42484D02*
X403234Y39225D01*
X389386Y38404D02*
X393467Y42484D01*
X393946Y35779D02*
X400651Y42484D01*
X392790D02*
X400299Y34975D01*
X447754Y32113D02*
X474724Y59083D01*
X449492Y26667D02*
X474724Y51899D01*
X448908Y29471D02*
X473104Y5276D01*
X474724D02*
Y114724D01*
X449653Y5276D02*
X474724Y30347D01*
X392392Y114724D02*
X474724Y32392D01*
X442469Y5276D02*
X474724Y37531D01*
X446274Y16265D02*
X474724Y44715D01*
X456838Y5276D02*
X474724Y23162D01*
X449182Y22013D02*
X465919Y5276D01*
X446921Y17091D02*
X458735Y5276D01*
X471206D02*
X474724Y8794D01*
X464022Y5276D02*
X474724Y15978D01*
X435285Y5276D02*
X444635Y14626D01*
X443239Y13588D02*
X451551Y5276D01*
X438091Y11552D02*
X444367Y5276D01*
X417266Y39561D02*
X423988Y32839D01*
X419975Y15299D02*
X429998Y5276D01*
X413732D02*
X424888Y16431D01*
X397135Y31783D02*
X399897Y34546D01*
X396331Y17390D02*
X408446Y5276D01*
X392180D02*
X401409Y14506D01*
X420917Y5276D02*
X428787Y13146D01*
X415660Y12431D02*
X422814Y5276D01*
X409552Y11353D02*
X415630Y5276D01*
X429861Y12597D02*
X437183Y5276D01*
X428101D02*
X434233Y11408D01*
X392745Y13793D02*
X401262Y5276D01*
X387719Y11635D02*
X394077Y5276D01*
X406548D02*
X412854Y11582D01*
X399364Y5276D02*
X406067Y11980D01*
X364393Y56516D02*
X422601Y114724D01*
X371578Y56516D02*
X429786Y114724D01*
X357326Y56633D02*
X415417Y114724D01*
X378762Y56516D02*
X436970Y114724D01*
X349287D02*
X408343Y55669D01*
X345276Y73320D02*
X386680Y114724D01*
X345276Y66135D02*
X393865Y114724D01*
X345276Y80504D02*
X379496Y114724D01*
X345276Y51767D02*
X408233Y114724D01*
X345276Y58951D02*
X401049Y114724D01*
X385946Y56516D02*
X444154Y114724D01*
X362391Y56516D02*
X405000D01*
X345276Y89998D02*
X378758Y56516D01*
X362391Y42484D02*
X402094D01*
X345536Y39164D02*
X373364D01*
X345276Y114724D02*
X474724D01*
X345276Y111551D02*
X400311Y56516D01*
X345276Y104367D02*
X393127Y56516D01*
X345276Y97183D02*
X385943Y56516D01*
X345276Y82814D02*
X371574Y56516D01*
X345276Y75630D02*
X364390Y56516D01*
X345276Y68446D02*
X357150Y56572D01*
X345276Y61262D02*
X353221Y53317D01*
X345276Y102057D02*
X357943Y114724D01*
X345276Y109241D02*
X350759Y114724D01*
X345276Y87688D02*
X372312Y114724D01*
X345276Y94872D02*
X365128Y114724D01*
X356782Y42572D02*
X360189Y39164D01*
X354226D02*
X357403Y42342D01*
X347041Y39164D02*
X353350Y45472D01*
X364053Y42484D02*
X367374Y39164D01*
X361410D02*
X364730Y42484D01*
X345276Y54077D02*
X352767Y46586D01*
X345276Y44583D02*
X352562Y51869D01*
X345276Y46893D02*
X353005Y39164D01*
X345276Y39709D02*
X345821Y39164D01*
X378422Y42484D02*
X382031Y38875D01*
X382812Y39014D02*
X386283Y42484D01*
X373364Y36750D02*
X379098Y42484D01*
X378024Y114724D02*
X474724Y18024D01*
X385208Y114724D02*
X474724Y25208D01*
X363656Y114724D02*
X439872Y38508D01*
X356471Y114724D02*
X432413Y38782D01*
X370840Y114724D02*
X474724Y10840D01*
X373364Y36750D02*
X379098Y42484D01*
X385606D02*
X389859Y38231D01*
X377811Y5276D02*
X383904Y11368D01*
X373364Y11621D02*
X379709Y5276D01*
X384995D02*
X398132Y18412D01*
X379937Y12232D02*
X386893Y5276D01*
X345276D02*
X474724D01*
X370627D02*
X378316Y12965D01*
X371238Y42484D02*
X376990Y36731D01*
X373364Y33103D02*
Y39164D01*
X368594D02*
X371914Y42484D01*
X373364Y15197D02*
X374321Y16154D01*
X373364Y11336D02*
Y17397D01*
X345536Y37659D02*
X347041Y39164D01*
X345536Y11336D02*
Y39164D01*
X345276Y8662D02*
X347950Y11336D01*
X345276Y5276D02*
Y114724D01*
X356259Y5276D02*
X362319Y11336D01*
X359281D02*
X365340Y5276D01*
X352096Y11336D02*
X358156Y5276D01*
X366465Y11336D02*
X372525Y5276D01*
X363443D02*
X369503Y11336D01*
X345536D02*
X373364D01*
X345276Y8662D02*
X347950Y11336D01*
X349074Y5276D02*
X355134Y11336D01*
X345276Y10972D02*
X350972Y5276D01*
X579964Y54458D02*
G03*
X575000Y56516I-4964J-4958D01*
G01*
X587266Y44250D02*
G03*
X585211Y49211I-7016J0D01*
G01*
X587266Y44250D02*
G03*
X585208Y49214I-7016J0D01*
G01*
X579961Y54461D02*
G03*
X575000Y56516I-4961J-4961D01*
G01*
X619564Y25250D02*
G03*
X592950Y30934I-13914J0D01*
G01*
Y19566D02*
G03*
X619564Y25250I12700J5684D01*
G01*
X567550Y19566D02*
G03*
X592950Y19566I12700J5684D01*
G01*
Y30934D02*
G03*
X587266Y37266I-12700J-5684D01*
G01*
X573234D02*
G03*
X567550Y30934I7016J-12016D01*
G01*
X532391Y56516D02*
G03*
X532391Y42484I-2695J-7016D01*
G01*
X543364Y17397D02*
G03*
X567550Y19566I11486J7853D01*
G01*
Y30934D02*
G03*
X543364Y33103I-12700J-5684D01*
G01*
X634235Y114724D02*
X644724Y104235D01*
X627050Y114724D02*
X644724Y97050D01*
X641419Y114724D02*
X644724Y111419D01*
X612682Y114724D02*
X644724Y82682D01*
X619866Y114724D02*
X644724Y89866D01*
X598313Y114724D02*
X644724Y68313D01*
X591129Y114724D02*
X644724Y61129D01*
X605498Y114724D02*
X644724Y75498D01*
X569577Y114724D02*
X644724Y39577D01*
X581295Y53128D02*
X642891Y114724D01*
X587266Y37547D02*
X644724Y95005D01*
X609802Y38530D02*
X644724Y73452D01*
X602996Y38909D02*
X644724Y80636D01*
X590994Y34091D02*
X644724Y87820D01*
X614469Y36012D02*
X644724Y66268D01*
X584887Y49535D02*
X644724Y109373D01*
X583945Y114724D02*
X644724Y53945D01*
X587251Y44715D02*
X644724Y102189D01*
X576761Y114724D02*
X644724Y46761D01*
X577158Y56176D02*
X635707Y114724D01*
X579964Y54458D02*
X585208Y49214D01*
X563130Y56516D02*
X621338Y114724D01*
X563130Y56516D02*
X621338Y114724D01*
X570314Y56516D02*
X628522Y114724D01*
X587266Y37266D02*
Y44250D01*
X573234Y37266D02*
Y41344D01*
X572094Y42484D02*
X573234Y41344D01*
X586418Y47593D02*
X597491Y36521D01*
X570954Y35603D02*
X573234Y37883D01*
X569975Y42484D02*
X573234Y39225D01*
X559386Y38404D02*
X563467Y42484D01*
X563946Y35779D02*
X570651Y42484D01*
X562790D02*
X570299Y34975D01*
X617754Y32113D02*
X644724Y59083D01*
X619492Y26667D02*
X644724Y51899D01*
X618908Y29471D02*
X643104Y5276D01*
X644724D02*
Y114724D01*
X619653Y5276D02*
X644724Y30347D01*
X562392Y114724D02*
X644724Y32392D01*
X612469Y5276D02*
X644724Y37531D01*
X616274Y16265D02*
X644724Y44715D01*
X626838Y5276D02*
X644724Y23162D01*
X619182Y22013D02*
X635919Y5276D01*
X616921Y17091D02*
X628735Y5276D01*
X641206D02*
X644724Y8794D01*
X634022Y5276D02*
X644724Y15978D01*
X605285Y5276D02*
X614635Y14626D01*
X613239Y13588D02*
X621551Y5276D01*
X608091Y11552D02*
X614367Y5276D01*
X587266Y39561D02*
X593988Y32839D01*
X589975Y15299D02*
X599998Y5276D01*
X583732D02*
X594888Y16431D01*
X567135Y31783D02*
X569897Y34546D01*
X566331Y17390D02*
X578446Y5276D01*
X562180D02*
X571409Y14506D01*
X590916Y5276D02*
X598787Y13146D01*
X585660Y12431D02*
X592814Y5276D01*
X579552Y11353D02*
X585630Y5276D01*
X599861Y12597D02*
X607183Y5276D01*
X598101D02*
X604233Y11408D01*
X562745Y13793D02*
X571261Y5276D01*
X557719Y11635D02*
X564077Y5276D01*
X576548D02*
X582854Y11582D01*
X569364Y5276D02*
X576067Y11980D01*
X534393Y56516D02*
X592601Y114724D01*
X541578Y56516D02*
X599786Y114724D01*
X527326Y56633D02*
X585417Y114724D01*
X548762Y56516D02*
X606970Y114724D01*
X519287D02*
X578343Y55669D01*
X515276Y73320D02*
X556680Y114724D01*
X515276Y66135D02*
X563865Y114724D01*
X515276Y80504D02*
X549496Y114724D01*
X515276Y51767D02*
X578233Y114724D01*
X515276Y58951D02*
X571049Y114724D01*
X555946Y56516D02*
X614154Y114724D01*
X532391Y56516D02*
X575000D01*
X515276Y89998D02*
X548758Y56516D01*
X532391Y42484D02*
X572094D01*
X515536Y39164D02*
X543364D01*
X515276Y114724D02*
X644724D01*
X515276Y111551D02*
X570311Y56516D01*
X515276Y104367D02*
X563127Y56516D01*
X515276Y97183D02*
X555943Y56516D01*
X515276Y82814D02*
X541574Y56516D01*
X515276Y75630D02*
X534390Y56516D01*
X515276Y68446D02*
X527150Y56572D01*
X515276Y61262D02*
X523220Y53317D01*
X515276Y102057D02*
X527943Y114724D01*
X515276Y109241D02*
X520759Y114724D01*
X515276Y87688D02*
X542312Y114724D01*
X515276Y94872D02*
X535128Y114724D01*
X526782Y42572D02*
X530189Y39164D01*
X524226D02*
X527403Y42342D01*
X517041Y39164D02*
X523350Y45472D01*
X534053Y42484D02*
X537374Y39164D01*
X531410D02*
X534730Y42484D01*
X515276Y54077D02*
X522767Y46586D01*
X515276Y44583D02*
X522562Y51869D01*
X515276Y46893D02*
X523005Y39164D01*
X515276Y39709D02*
X515821Y39164D01*
X548422Y42484D02*
X552031Y38875D01*
X552812Y39014D02*
X556283Y42484D01*
X543364Y36750D02*
X549098Y42484D01*
X548024Y114724D02*
X644724Y18024D01*
X555208Y114724D02*
X644724Y25208D01*
X533656Y114724D02*
X609872Y38508D01*
X526471Y114724D02*
X602413Y38782D01*
X540840Y114724D02*
X644724Y10840D01*
X543364Y36750D02*
X549098Y42484D01*
X555606D02*
X559859Y38231D01*
X547811Y5276D02*
X553904Y11368D01*
X543364Y11621D02*
X549709Y5276D01*
X554995D02*
X568132Y18412D01*
X549937Y12232D02*
X556893Y5276D01*
X515276D02*
X644724D01*
X540627D02*
X548316Y12965D01*
X541238Y42484D02*
X546990Y36731D01*
X543364Y33103D02*
Y39164D01*
X538594D02*
X541914Y42484D01*
X543364Y15197D02*
X544321Y16154D01*
X543364Y11336D02*
Y17397D01*
X515536Y37659D02*
X517041Y39164D01*
X515536Y11336D02*
Y39164D01*
X515276Y8662D02*
X517950Y11336D01*
X515276Y5276D02*
Y114724D01*
X526259Y5276D02*
X532319Y11336D01*
X529281D02*
X535340Y5276D01*
X522096Y11336D02*
X528156Y5276D01*
X536465Y11336D02*
X542525Y5276D01*
X533443D02*
X539503Y11336D01*
X515536D02*
X543364D01*
X515276Y8662D02*
X517950Y11336D01*
X519074Y5276D02*
X525134Y11336D01*
X515276Y10972D02*
X520972Y5276D01*
X749964Y54458D02*
G03*
X745000Y56516I-4964J-4958D01*
G01*
X757266Y44250D02*
G03*
X755211Y49211I-7016J0D01*
G01*
X757266Y44250D02*
G03*
X755208Y49214I-7016J0D01*
G01*
X749961Y54461D02*
G03*
X745000Y56516I-4961J-4961D01*
G01*
X789564Y25250D02*
G03*
X762950Y30934I-13914J0D01*
G01*
Y19566D02*
G03*
X789564Y25250I12700J5684D01*
G01*
X737550Y19566D02*
G03*
X762950Y19566I12700J5684D01*
G01*
Y30934D02*
G03*
X757266Y37266I-12700J-5684D01*
G01*
X743234D02*
G03*
X737550Y30934I7016J-12016D01*
G01*
X702391Y56516D02*
G03*
X702391Y42484I-2695J-7016D01*
G01*
X713364Y17397D02*
G03*
X737550Y19566I11486J7853D01*
G01*
Y30934D02*
G03*
X713364Y33103I-12700J-5684D01*
G01*
X804234Y114724D02*
X814724Y104235D01*
X797050Y114724D02*
X814724Y97050D01*
X811419Y114724D02*
X814724Y111419D01*
X782682Y114724D02*
X814724Y82682D01*
X789866Y114724D02*
X814724Y89866D01*
X768313Y114724D02*
X814724Y68313D01*
X761129Y114724D02*
X814724Y61129D01*
X775498Y114724D02*
X814724Y75498D01*
X739576Y114724D02*
X814724Y39577D01*
X751294Y53128D02*
X812891Y114724D01*
X757266Y37547D02*
X814724Y95005D01*
X779802Y38530D02*
X814724Y73452D01*
X772997Y38909D02*
X814724Y80636D01*
X760994Y34091D02*
X814724Y87820D01*
X784469Y36012D02*
X814724Y66268D01*
X754887Y49535D02*
X814724Y109373D01*
X753945Y114724D02*
X814724Y53945D01*
X757251Y44715D02*
X814724Y102189D01*
X746761Y114724D02*
X814724Y46761D01*
X747158Y56176D02*
X805707Y114724D01*
X749964Y54458D02*
X755208Y49214D01*
X733130Y56516D02*
X791338Y114724D01*
X733130Y56516D02*
X791338Y114724D01*
X740314Y56516D02*
X798522Y114724D01*
X757266Y37266D02*
Y44250D01*
X743234Y37266D02*
Y41344D01*
X742094Y42484D02*
X743234Y41344D01*
X756419Y47593D02*
X767491Y36521D01*
X740954Y35603D02*
X743234Y37883D01*
X739975Y42484D02*
X743234Y39225D01*
X729386Y38404D02*
X733467Y42484D01*
X733946Y35779D02*
X740651Y42484D01*
X732790D02*
X740299Y34975D01*
X787754Y32113D02*
X814724Y59083D01*
X789492Y26667D02*
X814724Y51899D01*
X788908Y29471D02*
X813104Y5276D01*
X814724D02*
Y114724D01*
X789653Y5276D02*
X814724Y30347D01*
X732392Y114724D02*
X814724Y32392D01*
X782469Y5276D02*
X814724Y37531D01*
X786274Y16265D02*
X814724Y44715D01*
X796838Y5276D02*
X814724Y23162D01*
X789182Y22013D02*
X805919Y5276D01*
X786920Y17091D02*
X798735Y5276D01*
X811206D02*
X814724Y8794D01*
X804022Y5276D02*
X814724Y15978D01*
X775285Y5276D02*
X784635Y14626D01*
X783239Y13588D02*
X791551Y5276D01*
X778091Y11552D02*
X784367Y5276D01*
X757266Y39561D02*
X763988Y32839D01*
X759975Y15299D02*
X769998Y5276D01*
X753732D02*
X764888Y16431D01*
X737135Y31783D02*
X739897Y34546D01*
X736331Y17390D02*
X748446Y5276D01*
X732180D02*
X741409Y14506D01*
X760917Y5276D02*
X768787Y13146D01*
X755660Y12431D02*
X762814Y5276D01*
X749553Y11353D02*
X755630Y5276D01*
X769861Y12597D02*
X777183Y5276D01*
X768101D02*
X774233Y11408D01*
X732745Y13793D02*
X741262Y5276D01*
X727719Y11635D02*
X734077Y5276D01*
X746548D02*
X752854Y11582D01*
X739364Y5276D02*
X746067Y11980D01*
X704393Y56516D02*
X762601Y114724D01*
X711578Y56516D02*
X769786Y114724D01*
X697326Y56633D02*
X755417Y114724D01*
X718762Y56516D02*
X776970Y114724D01*
X689287D02*
X748343Y55669D01*
X685276Y73320D02*
X726680Y114724D01*
X685276Y66135D02*
X733865Y114724D01*
X685276Y80504D02*
X719496Y114724D01*
X685276Y51767D02*
X748233Y114724D01*
X685276Y58951D02*
X741049Y114724D01*
X725946Y56516D02*
X784154Y114724D01*
X702391Y56516D02*
X745000D01*
X685276Y89998D02*
X718758Y56516D01*
X702391Y42484D02*
X742094D01*
X685536Y39164D02*
X713364D01*
X685276Y114724D02*
X814724D01*
X685276Y111551D02*
X740311Y56516D01*
X685276Y104367D02*
X733127Y56516D01*
X685276Y97183D02*
X725943Y56516D01*
X685276Y82814D02*
X711574Y56516D01*
X685276Y75630D02*
X704390Y56516D01*
X685276Y68446D02*
X697150Y56572D01*
X685276Y61262D02*
X693221Y53317D01*
X685276Y102057D02*
X697943Y114724D01*
X685276Y109241D02*
X690759Y114724D01*
X685276Y87688D02*
X712312Y114724D01*
X685276Y94872D02*
X705128Y114724D01*
X696782Y42572D02*
X700189Y39164D01*
X694225D02*
X697403Y42342D01*
X687041Y39164D02*
X693350Y45472D01*
X704053Y42484D02*
X707374Y39164D01*
X701410D02*
X704730Y42484D01*
X685276Y54077D02*
X692767Y46586D01*
X685276Y44583D02*
X692562Y51869D01*
X685276Y46893D02*
X693005Y39164D01*
X685276Y39709D02*
X685821Y39164D01*
X718422Y42484D02*
X722031Y38875D01*
X722812Y39014D02*
X726282Y42484D01*
X713364Y36750D02*
X719098Y42484D01*
X718024Y114724D02*
X814724Y18024D01*
X725208Y114724D02*
X814724Y25208D01*
X703656Y114724D02*
X779872Y38508D01*
X696471Y114724D02*
X772413Y38782D01*
X710840Y114724D02*
X814724Y10840D01*
X713364Y36750D02*
X719098Y42484D01*
X725606D02*
X729859Y38231D01*
X717811Y5276D02*
X723904Y11368D01*
X713364Y11621D02*
X719709Y5276D01*
X724995D02*
X738132Y18412D01*
X719937Y12232D02*
X726893Y5276D01*
X685276D02*
X814724D01*
X710627D02*
X718316Y12965D01*
X711238Y42484D02*
X716990Y36731D01*
X713364Y33103D02*
Y39164D01*
X708594D02*
X711914Y42484D01*
X713364Y15197D02*
X714321Y16154D01*
X713364Y11336D02*
Y17397D01*
X685536Y37659D02*
X687041Y39164D01*
X685536Y11336D02*
Y39164D01*
X685276Y8662D02*
X687950Y11336D01*
X685276Y5276D02*
Y114724D01*
X696259Y5276D02*
X702319Y11336D01*
X699280D02*
X705340Y5276D01*
X692096Y11336D02*
X698156Y5276D01*
X706465Y11336D02*
X712525Y5276D01*
X703443D02*
X709503Y11336D01*
X685536D02*
X713364D01*
X685276Y8662D02*
X687950Y11336D01*
X689074Y5276D02*
X695134Y11336D01*
X685276Y10972D02*
X690972Y5276D01*
X69964Y174458D02*
G03*
X65000Y176516I-4964J-4958D01*
G01*
X77266Y164250D02*
G03*
X75211Y169211I-7016J0D01*
G01*
X77266Y164250D02*
G03*
X75208Y169214I-7016J0D01*
G01*
X69961Y174461D02*
G03*
X65000Y176516I-4961J-4961D01*
G01*
X109564Y145250D02*
G03*
X82950Y150934I-13914J0D01*
G01*
Y139566D02*
G03*
X109564Y145250I12700J5684D01*
G01*
X57550Y139566D02*
G03*
X82950Y139566I12700J5684D01*
G01*
Y150934D02*
G03*
X77266Y157266I-12700J-5684D01*
G01*
X63234D02*
G03*
X57550Y150934I7016J-12016D01*
G01*
X22391Y176516D02*
G03*
X22391Y162484I-2695J-7016D01*
G01*
X33364Y137397D02*
G03*
X57550Y139566I11486J7853D01*
G01*
Y150934D02*
G03*
X33364Y153103I-12700J-5684D01*
G01*
X124235Y234724D02*
X134724Y224235D01*
X117050Y234724D02*
X134724Y217050D01*
X131419Y234724D02*
X134724Y231419D01*
X102682Y234724D02*
X134724Y202682D01*
X109866Y234724D02*
X134724Y209866D01*
X88313Y234724D02*
X134724Y188313D01*
X81129Y234724D02*
X134724Y181129D01*
X95498Y234724D02*
X134724Y195498D01*
X59577Y234724D02*
X134724Y159577D01*
X71294Y173128D02*
X132891Y234724D01*
X77266Y157547D02*
X134724Y215005D01*
X99802Y158530D02*
X134724Y193452D01*
X92997Y158909D02*
X134724Y200636D01*
X80994Y154091D02*
X134724Y207820D01*
X104469Y156012D02*
X134724Y186268D01*
X74887Y169536D02*
X134724Y229373D01*
X73945Y234724D02*
X134724Y173945D01*
X77251Y164715D02*
X134724Y222189D01*
X66761Y234724D02*
X134724Y166761D01*
X67158Y176176D02*
X125707Y234724D01*
X69964Y174458D02*
X75208Y169214D01*
X53130Y176516D02*
X111338Y234724D01*
X53130Y176516D02*
X111338Y234724D01*
X60314Y176516D02*
X118523Y234724D01*
X77266Y157266D02*
Y164250D01*
X63234Y157266D02*
Y161344D01*
X62094Y162484D02*
X63234Y161344D01*
X76418Y167593D02*
X87491Y156521D01*
X60954Y155603D02*
X63234Y157883D01*
X59975Y162484D02*
X63234Y159225D01*
X49386Y158404D02*
X53467Y162484D01*
X53946Y155779D02*
X60651Y162484D01*
X52790D02*
X60299Y154975D01*
X107754Y152113D02*
X134724Y179083D01*
X109492Y146667D02*
X134724Y171899D01*
X108908Y149472D02*
X133104Y125276D01*
X134724D02*
Y234724D01*
X109653Y125276D02*
X134724Y150347D01*
X52392Y234724D02*
X134724Y152392D01*
X102469Y125276D02*
X134724Y157531D01*
X106274Y136265D02*
X134724Y164715D01*
X116838Y125276D02*
X134724Y143162D01*
X109182Y142013D02*
X125920Y125276D01*
X106921Y137091D02*
X118735Y125276D01*
X131206D02*
X134724Y128794D01*
X124022Y125276D02*
X134724Y135978D01*
X95285Y125276D02*
X104635Y134626D01*
X103239Y133588D02*
X111551Y125276D01*
X98091Y131552D02*
X104367Y125276D01*
X77266Y159561D02*
X83988Y152839D01*
X79975Y135299D02*
X89998Y125276D01*
X73732D02*
X84888Y136431D01*
X57135Y151784D02*
X59897Y154546D01*
X56332Y137390D02*
X68446Y125276D01*
X52180D02*
X61409Y134506D01*
X80917Y125276D02*
X88787Y133146D01*
X75660Y132431D02*
X82814Y125276D01*
X69552Y131354D02*
X75630Y125276D01*
X89861Y132597D02*
X97183Y125276D01*
X88101D02*
X94233Y131408D01*
X52745Y133793D02*
X61262Y125276D01*
X47719Y131635D02*
X54077Y125276D01*
X66548D02*
X72854Y131582D01*
X59364Y125276D02*
X66068Y131980D01*
X24393Y176516D02*
X82601Y234724D01*
X31578Y176516D02*
X89786Y234724D01*
X17326Y176633D02*
X75417Y234724D01*
X38762Y176516D02*
X96970Y234724D01*
X9287D02*
X68343Y175669D01*
X5276Y193320D02*
X46680Y234724D01*
X5276Y186135D02*
X53865Y234724D01*
X5276Y200504D02*
X39496Y234724D01*
X5276Y171767D02*
X68233Y234724D01*
X5276Y178951D02*
X61049Y234724D01*
X45946Y176516D02*
X104154Y234724D01*
X22391Y176516D02*
X65000D01*
X5276Y209998D02*
X38758Y176516D01*
X22391Y162484D02*
X62094D01*
X5536Y159164D02*
X33364D01*
X5276Y234724D02*
X134724D01*
X5276Y231551D02*
X60311Y176516D01*
X5276Y224367D02*
X53127Y176516D01*
X5276Y217183D02*
X45943Y176516D01*
X5276Y202814D02*
X31574Y176516D01*
X5276Y195630D02*
X24390Y176516D01*
X5276Y188446D02*
X17150Y176572D01*
X5276Y181262D02*
X13221Y173317D01*
X5276Y222057D02*
X17944Y234724D01*
X5276Y229241D02*
X10759Y234724D01*
X5276Y207688D02*
X32312Y234724D01*
X5276Y214872D02*
X25128Y234724D01*
X16782Y162572D02*
X20189Y159164D01*
X14226D02*
X17404Y162342D01*
X7041Y159164D02*
X13350Y165472D01*
X24053Y162484D02*
X27374Y159164D01*
X21410D02*
X24730Y162484D01*
X5276Y174077D02*
X12767Y166586D01*
X5276Y164583D02*
X12562Y171869D01*
X5276Y166893D02*
X13005Y159164D01*
X5276Y159709D02*
X5821Y159164D01*
X38422Y162484D02*
X42031Y158875D01*
X42812Y159014D02*
X46283Y162484D01*
X33364Y156750D02*
X39098Y162484D01*
X38024Y234724D02*
X134724Y138024D01*
X45208Y234724D02*
X134724Y145208D01*
X23656Y234724D02*
X99872Y158508D01*
X16472Y234724D02*
X92413Y158782D01*
X30840Y234724D02*
X134724Y130840D01*
X33364Y156750D02*
X39098Y162484D01*
X45606D02*
X49859Y158231D01*
X37811Y125276D02*
X43903Y131368D01*
X33364Y131621D02*
X39709Y125276D01*
X44995D02*
X58132Y138412D01*
X39937Y132232D02*
X46893Y125276D01*
X5276D02*
X134724D01*
X30627D02*
X38317Y132965D01*
X31238Y162484D02*
X36990Y156731D01*
X33364Y153103D02*
Y159164D01*
X28594D02*
X31914Y162484D01*
X33364Y135197D02*
X34321Y136154D01*
X33364Y131336D02*
Y137397D01*
X5536Y157659D02*
X7041Y159164D01*
X5536Y131336D02*
Y159164D01*
X5276Y128662D02*
X7950Y131336D01*
X5276Y125276D02*
Y234724D01*
X16259Y125276D02*
X22319Y131336D01*
X19281D02*
X25340Y125276D01*
X12096Y131336D02*
X18156Y125276D01*
X26465Y131336D02*
X32525Y125276D01*
X23443D02*
X29503Y131336D01*
X5536D02*
X33364D01*
X5276Y128662D02*
X7950Y131336D01*
X9075Y125276D02*
X15134Y131336D01*
X5276Y130972D02*
X10972Y125276D01*
X239964Y174458D02*
G03*
X235000Y176516I-4964J-4958D01*
G01*
X247266Y164250D02*
G03*
X245211Y169211I-7016J0D01*
G01*
X247266Y164250D02*
G03*
X245208Y169214I-7016J0D01*
G01*
X239961Y174461D02*
G03*
X235000Y176516I-4961J-4961D01*
G01*
X279564Y145250D02*
G03*
X252950Y150934I-13914J0D01*
G01*
Y139566D02*
G03*
X279564Y145250I12700J5684D01*
G01*
X227550Y139566D02*
G03*
X252950Y139566I12700J5684D01*
G01*
Y150934D02*
G03*
X247266Y157266I-12700J-5684D01*
G01*
X233234D02*
G03*
X227550Y150934I7016J-12016D01*
G01*
X192391Y176516D02*
G03*
X192391Y162484I-2695J-7016D01*
G01*
X203364Y137397D02*
G03*
X227550Y139566I11486J7853D01*
G01*
Y150934D02*
G03*
X203364Y153103I-12700J-5684D01*
G01*
X294235Y234724D02*
X304724Y224235D01*
X287050Y234724D02*
X304724Y217050D01*
X301419Y234724D02*
X304724Y231419D01*
X272682Y234724D02*
X304724Y202682D01*
X279866Y234724D02*
X304724Y209866D01*
X258313Y234724D02*
X304724Y188313D01*
X251129Y234724D02*
X304724Y181129D01*
X265498Y234724D02*
X304724Y195498D01*
X229577Y234724D02*
X304724Y159577D01*
X241294Y173128D02*
X302891Y234724D01*
X247266Y157547D02*
X304724Y215005D01*
X269802Y158530D02*
X304724Y193452D01*
X262997Y158909D02*
X304724Y200636D01*
X250994Y154091D02*
X304724Y207820D01*
X274469Y156012D02*
X304724Y186268D01*
X244887Y169536D02*
X304724Y229373D01*
X243945Y234724D02*
X304724Y173945D01*
X247251Y164715D02*
X304724Y222189D01*
X236761Y234724D02*
X304724Y166761D01*
X237158Y176176D02*
X295707Y234724D01*
X239964Y174458D02*
X245208Y169214D01*
X223130Y176516D02*
X281338Y234724D01*
X223130Y176516D02*
X281338Y234724D01*
X230314Y176516D02*
X288522Y234724D01*
X247266Y157266D02*
Y164250D01*
X233234Y157266D02*
Y161344D01*
X232094Y162484D02*
X233234Y161344D01*
X246418Y167593D02*
X257491Y156521D01*
X230954Y155603D02*
X233234Y157883D01*
X229975Y162484D02*
X233234Y159225D01*
X219386Y158404D02*
X223467Y162484D01*
X223946Y155779D02*
X230651Y162484D01*
X222790D02*
X230299Y154975D01*
X277754Y152113D02*
X304724Y179083D01*
X279492Y146667D02*
X304724Y171899D01*
X278908Y149472D02*
X303104Y125276D01*
X304724D02*
Y234724D01*
X279653Y125276D02*
X304724Y150347D01*
X222392Y234724D02*
X304724Y152392D01*
X272469Y125276D02*
X304724Y157531D01*
X276274Y136265D02*
X304724Y164715D01*
X286838Y125276D02*
X304724Y143162D01*
X279182Y142013D02*
X295919Y125276D01*
X276921Y137091D02*
X288735Y125276D01*
X301206D02*
X304724Y128794D01*
X294022Y125276D02*
X304724Y135978D01*
X265285Y125276D02*
X274635Y134626D01*
X273239Y133588D02*
X281551Y125276D01*
X268091Y131552D02*
X274367Y125276D01*
X247266Y159561D02*
X253988Y152839D01*
X249975Y135299D02*
X259998Y125276D01*
X243732D02*
X254888Y136431D01*
X227135Y151784D02*
X229897Y154546D01*
X226332Y137390D02*
X238446Y125276D01*
X222180D02*
X231409Y134506D01*
X250917Y125276D02*
X258787Y133146D01*
X245660Y132431D02*
X252814Y125276D01*
X239552Y131354D02*
X245630Y125276D01*
X259861Y132597D02*
X267183Y125276D01*
X258101D02*
X264233Y131408D01*
X222745Y133793D02*
X231262Y125276D01*
X217719Y131635D02*
X224077Y125276D01*
X236548D02*
X242854Y131582D01*
X229364Y125276D02*
X236067Y131980D01*
X194393Y176516D02*
X252601Y234724D01*
X201578Y176516D02*
X259786Y234724D01*
X187326Y176633D02*
X245417Y234724D01*
X208762Y176516D02*
X266970Y234724D01*
X179287D02*
X238343Y175669D01*
X175276Y193320D02*
X216680Y234724D01*
X175276Y186135D02*
X223865Y234724D01*
X175276Y200504D02*
X209496Y234724D01*
X175276Y171767D02*
X238233Y234724D01*
X175276Y178951D02*
X231049Y234724D01*
X215946Y176516D02*
X274154Y234724D01*
X192391Y176516D02*
X235000D01*
X175276Y209998D02*
X208758Y176516D01*
X192391Y162484D02*
X232094D01*
X175536Y159164D02*
X203364D01*
X175276Y234724D02*
X304724D01*
X175276Y231551D02*
X230311Y176516D01*
X175276Y224367D02*
X223127Y176516D01*
X175276Y217183D02*
X215943Y176516D01*
X175276Y202814D02*
X201574Y176516D01*
X175276Y195630D02*
X194390Y176516D01*
X175276Y188446D02*
X187150Y176572D01*
X175276Y181262D02*
X183221Y173317D01*
X175276Y222057D02*
X187943Y234724D01*
X175276Y229241D02*
X180759Y234724D01*
X175276Y207688D02*
X202312Y234724D01*
X175276Y214872D02*
X195128Y234724D01*
X186782Y162572D02*
X190189Y159164D01*
X184226D02*
X187404Y162342D01*
X177041Y159164D02*
X183350Y165472D01*
X194053Y162484D02*
X197374Y159164D01*
X191410D02*
X194730Y162484D01*
X175276Y174077D02*
X182767Y166586D01*
X175276Y164583D02*
X182562Y171869D01*
X175276Y166893D02*
X183005Y159164D01*
X175276Y159709D02*
X175821Y159164D01*
X208422Y162484D02*
X212031Y158875D01*
X212812Y159014D02*
X216283Y162484D01*
X203364Y156750D02*
X209098Y162484D01*
X208024Y234724D02*
X304724Y138024D01*
X215208Y234724D02*
X304724Y145208D01*
X193656Y234724D02*
X269872Y158508D01*
X186472Y234724D02*
X262413Y158782D01*
X200840Y234724D02*
X304724Y130840D01*
X203364Y156750D02*
X209098Y162484D01*
X215606D02*
X219859Y158231D01*
X207811Y125276D02*
X213904Y131368D01*
X203364Y131621D02*
X209709Y125276D01*
X214995D02*
X228132Y138412D01*
X209937Y132232D02*
X216893Y125276D01*
X175276D02*
X304724D01*
X200627D02*
X208316Y132965D01*
X201238Y162484D02*
X206990Y156731D01*
X203364Y153103D02*
Y159164D01*
X198594D02*
X201914Y162484D01*
X203364Y135197D02*
X204321Y136154D01*
X203364Y131336D02*
Y137397D01*
X175536Y157659D02*
X177041Y159164D01*
X175536Y131336D02*
Y159164D01*
X175276Y128662D02*
X177950Y131336D01*
X175276Y125276D02*
Y234724D01*
X186259Y125276D02*
X192319Y131336D01*
X189280D02*
X195340Y125276D01*
X182096Y131336D02*
X188156Y125276D01*
X196465Y131336D02*
X202525Y125276D01*
X193443D02*
X199503Y131336D01*
X175536D02*
X203364D01*
X175276Y128662D02*
X177950Y131336D01*
X179074Y125276D02*
X185134Y131336D01*
X175276Y130972D02*
X180972Y125276D01*
X409964Y174458D02*
G03*
X405000Y176516I-4964J-4958D01*
G01*
X417266Y164250D02*
G03*
X415211Y169211I-7016J0D01*
G01*
X417266Y164250D02*
G03*
X415208Y169214I-7016J0D01*
G01*
X409961Y174461D02*
G03*
X405000Y176516I-4961J-4961D01*
G01*
X449564Y145250D02*
G03*
X422950Y150934I-13914J0D01*
G01*
Y139566D02*
G03*
X449564Y145250I12700J5684D01*
G01*
X397550Y139566D02*
G03*
X422950Y139566I12700J5684D01*
G01*
Y150934D02*
G03*
X417266Y157266I-12700J-5684D01*
G01*
X403234D02*
G03*
X397550Y150934I7016J-12016D01*
G01*
X362391Y176516D02*
G03*
X362391Y162484I-2695J-7016D01*
G01*
X373364Y137397D02*
G03*
X397550Y139566I11486J7853D01*
G01*
Y150934D02*
G03*
X373364Y153103I-12700J-5684D01*
G01*
X464235Y234724D02*
X474724Y224235D01*
X457050Y234724D02*
X474724Y217050D01*
X471419Y234724D02*
X474724Y231419D01*
X442682Y234724D02*
X474724Y202682D01*
X449866Y234724D02*
X474724Y209866D01*
X428313Y234724D02*
X474724Y188313D01*
X421129Y234724D02*
X474724Y181129D01*
X435498Y234724D02*
X474724Y195498D01*
X399577Y234724D02*
X474724Y159577D01*
X411295Y173128D02*
X472891Y234724D01*
X417266Y157547D02*
X474724Y215005D01*
X439802Y158530D02*
X474724Y193452D01*
X432996Y158909D02*
X474724Y200636D01*
X420994Y154091D02*
X474724Y207820D01*
X444469Y156012D02*
X474724Y186268D01*
X414887Y169536D02*
X474724Y229373D01*
X413945Y234724D02*
X474724Y173945D01*
X417251Y164715D02*
X474724Y222189D01*
X406761Y234724D02*
X474724Y166761D01*
X407158Y176176D02*
X465707Y234724D01*
X409964Y174458D02*
X415208Y169214D01*
X393130Y176516D02*
X451338Y234724D01*
X393130Y176516D02*
X451338Y234724D01*
X400314Y176516D02*
X458522Y234724D01*
X417266Y157266D02*
Y164250D01*
X403234Y157266D02*
Y161344D01*
X402094Y162484D02*
X403234Y161344D01*
X416418Y167593D02*
X427491Y156521D01*
X400954Y155603D02*
X403234Y157883D01*
X399975Y162484D02*
X403234Y159225D01*
X389386Y158404D02*
X393467Y162484D01*
X393946Y155779D02*
X400651Y162484D01*
X392790D02*
X400299Y154975D01*
X447754Y152113D02*
X474724Y179083D01*
X449492Y146667D02*
X474724Y171899D01*
X448908Y149472D02*
X473104Y125276D01*
X474724D02*
Y234724D01*
X449653Y125276D02*
X474724Y150347D01*
X392392Y234724D02*
X474724Y152392D01*
X442469Y125276D02*
X474724Y157531D01*
X446274Y136265D02*
X474724Y164715D01*
X456838Y125276D02*
X474724Y143162D01*
X449182Y142013D02*
X465919Y125276D01*
X446921Y137091D02*
X458735Y125276D01*
X471206D02*
X474724Y128794D01*
X464022Y125276D02*
X474724Y135978D01*
X435285Y125276D02*
X444635Y134626D01*
X443239Y133588D02*
X451551Y125276D01*
X438091Y131552D02*
X444367Y125276D01*
X417266Y159561D02*
X423988Y152839D01*
X419975Y135299D02*
X429998Y125276D01*
X413732D02*
X424888Y136431D01*
X397135Y151784D02*
X399897Y154546D01*
X396331Y137390D02*
X408446Y125276D01*
X392180D02*
X401409Y134506D01*
X420917Y125276D02*
X428787Y133146D01*
X415660Y132431D02*
X422814Y125276D01*
X409552Y131354D02*
X415630Y125276D01*
X429861Y132597D02*
X437183Y125276D01*
X428101D02*
X434233Y131408D01*
X392745Y133793D02*
X401262Y125276D01*
X387719Y131635D02*
X394077Y125276D01*
X406548D02*
X412854Y131582D01*
X399364Y125276D02*
X406067Y131980D01*
X364393Y176516D02*
X422601Y234724D01*
X371578Y176516D02*
X429786Y234724D01*
X357326Y176633D02*
X415417Y234724D01*
X378762Y176516D02*
X436970Y234724D01*
X349287D02*
X408343Y175669D01*
X345276Y193320D02*
X386680Y234724D01*
X345276Y186135D02*
X393865Y234724D01*
X345276Y200504D02*
X379496Y234724D01*
X345276Y171767D02*
X408233Y234724D01*
X345276Y178951D02*
X401049Y234724D01*
X385946Y176516D02*
X444154Y234724D01*
X362391Y176516D02*
X405000D01*
X345276Y209998D02*
X378758Y176516D01*
X362391Y162484D02*
X402094D01*
X345536Y159164D02*
X373364D01*
X345276Y234724D02*
X474724D01*
X345276Y231551D02*
X400311Y176516D01*
X345276Y224367D02*
X393127Y176516D01*
X345276Y217183D02*
X385943Y176516D01*
X345276Y202814D02*
X371574Y176516D01*
X345276Y195630D02*
X364390Y176516D01*
X345276Y188446D02*
X357150Y176572D01*
X345276Y181262D02*
X353221Y173317D01*
X345276Y222057D02*
X357943Y234724D01*
X345276Y229241D02*
X350759Y234724D01*
X345276Y207688D02*
X372312Y234724D01*
X345276Y214872D02*
X365128Y234724D01*
X356782Y162572D02*
X360189Y159164D01*
X354226D02*
X357403Y162342D01*
X347041Y159164D02*
X353350Y165472D01*
X364053Y162484D02*
X367374Y159164D01*
X361410D02*
X364730Y162484D01*
X345276Y174077D02*
X352767Y166586D01*
X345276Y164583D02*
X352562Y171869D01*
X345276Y166893D02*
X353005Y159164D01*
X345276Y159709D02*
X345821Y159164D01*
X378422Y162484D02*
X382031Y158875D01*
X382812Y159014D02*
X386283Y162484D01*
X373364Y156750D02*
X379098Y162484D01*
X378024Y234724D02*
X474724Y138024D01*
X385208Y234724D02*
X474724Y145208D01*
X363656Y234724D02*
X439872Y158508D01*
X356471Y234724D02*
X432413Y158782D01*
X370840Y234724D02*
X474724Y130840D01*
X373364Y156750D02*
X379098Y162484D01*
X385606D02*
X389859Y158231D01*
X377811Y125276D02*
X383904Y131368D01*
X373364Y131621D02*
X379709Y125276D01*
X384995D02*
X398132Y138412D01*
X379937Y132232D02*
X386893Y125276D01*
X345276D02*
X474724D01*
X370627D02*
X378316Y132965D01*
X371238Y162484D02*
X376990Y156731D01*
X373364Y153103D02*
Y159164D01*
X368594D02*
X371914Y162484D01*
X373364Y135197D02*
X374321Y136154D01*
X373364Y131336D02*
Y137397D01*
X345536Y157659D02*
X347041Y159164D01*
X345536Y131336D02*
Y159164D01*
X345276Y128662D02*
X347950Y131336D01*
X345276Y125276D02*
Y234724D01*
X356259Y125276D02*
X362319Y131336D01*
X359281D02*
X365340Y125276D01*
X352096Y131336D02*
X358156Y125276D01*
X366465Y131336D02*
X372525Y125276D01*
X363443D02*
X369503Y131336D01*
X345536D02*
X373364D01*
X345276Y128662D02*
X347950Y131336D01*
X349074Y125276D02*
X355134Y131336D01*
X345276Y130972D02*
X350972Y125276D01*
X579964Y174458D02*
G03*
X575000Y176516I-4964J-4958D01*
G01*
X587266Y164250D02*
G03*
X585211Y169211I-7016J0D01*
G01*
X587266Y164250D02*
G03*
X585208Y169214I-7016J0D01*
G01*
X579961Y174461D02*
G03*
X575000Y176516I-4961J-4961D01*
G01*
X619564Y145250D02*
G03*
X592950Y150934I-13914J0D01*
G01*
Y139566D02*
G03*
X619564Y145250I12700J5684D01*
G01*
X567550Y139566D02*
G03*
X592950Y139566I12700J5684D01*
G01*
Y150934D02*
G03*
X587266Y157266I-12700J-5684D01*
G01*
X573234D02*
G03*
X567550Y150934I7016J-12016D01*
G01*
X532391Y176516D02*
G03*
X532391Y162484I-2695J-7016D01*
G01*
X543364Y137397D02*
G03*
X567550Y139566I11486J7853D01*
G01*
Y150934D02*
G03*
X543364Y153103I-12700J-5684D01*
G01*
X634235Y234724D02*
X644724Y224235D01*
X627050Y234724D02*
X644724Y217050D01*
X641419Y234724D02*
X644724Y231419D01*
X612682Y234724D02*
X644724Y202682D01*
X619866Y234724D02*
X644724Y209866D01*
X598313Y234724D02*
X644724Y188313D01*
X591129Y234724D02*
X644724Y181129D01*
X605498Y234724D02*
X644724Y195498D01*
X569577Y234724D02*
X644724Y159577D01*
X581295Y173128D02*
X642891Y234724D01*
X587266Y157547D02*
X644724Y215005D01*
X609802Y158530D02*
X644724Y193452D01*
X602996Y158909D02*
X644724Y200636D01*
X590994Y154091D02*
X644724Y207820D01*
X614469Y156012D02*
X644724Y186268D01*
X584887Y169536D02*
X644724Y229373D01*
X583945Y234724D02*
X644724Y173945D01*
X587251Y164715D02*
X644724Y222189D01*
X576761Y234724D02*
X644724Y166761D01*
X577158Y176176D02*
X635707Y234724D01*
X579964Y174458D02*
X585208Y169214D01*
X563130Y176516D02*
X621338Y234724D01*
X563130Y176516D02*
X621338Y234724D01*
X570314Y176516D02*
X628522Y234724D01*
X587266Y157266D02*
Y164250D01*
X573234Y157266D02*
Y161344D01*
X572094Y162484D02*
X573234Y161344D01*
X586418Y167593D02*
X597491Y156521D01*
X570954Y155603D02*
X573234Y157883D01*
X569975Y162484D02*
X573234Y159225D01*
X559386Y158404D02*
X563467Y162484D01*
X563946Y155779D02*
X570651Y162484D01*
X562790D02*
X570299Y154975D01*
X617754Y152113D02*
X644724Y179083D01*
X619492Y146667D02*
X644724Y171899D01*
X618908Y149472D02*
X643104Y125276D01*
X644724D02*
Y234724D01*
X619653Y125276D02*
X644724Y150347D01*
X562392Y234724D02*
X644724Y152392D01*
X612469Y125276D02*
X644724Y157531D01*
X616274Y136265D02*
X644724Y164715D01*
X626838Y125276D02*
X644724Y143162D01*
X619182Y142013D02*
X635919Y125276D01*
X616921Y137091D02*
X628735Y125276D01*
X641206D02*
X644724Y128794D01*
X634022Y125276D02*
X644724Y135978D01*
X605285Y125276D02*
X614635Y134626D01*
X613239Y133588D02*
X621551Y125276D01*
X608091Y131552D02*
X614367Y125276D01*
X587266Y159561D02*
X593988Y152839D01*
X589975Y135299D02*
X599998Y125276D01*
X583732D02*
X594888Y136431D01*
X567135Y151784D02*
X569897Y154546D01*
X566331Y137390D02*
X578446Y125276D01*
X562180D02*
X571409Y134506D01*
X590916Y125276D02*
X598787Y133146D01*
X585660Y132431D02*
X592814Y125276D01*
X579552Y131354D02*
X585630Y125276D01*
X599861Y132597D02*
X607183Y125276D01*
X598101D02*
X604233Y131408D01*
X562745Y133793D02*
X571261Y125276D01*
X557719Y131635D02*
X564077Y125276D01*
X576548D02*
X582854Y131582D01*
X569364Y125276D02*
X576067Y131980D01*
X534393Y176516D02*
X592601Y234724D01*
X541578Y176516D02*
X599786Y234724D01*
X527326Y176633D02*
X585417Y234724D01*
X548762Y176516D02*
X606970Y234724D01*
X519287D02*
X578343Y175669D01*
X515276Y193320D02*
X556680Y234724D01*
X515276Y186135D02*
X563865Y234724D01*
X515276Y200504D02*
X549496Y234724D01*
X515276Y171767D02*
X578233Y234724D01*
X515276Y178951D02*
X571049Y234724D01*
X555946Y176516D02*
X614154Y234724D01*
X532391Y176516D02*
X575000D01*
X515276Y209998D02*
X548758Y176516D01*
X532391Y162484D02*
X572094D01*
X515536Y159164D02*
X543364D01*
X515276Y234724D02*
X644724D01*
X515276Y231551D02*
X570311Y176516D01*
X515276Y224367D02*
X563127Y176516D01*
X515276Y217183D02*
X555943Y176516D01*
X515276Y202814D02*
X541574Y176516D01*
X515276Y195630D02*
X534390Y176516D01*
X515276Y188446D02*
X527150Y176572D01*
X515276Y181262D02*
X523220Y173317D01*
X515276Y222057D02*
X527943Y234724D01*
X515276Y229241D02*
X520759Y234724D01*
X515276Y207688D02*
X542312Y234724D01*
X515276Y214872D02*
X535128Y234724D01*
X526782Y162572D02*
X530189Y159164D01*
X524226D02*
X527403Y162342D01*
X517041Y159164D02*
X523350Y165472D01*
X534053Y162484D02*
X537374Y159164D01*
X531410D02*
X534730Y162484D01*
X515276Y174077D02*
X522767Y166586D01*
X515276Y164583D02*
X522562Y171869D01*
X515276Y166893D02*
X523005Y159164D01*
X515276Y159709D02*
X515821Y159164D01*
X548422Y162484D02*
X552031Y158875D01*
X552812Y159014D02*
X556283Y162484D01*
X543364Y156750D02*
X549098Y162484D01*
X548024Y234724D02*
X644724Y138024D01*
X555208Y234724D02*
X644724Y145208D01*
X533656Y234724D02*
X609872Y158508D01*
X526471Y234724D02*
X602413Y158782D01*
X540840Y234724D02*
X644724Y130840D01*
X543364Y156750D02*
X549098Y162484D01*
X555606D02*
X559859Y158231D01*
X547811Y125276D02*
X553904Y131368D01*
X543364Y131621D02*
X549709Y125276D01*
X554995D02*
X568132Y138412D01*
X549937Y132232D02*
X556893Y125276D01*
X515276D02*
X644724D01*
X540627D02*
X548316Y132965D01*
X541238Y162484D02*
X546990Y156731D01*
X543364Y153103D02*
Y159164D01*
X538594D02*
X541914Y162484D01*
X543364Y135197D02*
X544321Y136154D01*
X543364Y131336D02*
Y137397D01*
X515536Y157659D02*
X517041Y159164D01*
X515536Y131336D02*
Y159164D01*
X515276Y128662D02*
X517950Y131336D01*
X515276Y125276D02*
Y234724D01*
X526259Y125276D02*
X532319Y131336D01*
X529281D02*
X535340Y125276D01*
X522096Y131336D02*
X528156Y125276D01*
X536465Y131336D02*
X542525Y125276D01*
X533443D02*
X539503Y131336D01*
X515536D02*
X543364D01*
X515276Y128662D02*
X517950Y131336D01*
X519074Y125276D02*
X525134Y131336D01*
X515276Y130972D02*
X520972Y125276D01*
X749964Y174458D02*
G03*
X745000Y176516I-4964J-4958D01*
G01*
X757266Y164250D02*
G03*
X755211Y169211I-7016J0D01*
G01*
X757266Y164250D02*
G03*
X755208Y169214I-7016J0D01*
G01*
X749961Y174461D02*
G03*
X745000Y176516I-4961J-4961D01*
G01*
X789564Y145250D02*
G03*
X762950Y150934I-13914J0D01*
G01*
Y139566D02*
G03*
X789564Y145250I12700J5684D01*
G01*
X737550Y139566D02*
G03*
X762950Y139566I12700J5684D01*
G01*
Y150934D02*
G03*
X757266Y157266I-12700J-5684D01*
G01*
X743234D02*
G03*
X737550Y150934I7016J-12016D01*
G01*
X702391Y176516D02*
G03*
X702391Y162484I-2695J-7016D01*
G01*
X713364Y137397D02*
G03*
X737550Y139566I11486J7853D01*
G01*
Y150934D02*
G03*
X713364Y153103I-12700J-5684D01*
G01*
X804234Y234724D02*
X814724Y224235D01*
X797050Y234724D02*
X814724Y217050D01*
X811419Y234724D02*
X814724Y231419D01*
X782682Y234724D02*
X814724Y202682D01*
X789866Y234724D02*
X814724Y209866D01*
X768313Y234724D02*
X814724Y188313D01*
X761129Y234724D02*
X814724Y181129D01*
X775498Y234724D02*
X814724Y195498D01*
X739576Y234724D02*
X814724Y159577D01*
X751294Y173128D02*
X812891Y234724D01*
X757266Y157547D02*
X814724Y215005D01*
X779802Y158530D02*
X814724Y193452D01*
X772997Y158909D02*
X814724Y200636D01*
X760994Y154091D02*
X814724Y207820D01*
X784469Y156012D02*
X814724Y186268D01*
X754887Y169536D02*
X814724Y229373D01*
X753945Y234724D02*
X814724Y173945D01*
X757251Y164715D02*
X814724Y222189D01*
X746761Y234724D02*
X814724Y166761D01*
X747158Y176176D02*
X805707Y234724D01*
X749964Y174458D02*
X755208Y169214D01*
X733130Y176516D02*
X791338Y234724D01*
X733130Y176516D02*
X791338Y234724D01*
X740314Y176516D02*
X798522Y234724D01*
X757266Y157266D02*
Y164250D01*
X743234Y157266D02*
Y161344D01*
X742094Y162484D02*
X743234Y161344D01*
X756419Y167593D02*
X767491Y156521D01*
X740954Y155603D02*
X743234Y157883D01*
X739975Y162484D02*
X743234Y159225D01*
X729386Y158404D02*
X733467Y162484D01*
X733946Y155779D02*
X740651Y162484D01*
X732790D02*
X740299Y154975D01*
X787754Y152113D02*
X814724Y179083D01*
X789492Y146667D02*
X814724Y171899D01*
X788908Y149472D02*
X813104Y125276D01*
X814724D02*
Y234724D01*
X789653Y125276D02*
X814724Y150347D01*
X732392Y234724D02*
X814724Y152392D01*
X782469Y125276D02*
X814724Y157531D01*
X786274Y136265D02*
X814724Y164715D01*
X796838Y125276D02*
X814724Y143162D01*
X789182Y142013D02*
X805919Y125276D01*
X786920Y137091D02*
X798735Y125276D01*
X811206D02*
X814724Y128794D01*
X804022Y125276D02*
X814724Y135978D01*
X775285Y125276D02*
X784635Y134626D01*
X783239Y133588D02*
X791551Y125276D01*
X778091Y131552D02*
X784367Y125276D01*
X757266Y159561D02*
X763988Y152839D01*
X759975Y135299D02*
X769998Y125276D01*
X753732D02*
X764888Y136431D01*
X737135Y151784D02*
X739897Y154546D01*
X736331Y137390D02*
X748446Y125276D01*
X732180D02*
X741409Y134506D01*
X760917Y125276D02*
X768787Y133146D01*
X755660Y132431D02*
X762814Y125276D01*
X749553Y131354D02*
X755630Y125276D01*
X769861Y132597D02*
X777183Y125276D01*
X768101D02*
X774233Y131408D01*
X732745Y133793D02*
X741262Y125276D01*
X727719Y131635D02*
X734077Y125276D01*
X746548D02*
X752854Y131582D01*
X739364Y125276D02*
X746067Y131980D01*
X704393Y176516D02*
X762601Y234724D01*
X711578Y176516D02*
X769786Y234724D01*
X697326Y176633D02*
X755417Y234724D01*
X718762Y176516D02*
X776970Y234724D01*
X689287D02*
X748343Y175669D01*
X685276Y193320D02*
X726680Y234724D01*
X685276Y186135D02*
X733865Y234724D01*
X685276Y200504D02*
X719496Y234724D01*
X685276Y171767D02*
X748233Y234724D01*
X685276Y178951D02*
X741049Y234724D01*
X725946Y176516D02*
X784154Y234724D01*
X702391Y176516D02*
X745000D01*
X685276Y209998D02*
X718758Y176516D01*
X702391Y162484D02*
X742094D01*
X685536Y159164D02*
X713364D01*
X685276Y234724D02*
X814724D01*
X685276Y231551D02*
X740311Y176516D01*
X685276Y224367D02*
X733127Y176516D01*
X685276Y217183D02*
X725943Y176516D01*
X685276Y202814D02*
X711574Y176516D01*
X685276Y195630D02*
X704390Y176516D01*
X685276Y188446D02*
X697150Y176572D01*
X685276Y181262D02*
X693221Y173317D01*
X685276Y222057D02*
X697943Y234724D01*
X685276Y229241D02*
X690759Y234724D01*
X685276Y207688D02*
X712312Y234724D01*
X685276Y214872D02*
X705128Y234724D01*
X696782Y162572D02*
X700189Y159164D01*
X694225D02*
X697403Y162342D01*
X687041Y159164D02*
X693350Y165472D01*
X704053Y162484D02*
X707374Y159164D01*
X701410D02*
X704730Y162484D01*
X685276Y174077D02*
X692767Y166586D01*
X685276Y164583D02*
X692562Y171869D01*
X685276Y166893D02*
X693005Y159164D01*
X685276Y159709D02*
X685821Y159164D01*
X718422Y162484D02*
X722031Y158875D01*
X722812Y159014D02*
X726282Y162484D01*
X713364Y156750D02*
X719098Y162484D01*
X718024Y234724D02*
X814724Y138024D01*
X725208Y234724D02*
X814724Y145208D01*
X703656Y234724D02*
X779872Y158508D01*
X696471Y234724D02*
X772413Y158782D01*
X710840Y234724D02*
X814724Y130840D01*
X713364Y156750D02*
X719098Y162484D01*
X725606D02*
X729859Y158231D01*
X717811Y125276D02*
X723904Y131368D01*
X713364Y131621D02*
X719709Y125276D01*
X724995D02*
X738132Y138412D01*
X719937Y132232D02*
X726893Y125276D01*
X685276D02*
X814724D01*
X710627D02*
X718316Y132965D01*
X711238Y162484D02*
X716990Y156731D01*
X713364Y153103D02*
Y159164D01*
X708594D02*
X711914Y162484D01*
X713364Y135197D02*
X714321Y136154D01*
X713364Y131336D02*
Y137397D01*
X685536Y157659D02*
X687041Y159164D01*
X685536Y131336D02*
Y159164D01*
X685276Y128662D02*
X687950Y131336D01*
X685276Y125276D02*
Y234724D01*
X696259Y125276D02*
X702319Y131336D01*
X699280D02*
X705340Y125276D01*
X692096Y131336D02*
X698156Y125276D01*
X706465Y131336D02*
X712525Y125276D01*
X703443D02*
X709503Y131336D01*
X685536D02*
X713364D01*
X685276Y128662D02*
X687950Y131336D01*
X689074Y125276D02*
X695134Y131336D01*
X685276Y130972D02*
X690972Y125276D01*
X69964Y294458D02*
G03*
X65000Y296516I-4964J-4958D01*
G01*
X77266Y284250D02*
G03*
X75211Y289211I-7016J0D01*
G01*
X77266Y284250D02*
G03*
X75208Y289214I-7016J0D01*
G01*
X69961Y294461D02*
G03*
X65000Y296516I-4961J-4961D01*
G01*
X109564Y265250D02*
G03*
X82950Y270934I-13914J0D01*
G01*
Y259566D02*
G03*
X109564Y265250I12700J5684D01*
G01*
X57550Y259566D02*
G03*
X82950Y259566I12700J5684D01*
G01*
Y270934D02*
G03*
X77266Y277266I-12700J-5684D01*
G01*
X63234D02*
G03*
X57550Y270934I7016J-12016D01*
G01*
X22391Y296516D02*
G03*
X22391Y282484I-2695J-7016D01*
G01*
X33364Y257397D02*
G03*
X57550Y259566I11486J7853D01*
G01*
Y270934D02*
G03*
X33364Y273103I-12700J-5684D01*
G01*
X124235Y354724D02*
X134724Y344235D01*
X117050Y354724D02*
X134724Y337050D01*
X131419Y354724D02*
X134724Y351419D01*
X102682Y354724D02*
X134724Y322682D01*
X109866Y354724D02*
X134724Y329866D01*
X88313Y354724D02*
X134724Y308313D01*
X81129Y354724D02*
X134724Y301129D01*
X95498Y354724D02*
X134724Y315498D01*
X59577Y354724D02*
X134724Y279577D01*
X71294Y293128D02*
X132891Y354724D01*
X77266Y277547D02*
X134724Y335005D01*
X99802Y278530D02*
X134724Y313452D01*
X92997Y278909D02*
X134724Y320636D01*
X80994Y274091D02*
X134724Y327820D01*
X104469Y276012D02*
X134724Y306268D01*
X74887Y289536D02*
X134724Y349373D01*
X73945Y354724D02*
X134724Y293945D01*
X77251Y284715D02*
X134724Y342189D01*
X66761Y354724D02*
X134724Y286761D01*
X67158Y296176D02*
X125707Y354724D01*
X69964Y294458D02*
X75208Y289214D01*
X53130Y296516D02*
X111338Y354724D01*
X53130Y296516D02*
X111338Y354724D01*
X60314Y296516D02*
X118523Y354724D01*
X77266Y277266D02*
Y284250D01*
X63234Y277266D02*
Y281344D01*
X62094Y282484D02*
X63234Y281344D01*
X76418Y287593D02*
X87491Y276521D01*
X60954Y275603D02*
X63234Y277883D01*
X59975Y282484D02*
X63234Y279225D01*
X49386Y278404D02*
X53467Y282484D01*
X53946Y275779D02*
X60651Y282484D01*
X52790D02*
X60299Y274975D01*
X107754Y272113D02*
X134724Y299083D01*
X109492Y266667D02*
X134724Y291899D01*
X108908Y269471D02*
X133104Y245276D01*
X134724D02*
Y354724D01*
X109653Y245276D02*
X134724Y270347D01*
X52392Y354724D02*
X134724Y272392D01*
X102469Y245276D02*
X134724Y277531D01*
X106274Y256265D02*
X134724Y284715D01*
X116838Y245276D02*
X134724Y263162D01*
X109182Y262013D02*
X125920Y245276D01*
X106921Y257091D02*
X118735Y245276D01*
X131206D02*
X134724Y248794D01*
X124022Y245276D02*
X134724Y255978D01*
X95285Y245276D02*
X104635Y254626D01*
X103239Y253588D02*
X111551Y245276D01*
X98091Y251552D02*
X104367Y245276D01*
X77266Y279561D02*
X83988Y272839D01*
X79975Y255299D02*
X89998Y245276D01*
X73732D02*
X84888Y256431D01*
X57135Y271784D02*
X59897Y274546D01*
X56332Y257390D02*
X68446Y245276D01*
X52180D02*
X61409Y254506D01*
X80917Y245276D02*
X88787Y253146D01*
X75660Y252431D02*
X82814Y245276D01*
X69552Y251353D02*
X75630Y245276D01*
X89861Y252597D02*
X97183Y245276D01*
X88101D02*
X94233Y251408D01*
X52745Y253793D02*
X61262Y245276D01*
X47719Y251635D02*
X54077Y245276D01*
X66548D02*
X72854Y251582D01*
X59364Y245276D02*
X66068Y251980D01*
X24393Y296516D02*
X82601Y354724D01*
X31578Y296516D02*
X89786Y354724D01*
X17326Y296633D02*
X75417Y354724D01*
X38762Y296516D02*
X96970Y354724D01*
X9287D02*
X68343Y295668D01*
X5276Y313320D02*
X46680Y354724D01*
X5276Y306135D02*
X53865Y354724D01*
X5276Y320504D02*
X39496Y354724D01*
X5276Y291767D02*
X68233Y354724D01*
X5276Y298951D02*
X61049Y354724D01*
X45946Y296516D02*
X104154Y354724D01*
X22391Y296516D02*
X65000D01*
X5276Y329998D02*
X38758Y296516D01*
X22391Y282484D02*
X62094D01*
X5536Y279164D02*
X33364D01*
X5276Y354724D02*
X134724D01*
X5276Y351551D02*
X60311Y296516D01*
X5276Y344367D02*
X53127Y296516D01*
X5276Y337183D02*
X45943Y296516D01*
X5276Y322814D02*
X31574Y296516D01*
X5276Y315630D02*
X24390Y296516D01*
X5276Y308446D02*
X17150Y296572D01*
X5276Y301262D02*
X13221Y293317D01*
X5276Y342057D02*
X17944Y354724D01*
X5276Y349241D02*
X10759Y354724D01*
X5276Y327688D02*
X32312Y354724D01*
X5276Y334872D02*
X25128Y354724D01*
X16782Y282572D02*
X20189Y279164D01*
X14226D02*
X17404Y282342D01*
X7041Y279164D02*
X13350Y285472D01*
X24053Y282484D02*
X27374Y279164D01*
X21410D02*
X24730Y282484D01*
X5276Y294077D02*
X12767Y286586D01*
X5276Y284583D02*
X12562Y291869D01*
X5276Y286893D02*
X13005Y279164D01*
X5276Y279709D02*
X5821Y279164D01*
X38422Y282484D02*
X42031Y278875D01*
X42812Y279014D02*
X46283Y282484D01*
X33364Y276750D02*
X39098Y282484D01*
X38024Y354724D02*
X134724Y258024D01*
X45208Y354724D02*
X134724Y265208D01*
X23656Y354724D02*
X99872Y278508D01*
X16472Y354724D02*
X92413Y278782D01*
X30840Y354724D02*
X134724Y250840D01*
X33364Y276750D02*
X39098Y282484D01*
X45606D02*
X49859Y278231D01*
X37811Y245276D02*
X43903Y251368D01*
X33364Y251621D02*
X39709Y245276D01*
X44995D02*
X58132Y258412D01*
X39937Y252232D02*
X46893Y245276D01*
X5276D02*
X134724D01*
X30627D02*
X38317Y252965D01*
X31238Y282484D02*
X36990Y276731D01*
X33364Y273103D02*
Y279164D01*
X28594D02*
X31914Y282484D01*
X33364Y255197D02*
X34321Y256154D01*
X33364Y251336D02*
Y257397D01*
X5536Y277659D02*
X7041Y279164D01*
X5536Y251336D02*
Y279164D01*
X5276Y248662D02*
X7950Y251336D01*
X5276Y245276D02*
Y354724D01*
X16259Y245276D02*
X22319Y251336D01*
X19281D02*
X25340Y245276D01*
X12096Y251336D02*
X18156Y245276D01*
X26465Y251336D02*
X32525Y245276D01*
X23443D02*
X29503Y251336D01*
X5536D02*
X33364D01*
X5276Y248662D02*
X7950Y251336D01*
X9075Y245276D02*
X15134Y251336D01*
X5276Y250972D02*
X10972Y245276D01*
X239964Y294458D02*
G03*
X235000Y296516I-4964J-4958D01*
G01*
X247266Y284250D02*
G03*
X245211Y289211I-7016J0D01*
G01*
X247266Y284250D02*
G03*
X245208Y289214I-7016J0D01*
G01*
X239961Y294461D02*
G03*
X235000Y296516I-4961J-4961D01*
G01*
X279564Y265250D02*
G03*
X252950Y270934I-13914J0D01*
G01*
Y259566D02*
G03*
X279564Y265250I12700J5684D01*
G01*
X227550Y259566D02*
G03*
X252950Y259566I12700J5684D01*
G01*
Y270934D02*
G03*
X247266Y277266I-12700J-5684D01*
G01*
X233234D02*
G03*
X227550Y270934I7016J-12016D01*
G01*
X192391Y296516D02*
G03*
X192391Y282484I-2695J-7016D01*
G01*
X203364Y257397D02*
G03*
X227550Y259566I11486J7853D01*
G01*
Y270934D02*
G03*
X203364Y273103I-12700J-5684D01*
G01*
X294235Y354724D02*
X304724Y344235D01*
X287050Y354724D02*
X304724Y337050D01*
X301419Y354724D02*
X304724Y351419D01*
X272682Y354724D02*
X304724Y322682D01*
X279866Y354724D02*
X304724Y329866D01*
X258313Y354724D02*
X304724Y308313D01*
X251129Y354724D02*
X304724Y301129D01*
X265498Y354724D02*
X304724Y315498D01*
X229577Y354724D02*
X304724Y279577D01*
X241294Y293128D02*
X302891Y354724D01*
X247266Y277547D02*
X304724Y335005D01*
X269802Y278530D02*
X304724Y313452D01*
X262997Y278909D02*
X304724Y320636D01*
X250994Y274091D02*
X304724Y327820D01*
X274469Y276012D02*
X304724Y306268D01*
X244887Y289536D02*
X304724Y349373D01*
X243945Y354724D02*
X304724Y293945D01*
X247251Y284715D02*
X304724Y342189D01*
X236761Y354724D02*
X304724Y286761D01*
X237158Y296176D02*
X295707Y354724D01*
X239964Y294458D02*
X245208Y289214D01*
X223130Y296516D02*
X281338Y354724D01*
X223130Y296516D02*
X281338Y354724D01*
X230314Y296516D02*
X288522Y354724D01*
X247266Y277266D02*
Y284250D01*
X233234Y277266D02*
Y281344D01*
X232094Y282484D02*
X233234Y281344D01*
X246418Y287593D02*
X257491Y276521D01*
X230954Y275603D02*
X233234Y277883D01*
X229975Y282484D02*
X233234Y279225D01*
X219386Y278404D02*
X223467Y282484D01*
X223946Y275779D02*
X230651Y282484D01*
X222790D02*
X230299Y274975D01*
X277754Y272113D02*
X304724Y299083D01*
X279492Y266667D02*
X304724Y291899D01*
X278908Y269471D02*
X303104Y245276D01*
X304724D02*
Y354724D01*
X279653Y245276D02*
X304724Y270347D01*
X222392Y354724D02*
X304724Y272392D01*
X272469Y245276D02*
X304724Y277531D01*
X276274Y256265D02*
X304724Y284715D01*
X286838Y245276D02*
X304724Y263162D01*
X279182Y262013D02*
X295919Y245276D01*
X276921Y257091D02*
X288735Y245276D01*
X301206D02*
X304724Y248794D01*
X294022Y245276D02*
X304724Y255978D01*
X265285Y245276D02*
X274635Y254626D01*
X273239Y253588D02*
X281551Y245276D01*
X268091Y251552D02*
X274367Y245276D01*
X247266Y279561D02*
X253988Y272839D01*
X249975Y255299D02*
X259998Y245276D01*
X243732D02*
X254888Y256431D01*
X227135Y271784D02*
X229897Y274546D01*
X226332Y257390D02*
X238446Y245276D01*
X222180D02*
X231409Y254506D01*
X250917Y245276D02*
X258787Y253146D01*
X245660Y252431D02*
X252814Y245276D01*
X239552Y251353D02*
X245630Y245276D01*
X259861Y252597D02*
X267183Y245276D01*
X258101D02*
X264233Y251408D01*
X222745Y253793D02*
X231262Y245276D01*
X217719Y251635D02*
X224077Y245276D01*
X236548D02*
X242854Y251582D01*
X229364Y245276D02*
X236067Y251980D01*
X194393Y296516D02*
X252601Y354724D01*
X201578Y296516D02*
X259786Y354724D01*
X187326Y296633D02*
X245417Y354724D01*
X208762Y296516D02*
X266970Y354724D01*
X179287D02*
X238343Y295668D01*
X175276Y313320D02*
X216680Y354724D01*
X175276Y306135D02*
X223865Y354724D01*
X175276Y320504D02*
X209496Y354724D01*
X175276Y291767D02*
X238233Y354724D01*
X175276Y298951D02*
X231049Y354724D01*
X215946Y296516D02*
X274154Y354724D01*
X192391Y296516D02*
X235000D01*
X175276Y329998D02*
X208758Y296516D01*
X192391Y282484D02*
X232094D01*
X175536Y279164D02*
X203364D01*
X175276Y354724D02*
X304724D01*
X175276Y351551D02*
X230311Y296516D01*
X175276Y344367D02*
X223127Y296516D01*
X175276Y337183D02*
X215943Y296516D01*
X175276Y322814D02*
X201574Y296516D01*
X175276Y315630D02*
X194390Y296516D01*
X175276Y308446D02*
X187150Y296572D01*
X175276Y301262D02*
X183221Y293317D01*
X175276Y342057D02*
X187943Y354724D01*
X175276Y349241D02*
X180759Y354724D01*
X175276Y327688D02*
X202312Y354724D01*
X175276Y334872D02*
X195128Y354724D01*
X186782Y282572D02*
X190189Y279164D01*
X184226D02*
X187404Y282342D01*
X177041Y279164D02*
X183350Y285472D01*
X194053Y282484D02*
X197374Y279164D01*
X191410D02*
X194730Y282484D01*
X175276Y294077D02*
X182767Y286586D01*
X175276Y284583D02*
X182562Y291869D01*
X175276Y286893D02*
X183005Y279164D01*
X175276Y279709D02*
X175821Y279164D01*
X208422Y282484D02*
X212031Y278875D01*
X212812Y279014D02*
X216283Y282484D01*
X203364Y276750D02*
X209098Y282484D01*
X208024Y354724D02*
X304724Y258024D01*
X215208Y354724D02*
X304724Y265208D01*
X193656Y354724D02*
X269872Y278508D01*
X186472Y354724D02*
X262413Y278782D01*
X200840Y354724D02*
X304724Y250840D01*
X203364Y276750D02*
X209098Y282484D01*
X215606D02*
X219859Y278231D01*
X207811Y245276D02*
X213904Y251368D01*
X203364Y251621D02*
X209709Y245276D01*
X214995D02*
X228132Y258412D01*
X209937Y252232D02*
X216893Y245276D01*
X175276D02*
X304724D01*
X200627D02*
X208316Y252965D01*
X201238Y282484D02*
X206990Y276731D01*
X203364Y273103D02*
Y279164D01*
X198594D02*
X201914Y282484D01*
X203364Y255197D02*
X204321Y256154D01*
X203364Y251336D02*
Y257397D01*
X175536Y277659D02*
X177041Y279164D01*
X175536Y251336D02*
Y279164D01*
X175276Y248662D02*
X177950Y251336D01*
X175276Y245276D02*
Y354724D01*
X186259Y245276D02*
X192319Y251336D01*
X189280D02*
X195340Y245276D01*
X182096Y251336D02*
X188156Y245276D01*
X196465Y251336D02*
X202525Y245276D01*
X193443D02*
X199503Y251336D01*
X175536D02*
X203364D01*
X175276Y248662D02*
X177950Y251336D01*
X179074Y245276D02*
X185134Y251336D01*
X175276Y250972D02*
X180972Y245276D01*
X409964Y294458D02*
G03*
X405000Y296516I-4964J-4958D01*
G01*
X417266Y284250D02*
G03*
X415211Y289211I-7016J0D01*
G01*
X417266Y284250D02*
G03*
X415208Y289214I-7016J0D01*
G01*
X409961Y294461D02*
G03*
X405000Y296516I-4961J-4961D01*
G01*
X449564Y265250D02*
G03*
X422950Y270934I-13914J0D01*
G01*
Y259566D02*
G03*
X449564Y265250I12700J5684D01*
G01*
X397550Y259566D02*
G03*
X422950Y259566I12700J5684D01*
G01*
Y270934D02*
G03*
X417266Y277266I-12700J-5684D01*
G01*
X403234D02*
G03*
X397550Y270934I7016J-12016D01*
G01*
X362391Y296516D02*
G03*
X362391Y282484I-2695J-7016D01*
G01*
X373364Y257397D02*
G03*
X397550Y259566I11486J7853D01*
G01*
Y270934D02*
G03*
X373364Y273103I-12700J-5684D01*
G01*
X464235Y354724D02*
X474724Y344235D01*
X457050Y354724D02*
X474724Y337050D01*
X471419Y354724D02*
X474724Y351419D01*
X442682Y354724D02*
X474724Y322682D01*
X449866Y354724D02*
X474724Y329866D01*
X428313Y354724D02*
X474724Y308313D01*
X421129Y354724D02*
X474724Y301129D01*
X435498Y354724D02*
X474724Y315498D01*
X399577Y354724D02*
X474724Y279577D01*
X411295Y293128D02*
X472891Y354724D01*
X417266Y277547D02*
X474724Y335005D01*
X439802Y278530D02*
X474724Y313452D01*
X432996Y278909D02*
X474724Y320636D01*
X420994Y274091D02*
X474724Y327820D01*
X444469Y276012D02*
X474724Y306268D01*
X414887Y289536D02*
X474724Y349373D01*
X413945Y354724D02*
X474724Y293945D01*
X417251Y284715D02*
X474724Y342189D01*
X406761Y354724D02*
X474724Y286761D01*
X407158Y296176D02*
X465707Y354724D01*
X409964Y294458D02*
X415208Y289214D01*
X393130Y296516D02*
X451338Y354724D01*
X393130Y296516D02*
X451338Y354724D01*
X400314Y296516D02*
X458522Y354724D01*
X417266Y277266D02*
Y284250D01*
X403234Y277266D02*
Y281344D01*
X402094Y282484D02*
X403234Y281344D01*
X416418Y287593D02*
X427491Y276521D01*
X400954Y275603D02*
X403234Y277883D01*
X399975Y282484D02*
X403234Y279225D01*
X389386Y278404D02*
X393467Y282484D01*
X393946Y275779D02*
X400651Y282484D01*
X392790D02*
X400299Y274975D01*
X447754Y272113D02*
X474724Y299083D01*
X449492Y266667D02*
X474724Y291899D01*
X448908Y269471D02*
X473104Y245276D01*
X474724D02*
Y354724D01*
X449653Y245276D02*
X474724Y270347D01*
X392392Y354724D02*
X474724Y272392D01*
X442469Y245276D02*
X474724Y277531D01*
X446274Y256265D02*
X474724Y284715D01*
X456838Y245276D02*
X474724Y263162D01*
X449182Y262013D02*
X465919Y245276D01*
X446921Y257091D02*
X458735Y245276D01*
X471206D02*
X474724Y248794D01*
X464022Y245276D02*
X474724Y255978D01*
X435285Y245276D02*
X444635Y254626D01*
X443239Y253588D02*
X451551Y245276D01*
X438091Y251552D02*
X444367Y245276D01*
X417266Y279561D02*
X423988Y272839D01*
X419975Y255299D02*
X429998Y245276D01*
X413732D02*
X424888Y256431D01*
X397135Y271784D02*
X399897Y274546D01*
X396331Y257390D02*
X408446Y245276D01*
X392180D02*
X401409Y254506D01*
X420917Y245276D02*
X428787Y253146D01*
X415660Y252431D02*
X422814Y245276D01*
X409552Y251353D02*
X415630Y245276D01*
X429861Y252597D02*
X437183Y245276D01*
X428101D02*
X434233Y251408D01*
X392745Y253793D02*
X401262Y245276D01*
X387719Y251635D02*
X394077Y245276D01*
X406548D02*
X412854Y251582D01*
X399364Y245276D02*
X406067Y251980D01*
X364393Y296516D02*
X422601Y354724D01*
X371578Y296516D02*
X429786Y354724D01*
X357326Y296633D02*
X415417Y354724D01*
X378762Y296516D02*
X436970Y354724D01*
X349287D02*
X408343Y295668D01*
X345276Y313320D02*
X386680Y354724D01*
X345276Y306135D02*
X393865Y354724D01*
X345276Y320504D02*
X379496Y354724D01*
X345276Y291767D02*
X408233Y354724D01*
X345276Y298951D02*
X401049Y354724D01*
X385946Y296516D02*
X444154Y354724D01*
X362391Y296516D02*
X405000D01*
X345276Y329998D02*
X378758Y296516D01*
X362391Y282484D02*
X402094D01*
X345536Y279164D02*
X373364D01*
X345276Y354724D02*
X474724D01*
X345276Y351551D02*
X400311Y296516D01*
X345276Y344367D02*
X393127Y296516D01*
X345276Y337183D02*
X385943Y296516D01*
X345276Y322814D02*
X371574Y296516D01*
X345276Y315630D02*
X364390Y296516D01*
X345276Y308446D02*
X357150Y296572D01*
X345276Y301262D02*
X353221Y293317D01*
X345276Y342057D02*
X357943Y354724D01*
X345276Y349241D02*
X350759Y354724D01*
X345276Y327688D02*
X372312Y354724D01*
X345276Y334872D02*
X365128Y354724D01*
X356782Y282572D02*
X360189Y279164D01*
X354226D02*
X357403Y282342D01*
X347041Y279164D02*
X353350Y285472D01*
X364053Y282484D02*
X367374Y279164D01*
X361410D02*
X364730Y282484D01*
X345276Y294077D02*
X352767Y286586D01*
X345276Y284583D02*
X352562Y291869D01*
X345276Y286893D02*
X353005Y279164D01*
X345276Y279709D02*
X345821Y279164D01*
X378422Y282484D02*
X382031Y278875D01*
X382812Y279014D02*
X386283Y282484D01*
X373364Y276750D02*
X379098Y282484D01*
X378024Y354724D02*
X474724Y258024D01*
X385208Y354724D02*
X474724Y265208D01*
X363656Y354724D02*
X439872Y278508D01*
X356471Y354724D02*
X432413Y278782D01*
X370840Y354724D02*
X474724Y250840D01*
X373364Y276750D02*
X379098Y282484D01*
X385606D02*
X389859Y278231D01*
X377811Y245276D02*
X383904Y251368D01*
X373364Y251621D02*
X379709Y245276D01*
X384995D02*
X398132Y258412D01*
X379937Y252232D02*
X386893Y245276D01*
X345276D02*
X474724D01*
X370627D02*
X378316Y252965D01*
X371238Y282484D02*
X376990Y276731D01*
X373364Y273103D02*
Y279164D01*
X368594D02*
X371914Y282484D01*
X373364Y255197D02*
X374321Y256154D01*
X373364Y251336D02*
Y257397D01*
X345536Y277659D02*
X347041Y279164D01*
X345536Y251336D02*
Y279164D01*
X345276Y248662D02*
X347950Y251336D01*
X345276Y245276D02*
Y354724D01*
X356259Y245276D02*
X362319Y251336D01*
X359281D02*
X365340Y245276D01*
X352096Y251336D02*
X358156Y245276D01*
X366465Y251336D02*
X372525Y245276D01*
X363443D02*
X369503Y251336D01*
X345536D02*
X373364D01*
X345276Y248662D02*
X347950Y251336D01*
X349074Y245276D02*
X355134Y251336D01*
X345276Y250972D02*
X350972Y245276D01*
X579964Y294458D02*
G03*
X575000Y296516I-4964J-4958D01*
G01*
X587266Y284250D02*
G03*
X585211Y289211I-7016J0D01*
G01*
X587266Y284250D02*
G03*
X585208Y289214I-7016J0D01*
G01*
X579961Y294461D02*
G03*
X575000Y296516I-4961J-4961D01*
G01*
X619564Y265250D02*
G03*
X592950Y270934I-13914J0D01*
G01*
Y259566D02*
G03*
X619564Y265250I12700J5684D01*
G01*
X567550Y259566D02*
G03*
X592950Y259566I12700J5684D01*
G01*
Y270934D02*
G03*
X587266Y277266I-12700J-5684D01*
G01*
X573234D02*
G03*
X567550Y270934I7016J-12016D01*
G01*
X532391Y296516D02*
G03*
X532391Y282484I-2695J-7016D01*
G01*
X543364Y257397D02*
G03*
X567550Y259566I11486J7853D01*
G01*
Y270934D02*
G03*
X543364Y273103I-12700J-5684D01*
G01*
X634235Y354724D02*
X644724Y344235D01*
X627050Y354724D02*
X644724Y337050D01*
X641419Y354724D02*
X644724Y351419D01*
X612682Y354724D02*
X644724Y322682D01*
X619866Y354724D02*
X644724Y329866D01*
X598313Y354724D02*
X644724Y308313D01*
X591129Y354724D02*
X644724Y301129D01*
X605498Y354724D02*
X644724Y315498D01*
X569577Y354724D02*
X644724Y279577D01*
X581295Y293128D02*
X642891Y354724D01*
X587266Y277547D02*
X644724Y335005D01*
X609802Y278530D02*
X644724Y313452D01*
X602996Y278909D02*
X644724Y320636D01*
X590994Y274091D02*
X644724Y327820D01*
X614469Y276012D02*
X644724Y306268D01*
X584887Y289536D02*
X644724Y349373D01*
X583945Y354724D02*
X644724Y293945D01*
X587251Y284715D02*
X644724Y342189D01*
X576761Y354724D02*
X644724Y286761D01*
X577158Y296176D02*
X635707Y354724D01*
X579964Y294458D02*
X585208Y289214D01*
X563130Y296516D02*
X621338Y354724D01*
X563130Y296516D02*
X621338Y354724D01*
X570314Y296516D02*
X628522Y354724D01*
X587266Y277266D02*
Y284250D01*
X573234Y277266D02*
Y281344D01*
X572094Y282484D02*
X573234Y281344D01*
X586418Y287593D02*
X597491Y276521D01*
X570954Y275603D02*
X573234Y277883D01*
X569975Y282484D02*
X573234Y279225D01*
X559386Y278404D02*
X563467Y282484D01*
X563946Y275779D02*
X570651Y282484D01*
X562790D02*
X570299Y274975D01*
X617754Y272113D02*
X644724Y299083D01*
X619492Y266667D02*
X644724Y291899D01*
X618908Y269471D02*
X643104Y245276D01*
X644724D02*
Y354724D01*
X619653Y245276D02*
X644724Y270347D01*
X562392Y354724D02*
X644724Y272392D01*
X612469Y245276D02*
X644724Y277531D01*
X616274Y256265D02*
X644724Y284715D01*
X626838Y245276D02*
X644724Y263162D01*
X619182Y262013D02*
X635919Y245276D01*
X616921Y257091D02*
X628735Y245276D01*
X641206D02*
X644724Y248794D01*
X634022Y245276D02*
X644724Y255978D01*
X605285Y245276D02*
X614635Y254626D01*
X613239Y253588D02*
X621551Y245276D01*
X608091Y251552D02*
X614367Y245276D01*
X587266Y279561D02*
X593988Y272839D01*
X589975Y255299D02*
X599998Y245276D01*
X583732D02*
X594888Y256431D01*
X567135Y271784D02*
X569897Y274546D01*
X566331Y257390D02*
X578446Y245276D01*
X562180D02*
X571409Y254506D01*
X590916Y245276D02*
X598787Y253146D01*
X585660Y252431D02*
X592814Y245276D01*
X579552Y251353D02*
X585630Y245276D01*
X599861Y252597D02*
X607183Y245276D01*
X598101D02*
X604233Y251408D01*
X562745Y253793D02*
X571261Y245276D01*
X557719Y251635D02*
X564077Y245276D01*
X576548D02*
X582854Y251582D01*
X569364Y245276D02*
X576067Y251980D01*
X534393Y296516D02*
X592601Y354724D01*
X541578Y296516D02*
X599786Y354724D01*
X527326Y296633D02*
X585417Y354724D01*
X548762Y296516D02*
X606970Y354724D01*
X519287D02*
X578343Y295668D01*
X515276Y313320D02*
X556680Y354724D01*
X515276Y306135D02*
X563865Y354724D01*
X515276Y320504D02*
X549496Y354724D01*
X515276Y291767D02*
X578233Y354724D01*
X515276Y298951D02*
X571049Y354724D01*
X555946Y296516D02*
X614154Y354724D01*
X532391Y296516D02*
X575000D01*
X515276Y329998D02*
X548758Y296516D01*
X532391Y282484D02*
X572094D01*
X515536Y279164D02*
X543364D01*
X515276Y354724D02*
X644724D01*
X515276Y351551D02*
X570311Y296516D01*
X515276Y344367D02*
X563127Y296516D01*
X515276Y337183D02*
X555943Y296516D01*
X515276Y322814D02*
X541574Y296516D01*
X515276Y315630D02*
X534390Y296516D01*
X515276Y308446D02*
X527150Y296572D01*
X515276Y301262D02*
X523220Y293317D01*
X515276Y342057D02*
X527943Y354724D01*
X515276Y349241D02*
X520759Y354724D01*
X515276Y327688D02*
X542312Y354724D01*
X515276Y334872D02*
X535128Y354724D01*
X526782Y282572D02*
X530189Y279164D01*
X524226D02*
X527403Y282342D01*
X517041Y279164D02*
X523350Y285472D01*
X534053Y282484D02*
X537374Y279164D01*
X531410D02*
X534730Y282484D01*
X515276Y294077D02*
X522767Y286586D01*
X515276Y284583D02*
X522562Y291869D01*
X515276Y286893D02*
X523005Y279164D01*
X515276Y279709D02*
X515821Y279164D01*
X548422Y282484D02*
X552031Y278875D01*
X552812Y279014D02*
X556283Y282484D01*
X543364Y276750D02*
X549098Y282484D01*
X548024Y354724D02*
X644724Y258024D01*
X555208Y354724D02*
X644724Y265208D01*
X533656Y354724D02*
X609872Y278508D01*
X526471Y354724D02*
X602413Y278782D01*
X540840Y354724D02*
X644724Y250840D01*
X543364Y276750D02*
X549098Y282484D01*
X555606D02*
X559859Y278231D01*
X547811Y245276D02*
X553904Y251368D01*
X543364Y251621D02*
X549709Y245276D01*
X554995D02*
X568132Y258412D01*
X549937Y252232D02*
X556893Y245276D01*
X515276D02*
X644724D01*
X540627D02*
X548316Y252965D01*
X541238Y282484D02*
X546990Y276731D01*
X543364Y273103D02*
Y279164D01*
X538594D02*
X541914Y282484D01*
X543364Y255197D02*
X544321Y256154D01*
X543364Y251336D02*
Y257397D01*
X515536Y277659D02*
X517041Y279164D01*
X515536Y251336D02*
Y279164D01*
X515276Y248662D02*
X517950Y251336D01*
X515276Y245276D02*
Y354724D01*
X526259Y245276D02*
X532319Y251336D01*
X529281D02*
X535340Y245276D01*
X522096Y251336D02*
X528156Y245276D01*
X536465Y251336D02*
X542525Y245276D01*
X533443D02*
X539503Y251336D01*
X515536D02*
X543364D01*
X515276Y248662D02*
X517950Y251336D01*
X519074Y245276D02*
X525134Y251336D01*
X515276Y250972D02*
X520972Y245276D01*
X749964Y294458D02*
G03*
X745000Y296516I-4964J-4958D01*
G01*
X757266Y284250D02*
G03*
X755211Y289211I-7016J0D01*
G01*
X757266Y284250D02*
G03*
X755208Y289214I-7016J0D01*
G01*
X749961Y294461D02*
G03*
X745000Y296516I-4961J-4961D01*
G01*
X789564Y265250D02*
G03*
X762950Y270934I-13914J0D01*
G01*
Y259566D02*
G03*
X789564Y265250I12700J5684D01*
G01*
X737550Y259566D02*
G03*
X762950Y259566I12700J5684D01*
G01*
Y270934D02*
G03*
X757266Y277266I-12700J-5684D01*
G01*
X743234D02*
G03*
X737550Y270934I7016J-12016D01*
G01*
X702391Y296516D02*
G03*
X702391Y282484I-2695J-7016D01*
G01*
X713364Y257397D02*
G03*
X737550Y259566I11486J7853D01*
G01*
Y270934D02*
G03*
X713364Y273103I-12700J-5684D01*
G01*
X804234Y354724D02*
X814724Y344235D01*
X797050Y354724D02*
X814724Y337050D01*
X811419Y354724D02*
X814724Y351419D01*
X782682Y354724D02*
X814724Y322682D01*
X789866Y354724D02*
X814724Y329866D01*
X768313Y354724D02*
X814724Y308313D01*
X761129Y354724D02*
X814724Y301129D01*
X775498Y354724D02*
X814724Y315498D01*
X739576Y354724D02*
X814724Y279577D01*
X751294Y293128D02*
X812891Y354724D01*
X757266Y277547D02*
X814724Y335005D01*
X779802Y278530D02*
X814724Y313452D01*
X772997Y278909D02*
X814724Y320636D01*
X760994Y274091D02*
X814724Y327820D01*
X784469Y276012D02*
X814724Y306268D01*
X754887Y289536D02*
X814724Y349373D01*
X753945Y354724D02*
X814724Y293945D01*
X757251Y284715D02*
X814724Y342189D01*
X746761Y354724D02*
X814724Y286761D01*
X747158Y296176D02*
X805707Y354724D01*
X749964Y294458D02*
X755208Y289214D01*
X733130Y296516D02*
X791338Y354724D01*
X733130Y296516D02*
X791338Y354724D01*
X740314Y296516D02*
X798522Y354724D01*
X757266Y277266D02*
Y284250D01*
X743234Y277266D02*
Y281344D01*
X742094Y282484D02*
X743234Y281344D01*
X756419Y287593D02*
X767491Y276521D01*
X740954Y275603D02*
X743234Y277883D01*
X739975Y282484D02*
X743234Y279225D01*
X729386Y278404D02*
X733467Y282484D01*
X733946Y275779D02*
X740651Y282484D01*
X732790D02*
X740299Y274975D01*
X787754Y272113D02*
X814724Y299083D01*
X789492Y266667D02*
X814724Y291899D01*
X788908Y269471D02*
X813104Y245276D01*
X814724D02*
Y354724D01*
X789653Y245276D02*
X814724Y270347D01*
X732392Y354724D02*
X814724Y272392D01*
X782469Y245276D02*
X814724Y277531D01*
X786274Y256265D02*
X814724Y284715D01*
X796838Y245276D02*
X814724Y263162D01*
X789182Y262013D02*
X805919Y245276D01*
X786920Y257091D02*
X798735Y245276D01*
X811206D02*
X814724Y248794D01*
X804022Y245276D02*
X814724Y255978D01*
X775285Y245276D02*
X784635Y254626D01*
X783239Y253588D02*
X791551Y245276D01*
X778091Y251552D02*
X784367Y245276D01*
X757266Y279561D02*
X763988Y272839D01*
X759975Y255299D02*
X769998Y245276D01*
X753732D02*
X764888Y256431D01*
X737135Y271784D02*
X739897Y274546D01*
X736331Y257390D02*
X748446Y245276D01*
X732180D02*
X741409Y254506D01*
X760917Y245276D02*
X768787Y253146D01*
X755660Y252431D02*
X762814Y245276D01*
X749553Y251353D02*
X755630Y245276D01*
X769861Y252597D02*
X777183Y245276D01*
X768101D02*
X774233Y251408D01*
X732745Y253793D02*
X741262Y245276D01*
X727719Y251635D02*
X734077Y245276D01*
X746548D02*
X752854Y251582D01*
X739364Y245276D02*
X746067Y251980D01*
X704393Y296516D02*
X762601Y354724D01*
X711578Y296516D02*
X769786Y354724D01*
X697326Y296633D02*
X755417Y354724D01*
X718762Y296516D02*
X776970Y354724D01*
X689287D02*
X748343Y295668D01*
X685276Y313320D02*
X726680Y354724D01*
X685276Y306135D02*
X733865Y354724D01*
X685276Y320504D02*
X719496Y354724D01*
X685276Y291767D02*
X748233Y354724D01*
X685276Y298951D02*
X741049Y354724D01*
X725946Y296516D02*
X784154Y354724D01*
X702391Y296516D02*
X745000D01*
X685276Y329998D02*
X718758Y296516D01*
X702391Y282484D02*
X742094D01*
X685536Y279164D02*
X713364D01*
X685276Y354724D02*
X814724D01*
X685276Y351551D02*
X740311Y296516D01*
X685276Y344367D02*
X733127Y296516D01*
X685276Y337183D02*
X725943Y296516D01*
X685276Y322814D02*
X711574Y296516D01*
X685276Y315630D02*
X704390Y296516D01*
X685276Y308446D02*
X697150Y296572D01*
X685276Y301262D02*
X693221Y293317D01*
X685276Y342057D02*
X697943Y354724D01*
X685276Y349241D02*
X690759Y354724D01*
X685276Y327688D02*
X712312Y354724D01*
X685276Y334872D02*
X705128Y354724D01*
X696782Y282572D02*
X700189Y279164D01*
X694225D02*
X697403Y282342D01*
X687041Y279164D02*
X693350Y285472D01*
X704053Y282484D02*
X707374Y279164D01*
X701410D02*
X704730Y282484D01*
X685276Y294077D02*
X692767Y286586D01*
X685276Y284583D02*
X692562Y291869D01*
X685276Y286893D02*
X693005Y279164D01*
X685276Y279709D02*
X685821Y279164D01*
X718422Y282484D02*
X722031Y278875D01*
X722812Y279014D02*
X726282Y282484D01*
X713364Y276750D02*
X719098Y282484D01*
X718024Y354724D02*
X814724Y258024D01*
X725208Y354724D02*
X814724Y265208D01*
X703656Y354724D02*
X779872Y278508D01*
X696471Y354724D02*
X772413Y278782D01*
X710840Y354724D02*
X814724Y250840D01*
X713364Y276750D02*
X719098Y282484D01*
X725606D02*
X729859Y278231D01*
X717811Y245276D02*
X723904Y251368D01*
X713364Y251621D02*
X719709Y245276D01*
X724995D02*
X738132Y258412D01*
X719937Y252232D02*
X726893Y245276D01*
X685276D02*
X814724D01*
X710627D02*
X718316Y252965D01*
X711238Y282484D02*
X716990Y276731D01*
X713364Y273103D02*
Y279164D01*
X708594D02*
X711914Y282484D01*
X713364Y255197D02*
X714321Y256154D01*
X713364Y251336D02*
Y257397D01*
X685536Y277659D02*
X687041Y279164D01*
X685536Y251336D02*
Y279164D01*
X685276Y248662D02*
X687950Y251336D01*
X685276Y245276D02*
Y354724D01*
X696259Y245276D02*
X702319Y251336D01*
X699280D02*
X705340Y245276D01*
X692096Y251336D02*
X698156Y245276D01*
X706465Y251336D02*
X712525Y245276D01*
X703443D02*
X709503Y251336D01*
X685536D02*
X713364D01*
X685276Y248662D02*
X687950Y251336D01*
X689074Y245276D02*
X695134Y251336D01*
X685276Y250972D02*
X690972Y245276D01*
X69964Y414458D02*
G03*
X65000Y416516I-4964J-4958D01*
G01*
X77266Y404250D02*
G03*
X75211Y409211I-7016J0D01*
G01*
X77266Y404250D02*
G03*
X75208Y409214I-7016J0D01*
G01*
X69961Y414461D02*
G03*
X65000Y416516I-4961J-4961D01*
G01*
X109564Y385250D02*
G03*
X82950Y390934I-13914J0D01*
G01*
Y379566D02*
G03*
X109564Y385250I12700J5684D01*
G01*
X57550Y379566D02*
G03*
X82950Y379566I12700J5684D01*
G01*
Y390934D02*
G03*
X77266Y397266I-12700J-5684D01*
G01*
X63234D02*
G03*
X57550Y390934I7016J-12016D01*
G01*
X22391Y416516D02*
G03*
X22391Y402484I-2695J-7016D01*
G01*
X33364Y377397D02*
G03*
X57550Y379566I11486J7853D01*
G01*
Y390934D02*
G03*
X33364Y393103I-12700J-5684D01*
G01*
X124235Y474724D02*
X134724Y464235D01*
X117050Y474724D02*
X134724Y457050D01*
X131419Y474724D02*
X134724Y471419D01*
X102682Y474724D02*
X134724Y442682D01*
X109866Y474724D02*
X134724Y449866D01*
X88313Y474724D02*
X134724Y428313D01*
X81129Y474724D02*
X134724Y421129D01*
X95498Y474724D02*
X134724Y435498D01*
X59577Y474724D02*
X134724Y399576D01*
X71294Y413128D02*
X132891Y474724D01*
X77266Y397546D02*
X134724Y455004D01*
X99802Y398530D02*
X134724Y433452D01*
X92997Y398909D02*
X134724Y440636D01*
X80994Y394091D02*
X134724Y447820D01*
X104469Y396012D02*
X134724Y426268D01*
X74887Y409535D02*
X134724Y469373D01*
X73945Y474724D02*
X134724Y413945D01*
X77251Y404715D02*
X134724Y462189D01*
X66761Y474724D02*
X134724Y406761D01*
X67158Y416176D02*
X125707Y474724D01*
X69964Y414458D02*
X75208Y409214D01*
X53130Y416516D02*
X111338Y474724D01*
X53130Y416516D02*
X111338Y474724D01*
X60314Y416516D02*
X118523Y474724D01*
X77266Y397266D02*
Y404250D01*
X63234Y397266D02*
Y401344D01*
X62094Y402484D02*
X63234Y401344D01*
X76418Y407593D02*
X87491Y396521D01*
X60954Y395603D02*
X63234Y397883D01*
X59975Y402484D02*
X63234Y399225D01*
X49386Y398404D02*
X53467Y402484D01*
X53946Y395779D02*
X60651Y402484D01*
X52790D02*
X60299Y394975D01*
X107754Y392113D02*
X134724Y419083D01*
X109492Y386667D02*
X134724Y411899D01*
X108908Y389472D02*
X133104Y365276D01*
X134724D02*
Y474724D01*
X109653Y365276D02*
X134724Y390346D01*
X52392Y474724D02*
X134724Y392392D01*
X102469Y365276D02*
X134724Y397531D01*
X106274Y376265D02*
X134724Y404715D01*
X116838Y365276D02*
X134724Y383162D01*
X109182Y382013D02*
X125920Y365276D01*
X106921Y377091D02*
X118735Y365276D01*
X131206D02*
X134724Y368794D01*
X124022Y365276D02*
X134724Y375978D01*
X95285Y365276D02*
X104635Y374626D01*
X103239Y373588D02*
X111551Y365276D01*
X98091Y371552D02*
X104367Y365276D01*
X77266Y399561D02*
X83988Y392839D01*
X79975Y375299D02*
X89998Y365276D01*
X73732D02*
X84888Y376431D01*
X57135Y391783D02*
X59897Y394546D01*
X56332Y377390D02*
X68446Y365276D01*
X52180D02*
X61409Y374506D01*
X80917Y365276D02*
X88787Y373146D01*
X75660Y372431D02*
X82814Y365276D01*
X69552Y371353D02*
X75630Y365276D01*
X89861Y372597D02*
X97183Y365276D01*
X88101D02*
X94233Y371408D01*
X52745Y373793D02*
X61262Y365276D01*
X47719Y371635D02*
X54077Y365276D01*
X66548D02*
X72854Y371582D01*
X59364Y365276D02*
X66068Y371979D01*
X24393Y416516D02*
X82601Y474724D01*
X31578Y416516D02*
X89786Y474724D01*
X17326Y416633D02*
X75417Y474724D01*
X38762Y416516D02*
X96970Y474724D01*
X9287D02*
X68343Y415668D01*
X5276Y433320D02*
X46680Y474724D01*
X5276Y426135D02*
X53865Y474724D01*
X5276Y440504D02*
X39496Y474724D01*
X5276Y411767D02*
X68233Y474724D01*
X5276Y418951D02*
X61049Y474724D01*
X45946Y416516D02*
X104154Y474724D01*
X22391Y416516D02*
X65000D01*
X5276Y449998D02*
X38758Y416516D01*
X22391Y402484D02*
X62094D01*
X5536Y399164D02*
X33364D01*
X5276Y474724D02*
X134724D01*
X5276Y471551D02*
X60311Y416516D01*
X5276Y464367D02*
X53127Y416516D01*
X5276Y457183D02*
X45943Y416516D01*
X5276Y442814D02*
X31574Y416516D01*
X5276Y435630D02*
X24390Y416516D01*
X5276Y428446D02*
X17150Y416572D01*
X5276Y421261D02*
X13221Y413317D01*
X5276Y462057D02*
X17944Y474724D01*
X5276Y469241D02*
X10759Y474724D01*
X5276Y447688D02*
X32312Y474724D01*
X5276Y454872D02*
X25128Y474724D01*
X16782Y402572D02*
X20189Y399164D01*
X14226D02*
X17404Y402342D01*
X7041Y399164D02*
X13350Y405472D01*
X24053Y402484D02*
X27374Y399164D01*
X21410D02*
X24730Y402484D01*
X5276Y414077D02*
X12767Y406586D01*
X5276Y404583D02*
X12562Y411869D01*
X5276Y406893D02*
X13005Y399164D01*
X5276Y399709D02*
X5821Y399164D01*
X38422Y402484D02*
X42031Y398875D01*
X42812Y399014D02*
X46283Y402484D01*
X33364Y396750D02*
X39098Y402484D01*
X38024Y474724D02*
X134724Y378024D01*
X45208Y474724D02*
X134724Y385208D01*
X23656Y474724D02*
X99872Y398508D01*
X16472Y474724D02*
X92413Y398782D01*
X30840Y474724D02*
X134724Y370840D01*
X33364Y396750D02*
X39098Y402484D01*
X45606D02*
X49859Y398231D01*
X37811Y365276D02*
X43903Y371368D01*
X33364Y371621D02*
X39709Y365276D01*
X44995D02*
X58132Y378412D01*
X39937Y372232D02*
X46893Y365276D01*
X5276D02*
X134724D01*
X30627D02*
X38317Y372965D01*
X31238Y402484D02*
X36990Y396731D01*
X33364Y393103D02*
Y399164D01*
X28594D02*
X31914Y402484D01*
X33364Y375197D02*
X34321Y376154D01*
X33364Y371336D02*
Y377397D01*
X5536Y397659D02*
X7041Y399164D01*
X5536Y371336D02*
Y399164D01*
X5276Y368662D02*
X7950Y371336D01*
X5276Y365276D02*
Y474724D01*
X16259Y365276D02*
X22319Y371336D01*
X19281D02*
X25340Y365276D01*
X12096Y371336D02*
X18156Y365276D01*
X26465Y371336D02*
X32525Y365276D01*
X23443D02*
X29503Y371336D01*
X5536D02*
X33364D01*
X5276Y368662D02*
X7950Y371336D01*
X9075Y365276D02*
X15134Y371336D01*
X5276Y370972D02*
X10972Y365276D01*
X239964Y414458D02*
G03*
X235000Y416516I-4964J-4958D01*
G01*
X247266Y404250D02*
G03*
X245211Y409211I-7016J0D01*
G01*
X247266Y404250D02*
G03*
X245208Y409214I-7016J0D01*
G01*
X239961Y414461D02*
G03*
X235000Y416516I-4961J-4961D01*
G01*
X279564Y385250D02*
G03*
X252950Y390934I-13914J0D01*
G01*
Y379566D02*
G03*
X279564Y385250I12700J5684D01*
G01*
X227550Y379566D02*
G03*
X252950Y379566I12700J5684D01*
G01*
Y390934D02*
G03*
X247266Y397266I-12700J-5684D01*
G01*
X233234D02*
G03*
X227550Y390934I7016J-12016D01*
G01*
X192391Y416516D02*
G03*
X192391Y402484I-2695J-7016D01*
G01*
X203364Y377397D02*
G03*
X227550Y379566I11486J7853D01*
G01*
Y390934D02*
G03*
X203364Y393103I-12700J-5684D01*
G01*
X294235Y474724D02*
X304724Y464235D01*
X287050Y474724D02*
X304724Y457050D01*
X301419Y474724D02*
X304724Y471419D01*
X272682Y474724D02*
X304724Y442682D01*
X279866Y474724D02*
X304724Y449866D01*
X258313Y474724D02*
X304724Y428313D01*
X251129Y474724D02*
X304724Y421129D01*
X265498Y474724D02*
X304724Y435498D01*
X229577Y474724D02*
X304724Y399576D01*
X241294Y413128D02*
X302891Y474724D01*
X247266Y397546D02*
X304724Y455004D01*
X269802Y398530D02*
X304724Y433452D01*
X262997Y398909D02*
X304724Y440636D01*
X250994Y394091D02*
X304724Y447820D01*
X274469Y396012D02*
X304724Y426268D01*
X244887Y409535D02*
X304724Y469373D01*
X243945Y474724D02*
X304724Y413945D01*
X247251Y404715D02*
X304724Y462189D01*
X236761Y474724D02*
X304724Y406761D01*
X237158Y416176D02*
X295707Y474724D01*
X239964Y414458D02*
X245208Y409214D01*
X223130Y416516D02*
X281338Y474724D01*
X223130Y416516D02*
X281338Y474724D01*
X230314Y416516D02*
X288522Y474724D01*
X247266Y397266D02*
Y404250D01*
X233234Y397266D02*
Y401344D01*
X232094Y402484D02*
X233234Y401344D01*
X246418Y407593D02*
X257491Y396521D01*
X230954Y395603D02*
X233234Y397883D01*
X229975Y402484D02*
X233234Y399225D01*
X219386Y398404D02*
X223467Y402484D01*
X223946Y395779D02*
X230651Y402484D01*
X222790D02*
X230299Y394975D01*
X277754Y392113D02*
X304724Y419083D01*
X279492Y386667D02*
X304724Y411899D01*
X278908Y389472D02*
X303104Y365276D01*
X304724D02*
Y474724D01*
X279653Y365276D02*
X304724Y390346D01*
X222392Y474724D02*
X304724Y392392D01*
X272469Y365276D02*
X304724Y397531D01*
X276274Y376265D02*
X304724Y404715D01*
X286838Y365276D02*
X304724Y383162D01*
X279182Y382013D02*
X295919Y365276D01*
X276921Y377091D02*
X288735Y365276D01*
X301206D02*
X304724Y368794D01*
X294022Y365276D02*
X304724Y375978D01*
X265285Y365276D02*
X274635Y374626D01*
X273239Y373588D02*
X281551Y365276D01*
X268091Y371552D02*
X274367Y365276D01*
X247266Y399561D02*
X253988Y392839D01*
X249975Y375299D02*
X259998Y365276D01*
X243732D02*
X254888Y376431D01*
X227135Y391783D02*
X229897Y394546D01*
X226332Y377390D02*
X238446Y365276D01*
X222180D02*
X231409Y374506D01*
X250917Y365276D02*
X258787Y373146D01*
X245660Y372431D02*
X252814Y365276D01*
X239552Y371353D02*
X245630Y365276D01*
X259861Y372597D02*
X267183Y365276D01*
X258101D02*
X264233Y371408D01*
X222745Y373793D02*
X231262Y365276D01*
X217719Y371635D02*
X224077Y365276D01*
X236548D02*
X242854Y371582D01*
X229364Y365276D02*
X236067Y371979D01*
X194393Y416516D02*
X252601Y474724D01*
X201578Y416516D02*
X259786Y474724D01*
X187326Y416633D02*
X245417Y474724D01*
X208762Y416516D02*
X266970Y474724D01*
X179287D02*
X238343Y415668D01*
X175276Y433320D02*
X216680Y474724D01*
X175276Y426135D02*
X223865Y474724D01*
X175276Y440504D02*
X209496Y474724D01*
X175276Y411767D02*
X238233Y474724D01*
X175276Y418951D02*
X231049Y474724D01*
X215946Y416516D02*
X274154Y474724D01*
X192391Y416516D02*
X235000D01*
X175276Y449998D02*
X208758Y416516D01*
X192391Y402484D02*
X232094D01*
X175536Y399164D02*
X203364D01*
X175276Y474724D02*
X304724D01*
X175276Y471551D02*
X230311Y416516D01*
X175276Y464367D02*
X223127Y416516D01*
X175276Y457183D02*
X215943Y416516D01*
X175276Y442814D02*
X201574Y416516D01*
X175276Y435630D02*
X194390Y416516D01*
X175276Y428446D02*
X187150Y416572D01*
X175276Y421261D02*
X183221Y413317D01*
X175276Y462057D02*
X187943Y474724D01*
X175276Y469241D02*
X180759Y474724D01*
X175276Y447688D02*
X202312Y474724D01*
X175276Y454872D02*
X195128Y474724D01*
X186782Y402572D02*
X190189Y399164D01*
X184226D02*
X187404Y402342D01*
X177041Y399164D02*
X183350Y405472D01*
X194053Y402484D02*
X197374Y399164D01*
X191410D02*
X194730Y402484D01*
X175276Y414077D02*
X182767Y406586D01*
X175276Y404583D02*
X182562Y411869D01*
X175276Y406893D02*
X183005Y399164D01*
X175276Y399709D02*
X175821Y399164D01*
X208422Y402484D02*
X212031Y398875D01*
X212812Y399014D02*
X216283Y402484D01*
X203364Y396750D02*
X209098Y402484D01*
X208024Y474724D02*
X304724Y378024D01*
X215208Y474724D02*
X304724Y385208D01*
X193656Y474724D02*
X269872Y398508D01*
X186472Y474724D02*
X262413Y398782D01*
X200840Y474724D02*
X304724Y370840D01*
X203364Y396750D02*
X209098Y402484D01*
X215606D02*
X219859Y398231D01*
X207811Y365276D02*
X213904Y371368D01*
X203364Y371621D02*
X209709Y365276D01*
X214995D02*
X228132Y378412D01*
X209937Y372232D02*
X216893Y365276D01*
X175276D02*
X304724D01*
X200627D02*
X208316Y372965D01*
X201238Y402484D02*
X206990Y396731D01*
X203364Y393103D02*
Y399164D01*
X198594D02*
X201914Y402484D01*
X203364Y375197D02*
X204321Y376154D01*
X203364Y371336D02*
Y377397D01*
X175536Y397659D02*
X177041Y399164D01*
X175536Y371336D02*
Y399164D01*
X175276Y368662D02*
X177950Y371336D01*
X175276Y365276D02*
Y474724D01*
X186259Y365276D02*
X192319Y371336D01*
X189280D02*
X195340Y365276D01*
X182096Y371336D02*
X188156Y365276D01*
X196465Y371336D02*
X202525Y365276D01*
X193443D02*
X199503Y371336D01*
X175536D02*
X203364D01*
X175276Y368662D02*
X177950Y371336D01*
X179074Y365276D02*
X185134Y371336D01*
X175276Y370972D02*
X180972Y365276D01*
X409964Y414458D02*
G03*
X405000Y416516I-4964J-4958D01*
G01*
X417266Y404250D02*
G03*
X415211Y409211I-7016J0D01*
G01*
X417266Y404250D02*
G03*
X415208Y409214I-7016J0D01*
G01*
X409961Y414461D02*
G03*
X405000Y416516I-4961J-4961D01*
G01*
X449564Y385250D02*
G03*
X422950Y390934I-13914J0D01*
G01*
Y379566D02*
G03*
X449564Y385250I12700J5684D01*
G01*
X397550Y379566D02*
G03*
X422950Y379566I12700J5684D01*
G01*
Y390934D02*
G03*
X417266Y397266I-12700J-5684D01*
G01*
X403234D02*
G03*
X397550Y390934I7016J-12016D01*
G01*
X362391Y416516D02*
G03*
X362391Y402484I-2695J-7016D01*
G01*
X373364Y377397D02*
G03*
X397550Y379566I11486J7853D01*
G01*
Y390934D02*
G03*
X373364Y393103I-12700J-5684D01*
G01*
X464235Y474724D02*
X474724Y464235D01*
X457050Y474724D02*
X474724Y457050D01*
X471419Y474724D02*
X474724Y471419D01*
X442682Y474724D02*
X474724Y442682D01*
X449866Y474724D02*
X474724Y449866D01*
X428313Y474724D02*
X474724Y428313D01*
X421129Y474724D02*
X474724Y421129D01*
X435498Y474724D02*
X474724Y435498D01*
X399577Y474724D02*
X474724Y399576D01*
X411295Y413128D02*
X472891Y474724D01*
X417266Y397546D02*
X474724Y455004D01*
X439802Y398530D02*
X474724Y433452D01*
X432996Y398909D02*
X474724Y440636D01*
X420994Y394091D02*
X474724Y447820D01*
X444469Y396012D02*
X474724Y426268D01*
X414887Y409535D02*
X474724Y469373D01*
X413945Y474724D02*
X474724Y413945D01*
X417251Y404715D02*
X474724Y462189D01*
X406761Y474724D02*
X474724Y406761D01*
X407158Y416176D02*
X465707Y474724D01*
X409964Y414458D02*
X415208Y409214D01*
X393130Y416516D02*
X451338Y474724D01*
X393130Y416516D02*
X451338Y474724D01*
X400314Y416516D02*
X458522Y474724D01*
X417266Y397266D02*
Y404250D01*
X403234Y397266D02*
Y401344D01*
X402094Y402484D02*
X403234Y401344D01*
X416418Y407593D02*
X427491Y396521D01*
X400954Y395603D02*
X403234Y397883D01*
X399975Y402484D02*
X403234Y399225D01*
X389386Y398404D02*
X393467Y402484D01*
X393946Y395779D02*
X400651Y402484D01*
X392790D02*
X400299Y394975D01*
X447754Y392113D02*
X474724Y419083D01*
X449492Y386667D02*
X474724Y411899D01*
X448908Y389472D02*
X473104Y365276D01*
X474724D02*
Y474724D01*
X449653Y365276D02*
X474724Y390346D01*
X392392Y474724D02*
X474724Y392392D01*
X442469Y365276D02*
X474724Y397531D01*
X446274Y376265D02*
X474724Y404715D01*
X456838Y365276D02*
X474724Y383162D01*
X449182Y382013D02*
X465919Y365276D01*
X446921Y377091D02*
X458735Y365276D01*
X471206D02*
X474724Y368794D01*
X464022Y365276D02*
X474724Y375978D01*
X435285Y365276D02*
X444635Y374626D01*
X443239Y373588D02*
X451551Y365276D01*
X438091Y371552D02*
X444367Y365276D01*
X417266Y399561D02*
X423988Y392839D01*
X419975Y375299D02*
X429998Y365276D01*
X413732D02*
X424888Y376431D01*
X397135Y391783D02*
X399897Y394546D01*
X396331Y377390D02*
X408446Y365276D01*
X392180D02*
X401409Y374506D01*
X420917Y365276D02*
X428787Y373146D01*
X415660Y372431D02*
X422814Y365276D01*
X409552Y371353D02*
X415630Y365276D01*
X429861Y372597D02*
X437183Y365276D01*
X428101D02*
X434233Y371408D01*
X392745Y373793D02*
X401262Y365276D01*
X387719Y371635D02*
X394077Y365276D01*
X406548D02*
X412854Y371582D01*
X399364Y365276D02*
X406067Y371979D01*
X364393Y416516D02*
X422601Y474724D01*
X371578Y416516D02*
X429786Y474724D01*
X357326Y416633D02*
X415417Y474724D01*
X378762Y416516D02*
X436970Y474724D01*
X349287D02*
X408343Y415668D01*
X345276Y433320D02*
X386680Y474724D01*
X345276Y426135D02*
X393865Y474724D01*
X345276Y440504D02*
X379496Y474724D01*
X345276Y411767D02*
X408233Y474724D01*
X345276Y418951D02*
X401049Y474724D01*
X385946Y416516D02*
X444154Y474724D01*
X362391Y416516D02*
X405000D01*
X345276Y449998D02*
X378758Y416516D01*
X362391Y402484D02*
X402094D01*
X345536Y399164D02*
X373364D01*
X345276Y474724D02*
X474724D01*
X345276Y471551D02*
X400311Y416516D01*
X345276Y464367D02*
X393127Y416516D01*
X345276Y457183D02*
X385943Y416516D01*
X345276Y442814D02*
X371574Y416516D01*
X345276Y435630D02*
X364390Y416516D01*
X345276Y428446D02*
X357150Y416572D01*
X345276Y421261D02*
X353221Y413317D01*
X345276Y462057D02*
X357943Y474724D01*
X345276Y469241D02*
X350759Y474724D01*
X345276Y447688D02*
X372312Y474724D01*
X345276Y454872D02*
X365128Y474724D01*
X356782Y402572D02*
X360189Y399164D01*
X354226D02*
X357403Y402342D01*
X347041Y399164D02*
X353350Y405472D01*
X364053Y402484D02*
X367374Y399164D01*
X361410D02*
X364730Y402484D01*
X345276Y414077D02*
X352767Y406586D01*
X345276Y404583D02*
X352562Y411869D01*
X345276Y406893D02*
X353005Y399164D01*
X345276Y399709D02*
X345821Y399164D01*
X378422Y402484D02*
X382031Y398875D01*
X382812Y399014D02*
X386283Y402484D01*
X373364Y396750D02*
X379098Y402484D01*
X378024Y474724D02*
X474724Y378024D01*
X385208Y474724D02*
X474724Y385208D01*
X363656Y474724D02*
X439872Y398508D01*
X356471Y474724D02*
X432413Y398782D01*
X370840Y474724D02*
X474724Y370840D01*
X373364Y396750D02*
X379098Y402484D01*
X385606D02*
X389859Y398231D01*
X377811Y365276D02*
X383904Y371368D01*
X373364Y371621D02*
X379709Y365276D01*
X384995D02*
X398132Y378412D01*
X379937Y372232D02*
X386893Y365276D01*
X345276D02*
X474724D01*
X370627D02*
X378316Y372965D01*
X371238Y402484D02*
X376990Y396731D01*
X373364Y393103D02*
Y399164D01*
X368594D02*
X371914Y402484D01*
X373364Y375197D02*
X374321Y376154D01*
X373364Y371336D02*
Y377397D01*
X345536Y397659D02*
X347041Y399164D01*
X345536Y371336D02*
Y399164D01*
X345276Y368662D02*
X347950Y371336D01*
X345276Y365276D02*
Y474724D01*
X356259Y365276D02*
X362319Y371336D01*
X359281D02*
X365340Y365276D01*
X352096Y371336D02*
X358156Y365276D01*
X366465Y371336D02*
X372525Y365276D01*
X363443D02*
X369503Y371336D01*
X345536D02*
X373364D01*
X345276Y368662D02*
X347950Y371336D01*
X349074Y365276D02*
X355134Y371336D01*
X345276Y370972D02*
X350972Y365276D01*
X579964Y414458D02*
G03*
X575000Y416516I-4964J-4958D01*
G01*
X587266Y404250D02*
G03*
X585211Y409211I-7016J0D01*
G01*
X587266Y404250D02*
G03*
X585208Y409214I-7016J0D01*
G01*
X579961Y414461D02*
G03*
X575000Y416516I-4961J-4961D01*
G01*
X619564Y385250D02*
G03*
X592950Y390934I-13914J0D01*
G01*
Y379566D02*
G03*
X619564Y385250I12700J5684D01*
G01*
X567550Y379566D02*
G03*
X592950Y379566I12700J5684D01*
G01*
Y390934D02*
G03*
X587266Y397266I-12700J-5684D01*
G01*
X573234D02*
G03*
X567550Y390934I7016J-12016D01*
G01*
X532391Y416516D02*
G03*
X532391Y402484I-2695J-7016D01*
G01*
X543364Y377397D02*
G03*
X567550Y379566I11486J7853D01*
G01*
Y390934D02*
G03*
X543364Y393103I-12700J-5684D01*
G01*
X634235Y474724D02*
X644724Y464235D01*
X627050Y474724D02*
X644724Y457050D01*
X641419Y474724D02*
X644724Y471419D01*
X612682Y474724D02*
X644724Y442682D01*
X619866Y474724D02*
X644724Y449866D01*
X598313Y474724D02*
X644724Y428313D01*
X591129Y474724D02*
X644724Y421129D01*
X605498Y474724D02*
X644724Y435498D01*
X569577Y474724D02*
X644724Y399576D01*
X581295Y413128D02*
X642891Y474724D01*
X587266Y397546D02*
X644724Y455004D01*
X609802Y398530D02*
X644724Y433452D01*
X602996Y398909D02*
X644724Y440636D01*
X590994Y394091D02*
X644724Y447820D01*
X614469Y396012D02*
X644724Y426268D01*
X584887Y409535D02*
X644724Y469373D01*
X583945Y474724D02*
X644724Y413945D01*
X587251Y404715D02*
X644724Y462189D01*
X576761Y474724D02*
X644724Y406761D01*
X577158Y416176D02*
X635707Y474724D01*
X579964Y414458D02*
X585208Y409214D01*
X563130Y416516D02*
X621338Y474724D01*
X563130Y416516D02*
X621338Y474724D01*
X570314Y416516D02*
X628522Y474724D01*
X587266Y397266D02*
Y404250D01*
X573234Y397266D02*
Y401344D01*
X572094Y402484D02*
X573234Y401344D01*
X586418Y407593D02*
X597491Y396521D01*
X570954Y395603D02*
X573234Y397883D01*
X569975Y402484D02*
X573234Y399225D01*
X559386Y398404D02*
X563467Y402484D01*
X563946Y395779D02*
X570651Y402484D01*
X562790D02*
X570299Y394975D01*
X617754Y392113D02*
X644724Y419083D01*
X619492Y386667D02*
X644724Y411899D01*
X618908Y389472D02*
X643104Y365276D01*
X644724D02*
Y474724D01*
X619653Y365276D02*
X644724Y390346D01*
X562392Y474724D02*
X644724Y392392D01*
X612469Y365276D02*
X644724Y397531D01*
X616274Y376265D02*
X644724Y404715D01*
X626838Y365276D02*
X644724Y383162D01*
X619182Y382013D02*
X635919Y365276D01*
X616921Y377091D02*
X628735Y365276D01*
X641206D02*
X644724Y368794D01*
X634022Y365276D02*
X644724Y375978D01*
X605285Y365276D02*
X614635Y374626D01*
X613239Y373588D02*
X621551Y365276D01*
X608091Y371552D02*
X614367Y365276D01*
X587266Y399561D02*
X593988Y392839D01*
X589975Y375299D02*
X599998Y365276D01*
X583732D02*
X594888Y376431D01*
X567135Y391783D02*
X569897Y394546D01*
X566331Y377390D02*
X578446Y365276D01*
X562180D02*
X571409Y374506D01*
X590916Y365276D02*
X598787Y373146D01*
X585660Y372431D02*
X592814Y365276D01*
X579552Y371353D02*
X585630Y365276D01*
X599861Y372597D02*
X607183Y365276D01*
X598101D02*
X604233Y371408D01*
X562745Y373793D02*
X571261Y365276D01*
X557719Y371635D02*
X564077Y365276D01*
X576548D02*
X582854Y371582D01*
X569364Y365276D02*
X576067Y371979D01*
X534393Y416516D02*
X592601Y474724D01*
X541578Y416516D02*
X599786Y474724D01*
X527326Y416633D02*
X585417Y474724D01*
X548762Y416516D02*
X606970Y474724D01*
X519287D02*
X578343Y415668D01*
X515276Y433320D02*
X556680Y474724D01*
X515276Y426135D02*
X563865Y474724D01*
X515276Y440504D02*
X549496Y474724D01*
X515276Y411767D02*
X578233Y474724D01*
X515276Y418951D02*
X571049Y474724D01*
X555946Y416516D02*
X614154Y474724D01*
X532391Y416516D02*
X575000D01*
X515276Y449998D02*
X548758Y416516D01*
X532391Y402484D02*
X572094D01*
X515536Y399164D02*
X543364D01*
X515276Y474724D02*
X644724D01*
X515276Y471551D02*
X570311Y416516D01*
X515276Y464367D02*
X563127Y416516D01*
X515276Y457183D02*
X555943Y416516D01*
X515276Y442814D02*
X541574Y416516D01*
X515276Y435630D02*
X534390Y416516D01*
X515276Y428446D02*
X527150Y416572D01*
X515276Y421261D02*
X523220Y413317D01*
X515276Y462057D02*
X527943Y474724D01*
X515276Y469241D02*
X520759Y474724D01*
X515276Y447688D02*
X542312Y474724D01*
X515276Y454872D02*
X535128Y474724D01*
X526782Y402572D02*
X530189Y399164D01*
X524226D02*
X527403Y402342D01*
X517041Y399164D02*
X523350Y405472D01*
X534053Y402484D02*
X537374Y399164D01*
X531410D02*
X534730Y402484D01*
X515276Y414077D02*
X522767Y406586D01*
X515276Y404583D02*
X522562Y411869D01*
X515276Y406893D02*
X523005Y399164D01*
X515276Y399709D02*
X515821Y399164D01*
X548422Y402484D02*
X552031Y398875D01*
X552812Y399014D02*
X556283Y402484D01*
X543364Y396750D02*
X549098Y402484D01*
X548024Y474724D02*
X644724Y378024D01*
X555208Y474724D02*
X644724Y385208D01*
X533656Y474724D02*
X609872Y398508D01*
X526471Y474724D02*
X602413Y398782D01*
X540840Y474724D02*
X644724Y370840D01*
X543364Y396750D02*
X549098Y402484D01*
X555606D02*
X559859Y398231D01*
X547811Y365276D02*
X553904Y371368D01*
X543364Y371621D02*
X549709Y365276D01*
X554995D02*
X568132Y378412D01*
X549937Y372232D02*
X556893Y365276D01*
X515276D02*
X644724D01*
X540627D02*
X548316Y372965D01*
X541238Y402484D02*
X546990Y396731D01*
X543364Y393103D02*
Y399164D01*
X538594D02*
X541914Y402484D01*
X543364Y375197D02*
X544321Y376154D01*
X543364Y371336D02*
Y377397D01*
X515536Y397659D02*
X517041Y399164D01*
X515536Y371336D02*
Y399164D01*
X515276Y368662D02*
X517950Y371336D01*
X515276Y365276D02*
Y474724D01*
X526259Y365276D02*
X532319Y371336D01*
X529281D02*
X535340Y365276D01*
X522096Y371336D02*
X528156Y365276D01*
X536465Y371336D02*
X542525Y365276D01*
X533443D02*
X539503Y371336D01*
X515536D02*
X543364D01*
X515276Y368662D02*
X517950Y371336D01*
X519074Y365276D02*
X525134Y371336D01*
X515276Y370972D02*
X520972Y365276D01*
X749964Y414458D02*
G03*
X745000Y416516I-4964J-4958D01*
G01*
X757266Y404250D02*
G03*
X755211Y409211I-7016J0D01*
G01*
X757266Y404250D02*
G03*
X755208Y409214I-7016J0D01*
G01*
X749961Y414461D02*
G03*
X745000Y416516I-4961J-4961D01*
G01*
X789564Y385250D02*
G03*
X762950Y390934I-13914J0D01*
G01*
Y379566D02*
G03*
X789564Y385250I12700J5684D01*
G01*
X737550Y379566D02*
G03*
X762950Y379566I12700J5684D01*
G01*
Y390934D02*
G03*
X757266Y397266I-12700J-5684D01*
G01*
X743234D02*
G03*
X737550Y390934I7016J-12016D01*
G01*
X702391Y416516D02*
G03*
X702391Y402484I-2695J-7016D01*
G01*
X713364Y377397D02*
G03*
X737550Y379566I11486J7853D01*
G01*
Y390934D02*
G03*
X713364Y393103I-12700J-5684D01*
G01*
X804234Y474724D02*
X814724Y464235D01*
X797050Y474724D02*
X814724Y457050D01*
X811419Y474724D02*
X814724Y471419D01*
X782682Y474724D02*
X814724Y442682D01*
X789866Y474724D02*
X814724Y449866D01*
X768313Y474724D02*
X814724Y428313D01*
X761129Y474724D02*
X814724Y421129D01*
X775498Y474724D02*
X814724Y435498D01*
X739576Y474724D02*
X814724Y399576D01*
X751294Y413128D02*
X812891Y474724D01*
X757266Y397546D02*
X814724Y455004D01*
X779802Y398530D02*
X814724Y433452D01*
X772997Y398909D02*
X814724Y440636D01*
X760994Y394091D02*
X814724Y447820D01*
X784469Y396012D02*
X814724Y426268D01*
X754887Y409535D02*
X814724Y469373D01*
X753945Y474724D02*
X814724Y413945D01*
X757251Y404715D02*
X814724Y462189D01*
X746761Y474724D02*
X814724Y406761D01*
X747158Y416176D02*
X805707Y474724D01*
X749964Y414458D02*
X755208Y409214D01*
X733130Y416516D02*
X791338Y474724D01*
X733130Y416516D02*
X791338Y474724D01*
X740314Y416516D02*
X798522Y474724D01*
X757266Y397266D02*
Y404250D01*
X743234Y397266D02*
Y401344D01*
X742094Y402484D02*
X743234Y401344D01*
X756419Y407593D02*
X767491Y396521D01*
X740954Y395603D02*
X743234Y397883D01*
X739975Y402484D02*
X743234Y399225D01*
X729386Y398404D02*
X733467Y402484D01*
X733946Y395779D02*
X740651Y402484D01*
X732790D02*
X740299Y394975D01*
X787754Y392113D02*
X814724Y419083D01*
X789492Y386667D02*
X814724Y411899D01*
X788908Y389472D02*
X813104Y365276D01*
X814724D02*
Y474724D01*
X789653Y365276D02*
X814724Y390346D01*
X732392Y474724D02*
X814724Y392392D01*
X782469Y365276D02*
X814724Y397531D01*
X786274Y376265D02*
X814724Y404715D01*
X796838Y365276D02*
X814724Y383162D01*
X789182Y382013D02*
X805919Y365276D01*
X786920Y377091D02*
X798735Y365276D01*
X811206D02*
X814724Y368794D01*
X804022Y365276D02*
X814724Y375978D01*
X775285Y365276D02*
X784635Y374626D01*
X783239Y373588D02*
X791551Y365276D01*
X778091Y371552D02*
X784367Y365276D01*
X757266Y399561D02*
X763988Y392839D01*
X759975Y375299D02*
X769998Y365276D01*
X753732D02*
X764888Y376431D01*
X737135Y391783D02*
X739897Y394546D01*
X736331Y377390D02*
X748446Y365276D01*
X732180D02*
X741409Y374506D01*
X760917Y365276D02*
X768787Y373146D01*
X755660Y372431D02*
X762814Y365276D01*
X749553Y371353D02*
X755630Y365276D01*
X769861Y372597D02*
X777183Y365276D01*
X768101D02*
X774233Y371408D01*
X732745Y373793D02*
X741262Y365276D01*
X727719Y371635D02*
X734077Y365276D01*
X746548D02*
X752854Y371582D01*
X739364Y365276D02*
X746067Y371979D01*
X704393Y416516D02*
X762601Y474724D01*
X711578Y416516D02*
X769786Y474724D01*
X697326Y416633D02*
X755417Y474724D01*
X718762Y416516D02*
X776970Y474724D01*
X689287D02*
X748343Y415668D01*
X685276Y433320D02*
X726680Y474724D01*
X685276Y426135D02*
X733865Y474724D01*
X685276Y440504D02*
X719496Y474724D01*
X685276Y411767D02*
X748233Y474724D01*
X685276Y418951D02*
X741049Y474724D01*
X725946Y416516D02*
X784154Y474724D01*
X702391Y416516D02*
X745000D01*
X685276Y449998D02*
X718758Y416516D01*
X702391Y402484D02*
X742094D01*
X685536Y399164D02*
X713364D01*
X685276Y474724D02*
X814724D01*
X685276Y471551D02*
X740311Y416516D01*
X685276Y464367D02*
X733127Y416516D01*
X685276Y457183D02*
X725943Y416516D01*
X685276Y442814D02*
X711574Y416516D01*
X685276Y435630D02*
X704390Y416516D01*
X685276Y428446D02*
X697150Y416572D01*
X685276Y421261D02*
X693221Y413317D01*
X685276Y462057D02*
X697943Y474724D01*
X685276Y469241D02*
X690759Y474724D01*
X685276Y447688D02*
X712312Y474724D01*
X685276Y454872D02*
X705128Y474724D01*
X696782Y402572D02*
X700189Y399164D01*
X694225D02*
X697403Y402342D01*
X687041Y399164D02*
X693350Y405472D01*
X704053Y402484D02*
X707374Y399164D01*
X701410D02*
X704730Y402484D01*
X685276Y414077D02*
X692767Y406586D01*
X685276Y404583D02*
X692562Y411869D01*
X685276Y406893D02*
X693005Y399164D01*
X685276Y399709D02*
X685821Y399164D01*
X718422Y402484D02*
X722031Y398875D01*
X722812Y399014D02*
X726282Y402484D01*
X713364Y396750D02*
X719098Y402484D01*
X718024Y474724D02*
X814724Y378024D01*
X725208Y474724D02*
X814724Y385208D01*
X703656Y474724D02*
X779872Y398508D01*
X696471Y474724D02*
X772413Y398782D01*
X710840Y474724D02*
X814724Y370840D01*
X713364Y396750D02*
X719098Y402484D01*
X725606D02*
X729859Y398231D01*
X717811Y365276D02*
X723904Y371368D01*
X713364Y371621D02*
X719709Y365276D01*
X724995D02*
X738132Y378412D01*
X719937Y372232D02*
X726893Y365276D01*
X685276D02*
X814724D01*
X710627D02*
X718316Y372965D01*
X711238Y402484D02*
X716990Y396731D01*
X713364Y393103D02*
Y399164D01*
X708594D02*
X711914Y402484D01*
X713364Y375197D02*
X714321Y376154D01*
X713364Y371336D02*
Y377397D01*
X685536Y397659D02*
X687041Y399164D01*
X685536Y371336D02*
Y399164D01*
X685276Y368662D02*
X687950Y371336D01*
X685276Y365276D02*
Y474724D01*
X696259Y365276D02*
X702319Y371336D01*
X699280D02*
X705340Y365276D01*
X692096Y371336D02*
X698156Y365276D01*
X706465Y371336D02*
X712525Y365276D01*
X703443D02*
X709503Y371336D01*
X685536D02*
X713364D01*
X685276Y368662D02*
X687950Y371336D01*
X689074Y365276D02*
X695134Y371336D01*
X685276Y370972D02*
X690972Y365276D01*
X69964Y534458D02*
G03*
X65000Y536516I-4964J-4958D01*
G01*
X77266Y524250D02*
G03*
X75211Y529211I-7016J0D01*
G01*
X77266Y524250D02*
G03*
X75208Y529214I-7016J0D01*
G01*
X69961Y534461D02*
G03*
X65000Y536516I-4961J-4961D01*
G01*
X109564Y505250D02*
G03*
X82950Y510934I-13914J0D01*
G01*
Y499566D02*
G03*
X109564Y505250I12700J5684D01*
G01*
X57550Y499566D02*
G03*
X82950Y499566I12700J5684D01*
G01*
Y510934D02*
G03*
X77266Y517266I-12700J-5684D01*
G01*
X63234D02*
G03*
X57550Y510934I7016J-12016D01*
G01*
X22391Y536516D02*
G03*
X22391Y522484I-2695J-7016D01*
G01*
X33364Y497397D02*
G03*
X57550Y499566I11486J7853D01*
G01*
Y510934D02*
G03*
X33364Y513103I-12700J-5684D01*
G01*
X124235Y594724D02*
X134724Y584234D01*
X117050Y594724D02*
X134724Y577050D01*
X131419Y594724D02*
X134724Y591419D01*
X102682Y594724D02*
X134724Y562682D01*
X109866Y594724D02*
X134724Y569866D01*
X88313Y594724D02*
X134724Y548313D01*
X81129Y594724D02*
X134724Y541129D01*
X95498Y594724D02*
X134724Y555498D01*
X59577Y594724D02*
X134724Y519576D01*
X71294Y533128D02*
X132891Y594724D01*
X77266Y517546D02*
X134724Y575004D01*
X99802Y518530D02*
X134724Y553452D01*
X92997Y518909D02*
X134724Y560636D01*
X80994Y514091D02*
X134724Y567820D01*
X104469Y516012D02*
X134724Y546268D01*
X74887Y529535D02*
X134724Y589373D01*
X73945Y594724D02*
X134724Y533945D01*
X77251Y524715D02*
X134724Y582189D01*
X66761Y594724D02*
X134724Y526761D01*
X67158Y536176D02*
X125707Y594724D01*
X69964Y534458D02*
X75208Y529214D01*
X53130Y536516D02*
X111338Y594724D01*
X53130Y536516D02*
X111338Y594724D01*
X60314Y536516D02*
X118523Y594724D01*
X77266Y517266D02*
Y524250D01*
X63234Y517266D02*
Y521344D01*
X62094Y522484D02*
X63234Y521344D01*
X76418Y527593D02*
X87491Y516521D01*
X60954Y515603D02*
X63234Y517883D01*
X59975Y522484D02*
X63234Y519225D01*
X49386Y518404D02*
X53467Y522484D01*
X53946Y515779D02*
X60651Y522484D01*
X52790D02*
X60299Y514975D01*
X107754Y512113D02*
X134724Y539083D01*
X109492Y506667D02*
X134724Y531899D01*
X108908Y509472D02*
X133104Y485276D01*
X134724D02*
Y594724D01*
X109653Y485276D02*
X134724Y510346D01*
X52392Y594724D02*
X134724Y512392D01*
X102469Y485276D02*
X134724Y517531D01*
X106274Y496265D02*
X134724Y524715D01*
X116838Y485276D02*
X134724Y503162D01*
X109182Y502013D02*
X125920Y485276D01*
X106921Y497091D02*
X118735Y485276D01*
X131206D02*
X134724Y488794D01*
X124022Y485276D02*
X134724Y495978D01*
X95285Y485276D02*
X104635Y494626D01*
X103239Y493588D02*
X111551Y485276D01*
X98091Y491552D02*
X104367Y485276D01*
X77266Y519561D02*
X83988Y512839D01*
X79975Y495299D02*
X89998Y485276D01*
X73732D02*
X84888Y496431D01*
X57135Y511783D02*
X59897Y514546D01*
X56332Y497390D02*
X68446Y485276D01*
X52180D02*
X61409Y494506D01*
X80917Y485276D02*
X88787Y493146D01*
X75660Y492431D02*
X82814Y485276D01*
X69552Y491353D02*
X75630Y485276D01*
X89861Y492597D02*
X97183Y485276D01*
X88101D02*
X94233Y491408D01*
X52745Y493793D02*
X61262Y485276D01*
X47719Y491635D02*
X54077Y485276D01*
X66548D02*
X72854Y491582D01*
X59364Y485276D02*
X66068Y491979D01*
X24393Y536516D02*
X82601Y594724D01*
X31578Y536516D02*
X89786Y594724D01*
X17326Y536633D02*
X75417Y594724D01*
X38762Y536516D02*
X96970Y594724D01*
X9287D02*
X68343Y535668D01*
X5276Y553320D02*
X46680Y594724D01*
X5276Y546135D02*
X53865Y594724D01*
X5276Y560504D02*
X39496Y594724D01*
X5276Y531767D02*
X68233Y594724D01*
X5276Y538951D02*
X61049Y594724D01*
X45946Y536516D02*
X104154Y594724D01*
X22391Y536516D02*
X65000D01*
X5276Y569998D02*
X38758Y536516D01*
X22391Y522484D02*
X62094D01*
X5536Y519164D02*
X33364D01*
X5276Y594724D02*
X134724D01*
X5276Y591551D02*
X60311Y536516D01*
X5276Y584367D02*
X53127Y536516D01*
X5276Y577183D02*
X45943Y536516D01*
X5276Y562814D02*
X31574Y536516D01*
X5276Y555630D02*
X24390Y536516D01*
X5276Y548446D02*
X17150Y536572D01*
X5276Y541261D02*
X13221Y533317D01*
X5276Y582056D02*
X17944Y594724D01*
X5276Y589241D02*
X10759Y594724D01*
X5276Y567688D02*
X32312Y594724D01*
X5276Y574872D02*
X25128Y594724D01*
X16782Y522572D02*
X20189Y519164D01*
X14226D02*
X17404Y522342D01*
X7041Y519164D02*
X13350Y525472D01*
X24053Y522484D02*
X27374Y519164D01*
X21410D02*
X24730Y522484D01*
X5276Y534077D02*
X12767Y526586D01*
X5276Y524583D02*
X12562Y531869D01*
X5276Y526893D02*
X13005Y519164D01*
X5276Y519709D02*
X5821Y519164D01*
X38422Y522484D02*
X42031Y518875D01*
X42812Y519014D02*
X46283Y522484D01*
X33364Y516750D02*
X39098Y522484D01*
X38024Y594724D02*
X134724Y498024D01*
X45208Y594724D02*
X134724Y505208D01*
X23656Y594724D02*
X99872Y518508D01*
X16472Y594724D02*
X92413Y518782D01*
X30840Y594724D02*
X134724Y490840D01*
X33364Y516750D02*
X39098Y522484D01*
X45606D02*
X49859Y518231D01*
X37811Y485276D02*
X43903Y491368D01*
X33364Y491621D02*
X39709Y485276D01*
X44995D02*
X58132Y498412D01*
X39937Y492232D02*
X46893Y485276D01*
X5276D02*
X134724D01*
X30627D02*
X38317Y492965D01*
X31238Y522484D02*
X36990Y516731D01*
X33364Y513103D02*
Y519164D01*
X28594D02*
X31914Y522484D01*
X33364Y495197D02*
X34321Y496154D01*
X33364Y491336D02*
Y497397D01*
X5536Y517659D02*
X7041Y519164D01*
X5536Y491336D02*
Y519164D01*
X5276Y488662D02*
X7950Y491336D01*
X5276Y485276D02*
Y594724D01*
X16259Y485276D02*
X22319Y491336D01*
X19281D02*
X25340Y485276D01*
X12096Y491336D02*
X18156Y485276D01*
X26465Y491336D02*
X32525Y485276D01*
X23443D02*
X29503Y491336D01*
X5536D02*
X33364D01*
X5276Y488662D02*
X7950Y491336D01*
X9075Y485276D02*
X15134Y491336D01*
X5276Y490972D02*
X10972Y485276D01*
X239964Y534458D02*
G03*
X235000Y536516I-4964J-4958D01*
G01*
X247266Y524250D02*
G03*
X245211Y529211I-7016J0D01*
G01*
X247266Y524250D02*
G03*
X245208Y529214I-7016J0D01*
G01*
X239961Y534461D02*
G03*
X235000Y536516I-4961J-4961D01*
G01*
X279564Y505250D02*
G03*
X252950Y510934I-13914J0D01*
G01*
Y499566D02*
G03*
X279564Y505250I12700J5684D01*
G01*
X227550Y499566D02*
G03*
X252950Y499566I12700J5684D01*
G01*
Y510934D02*
G03*
X247266Y517266I-12700J-5684D01*
G01*
X233234D02*
G03*
X227550Y510934I7016J-12016D01*
G01*
X192391Y536516D02*
G03*
X192391Y522484I-2695J-7016D01*
G01*
X203364Y497397D02*
G03*
X227550Y499566I11486J7853D01*
G01*
Y510934D02*
G03*
X203364Y513103I-12700J-5684D01*
G01*
X294235Y594724D02*
X304724Y584234D01*
X287050Y594724D02*
X304724Y577050D01*
X301419Y594724D02*
X304724Y591419D01*
X272682Y594724D02*
X304724Y562682D01*
X279866Y594724D02*
X304724Y569866D01*
X258313Y594724D02*
X304724Y548313D01*
X251129Y594724D02*
X304724Y541129D01*
X265498Y594724D02*
X304724Y555498D01*
X229577Y594724D02*
X304724Y519576D01*
X241294Y533128D02*
X302891Y594724D01*
X247266Y517546D02*
X304724Y575004D01*
X269802Y518530D02*
X304724Y553452D01*
X262997Y518909D02*
X304724Y560636D01*
X250994Y514091D02*
X304724Y567820D01*
X274469Y516012D02*
X304724Y546268D01*
X244887Y529535D02*
X304724Y589373D01*
X243945Y594724D02*
X304724Y533945D01*
X247251Y524715D02*
X304724Y582189D01*
X236761Y594724D02*
X304724Y526761D01*
X237158Y536176D02*
X295707Y594724D01*
X239964Y534458D02*
X245208Y529214D01*
X223130Y536516D02*
X281338Y594724D01*
X223130Y536516D02*
X281338Y594724D01*
X230314Y536516D02*
X288522Y594724D01*
X247266Y517266D02*
Y524250D01*
X233234Y517266D02*
Y521344D01*
X232094Y522484D02*
X233234Y521344D01*
X246418Y527593D02*
X257491Y516521D01*
X230954Y515603D02*
X233234Y517883D01*
X229975Y522484D02*
X233234Y519225D01*
X219386Y518404D02*
X223467Y522484D01*
X223946Y515779D02*
X230651Y522484D01*
X222790D02*
X230299Y514975D01*
X277754Y512113D02*
X304724Y539083D01*
X279492Y506667D02*
X304724Y531899D01*
X278908Y509472D02*
X303104Y485276D01*
X304724D02*
Y594724D01*
X279653Y485276D02*
X304724Y510346D01*
X222392Y594724D02*
X304724Y512392D01*
X272469Y485276D02*
X304724Y517531D01*
X276274Y496265D02*
X304724Y524715D01*
X286838Y485276D02*
X304724Y503162D01*
X279182Y502013D02*
X295919Y485276D01*
X276921Y497091D02*
X288735Y485276D01*
X301206D02*
X304724Y488794D01*
X294022Y485276D02*
X304724Y495978D01*
X265285Y485276D02*
X274635Y494626D01*
X273239Y493588D02*
X281551Y485276D01*
X268091Y491552D02*
X274367Y485276D01*
X247266Y519561D02*
X253988Y512839D01*
X249975Y495299D02*
X259998Y485276D01*
X243732D02*
X254888Y496431D01*
X227135Y511783D02*
X229897Y514546D01*
X226332Y497390D02*
X238446Y485276D01*
X222180D02*
X231409Y494506D01*
X250917Y485276D02*
X258787Y493146D01*
X245660Y492431D02*
X252814Y485276D01*
X239552Y491353D02*
X245630Y485276D01*
X259861Y492597D02*
X267183Y485276D01*
X258101D02*
X264233Y491408D01*
X222745Y493793D02*
X231262Y485276D01*
X217719Y491635D02*
X224077Y485276D01*
X236548D02*
X242854Y491582D01*
X229364Y485276D02*
X236067Y491979D01*
X194393Y536516D02*
X252601Y594724D01*
X201578Y536516D02*
X259786Y594724D01*
X187326Y536633D02*
X245417Y594724D01*
X208762Y536516D02*
X266970Y594724D01*
X179287D02*
X238343Y535668D01*
X175276Y553320D02*
X216680Y594724D01*
X175276Y546135D02*
X223865Y594724D01*
X175276Y560504D02*
X209496Y594724D01*
X175276Y531767D02*
X238233Y594724D01*
X175276Y538951D02*
X231049Y594724D01*
X215946Y536516D02*
X274154Y594724D01*
X192391Y536516D02*
X235000D01*
X175276Y569998D02*
X208758Y536516D01*
X192391Y522484D02*
X232094D01*
X175536Y519164D02*
X203364D01*
X175276Y594724D02*
X304724D01*
X175276Y591551D02*
X230311Y536516D01*
X175276Y584367D02*
X223127Y536516D01*
X175276Y577183D02*
X215943Y536516D01*
X175276Y562814D02*
X201574Y536516D01*
X175276Y555630D02*
X194390Y536516D01*
X175276Y548446D02*
X187150Y536572D01*
X175276Y541261D02*
X183221Y533317D01*
X175276Y582056D02*
X187943Y594724D01*
X175276Y589241D02*
X180759Y594724D01*
X175276Y567688D02*
X202312Y594724D01*
X175276Y574872D02*
X195128Y594724D01*
X186782Y522572D02*
X190189Y519164D01*
X184226D02*
X187404Y522342D01*
X177041Y519164D02*
X183350Y525472D01*
X194053Y522484D02*
X197374Y519164D01*
X191410D02*
X194730Y522484D01*
X175276Y534077D02*
X182767Y526586D01*
X175276Y524583D02*
X182562Y531869D01*
X175276Y526893D02*
X183005Y519164D01*
X175276Y519709D02*
X175821Y519164D01*
X208422Y522484D02*
X212031Y518875D01*
X212812Y519014D02*
X216283Y522484D01*
X203364Y516750D02*
X209098Y522484D01*
X208024Y594724D02*
X304724Y498024D01*
X215208Y594724D02*
X304724Y505208D01*
X193656Y594724D02*
X269872Y518508D01*
X186472Y594724D02*
X262413Y518782D01*
X200840Y594724D02*
X304724Y490840D01*
X203364Y516750D02*
X209098Y522484D01*
X215606D02*
X219859Y518231D01*
X207811Y485276D02*
X213904Y491368D01*
X203364Y491621D02*
X209709Y485276D01*
X214995D02*
X228132Y498412D01*
X209937Y492232D02*
X216893Y485276D01*
X175276D02*
X304724D01*
X200627D02*
X208316Y492965D01*
X201238Y522484D02*
X206990Y516731D01*
X203364Y513103D02*
Y519164D01*
X198594D02*
X201914Y522484D01*
X203364Y495197D02*
X204321Y496154D01*
X203364Y491336D02*
Y497397D01*
X175536Y517659D02*
X177041Y519164D01*
X175536Y491336D02*
Y519164D01*
X175276Y488662D02*
X177950Y491336D01*
X175276Y485276D02*
Y594724D01*
X186259Y485276D02*
X192319Y491336D01*
X189280D02*
X195340Y485276D01*
X182096Y491336D02*
X188156Y485276D01*
X196465Y491336D02*
X202525Y485276D01*
X193443D02*
X199503Y491336D01*
X175536D02*
X203364D01*
X175276Y488662D02*
X177950Y491336D01*
X179074Y485276D02*
X185134Y491336D01*
X175276Y490972D02*
X180972Y485276D01*
X409964Y534458D02*
G03*
X405000Y536516I-4964J-4958D01*
G01*
X417266Y524250D02*
G03*
X415211Y529211I-7016J0D01*
G01*
X417266Y524250D02*
G03*
X415208Y529214I-7016J0D01*
G01*
X409961Y534461D02*
G03*
X405000Y536516I-4961J-4961D01*
G01*
X449564Y505250D02*
G03*
X422950Y510934I-13914J0D01*
G01*
Y499566D02*
G03*
X449564Y505250I12700J5684D01*
G01*
X397550Y499566D02*
G03*
X422950Y499566I12700J5684D01*
G01*
Y510934D02*
G03*
X417266Y517266I-12700J-5684D01*
G01*
X403234D02*
G03*
X397550Y510934I7016J-12016D01*
G01*
X362391Y536516D02*
G03*
X362391Y522484I-2695J-7016D01*
G01*
X373364Y497397D02*
G03*
X397550Y499566I11486J7853D01*
G01*
Y510934D02*
G03*
X373364Y513103I-12700J-5684D01*
G01*
X464235Y594724D02*
X474724Y584234D01*
X457050Y594724D02*
X474724Y577050D01*
X471419Y594724D02*
X474724Y591419D01*
X442682Y594724D02*
X474724Y562682D01*
X449866Y594724D02*
X474724Y569866D01*
X428313Y594724D02*
X474724Y548313D01*
X421129Y594724D02*
X474724Y541129D01*
X435498Y594724D02*
X474724Y555498D01*
X399577Y594724D02*
X474724Y519576D01*
X411295Y533128D02*
X472891Y594724D01*
X417266Y517546D02*
X474724Y575004D01*
X439802Y518530D02*
X474724Y553452D01*
X432996Y518909D02*
X474724Y560636D01*
X420994Y514091D02*
X474724Y567820D01*
X444469Y516012D02*
X474724Y546268D01*
X414887Y529535D02*
X474724Y589373D01*
X413945Y594724D02*
X474724Y533945D01*
X417251Y524715D02*
X474724Y582189D01*
X406761Y594724D02*
X474724Y526761D01*
X407158Y536176D02*
X465707Y594724D01*
X409964Y534458D02*
X415208Y529214D01*
X393130Y536516D02*
X451338Y594724D01*
X393130Y536516D02*
X451338Y594724D01*
X400314Y536516D02*
X458522Y594724D01*
X417266Y517266D02*
Y524250D01*
X403234Y517266D02*
Y521344D01*
X402094Y522484D02*
X403234Y521344D01*
X416418Y527593D02*
X427491Y516521D01*
X400954Y515603D02*
X403234Y517883D01*
X399975Y522484D02*
X403234Y519225D01*
X389386Y518404D02*
X393467Y522484D01*
X393946Y515779D02*
X400651Y522484D01*
X392790D02*
X400299Y514975D01*
X447754Y512113D02*
X474724Y539083D01*
X449492Y506667D02*
X474724Y531899D01*
X448908Y509472D02*
X473104Y485276D01*
X474724D02*
Y594724D01*
X449653Y485276D02*
X474724Y510346D01*
X392392Y594724D02*
X474724Y512392D01*
X442469Y485276D02*
X474724Y517531D01*
X446274Y496265D02*
X474724Y524715D01*
X456838Y485276D02*
X474724Y503162D01*
X449182Y502013D02*
X465919Y485276D01*
X446921Y497091D02*
X458735Y485276D01*
X471206D02*
X474724Y488794D01*
X464022Y485276D02*
X474724Y495978D01*
X435285Y485276D02*
X444635Y494626D01*
X443239Y493588D02*
X451551Y485276D01*
X438091Y491552D02*
X444367Y485276D01*
X417266Y519561D02*
X423988Y512839D01*
X419975Y495299D02*
X429998Y485276D01*
X413732D02*
X424888Y496431D01*
X397135Y511783D02*
X399897Y514546D01*
X396331Y497390D02*
X408446Y485276D01*
X392180D02*
X401409Y494506D01*
X420917Y485276D02*
X428787Y493146D01*
X415660Y492431D02*
X422814Y485276D01*
X409552Y491353D02*
X415630Y485276D01*
X429861Y492597D02*
X437183Y485276D01*
X428101D02*
X434233Y491408D01*
X392745Y493793D02*
X401262Y485276D01*
X387719Y491635D02*
X394077Y485276D01*
X406548D02*
X412854Y491582D01*
X399364Y485276D02*
X406067Y491979D01*
X364393Y536516D02*
X422601Y594724D01*
X371578Y536516D02*
X429786Y594724D01*
X357326Y536633D02*
X415417Y594724D01*
X378762Y536516D02*
X436970Y594724D01*
X349287D02*
X408343Y535668D01*
X345276Y553320D02*
X386680Y594724D01*
X345276Y546135D02*
X393865Y594724D01*
X345276Y560504D02*
X379496Y594724D01*
X345276Y531767D02*
X408233Y594724D01*
X345276Y538951D02*
X401049Y594724D01*
X385946Y536516D02*
X444154Y594724D01*
X362391Y536516D02*
X405000D01*
X345276Y569998D02*
X378758Y536516D01*
X362391Y522484D02*
X402094D01*
X345536Y519164D02*
X373364D01*
X345276Y594724D02*
X474724D01*
X345276Y591551D02*
X400311Y536516D01*
X345276Y584367D02*
X393127Y536516D01*
X345276Y577183D02*
X385943Y536516D01*
X345276Y562814D02*
X371574Y536516D01*
X345276Y555630D02*
X364390Y536516D01*
X345276Y548446D02*
X357150Y536572D01*
X345276Y541261D02*
X353221Y533317D01*
X345276Y582056D02*
X357943Y594724D01*
X345276Y589241D02*
X350759Y594724D01*
X345276Y567688D02*
X372312Y594724D01*
X345276Y574872D02*
X365128Y594724D01*
X356782Y522572D02*
X360189Y519164D01*
X354226D02*
X357403Y522342D01*
X347041Y519164D02*
X353350Y525472D01*
X364053Y522484D02*
X367374Y519164D01*
X361410D02*
X364730Y522484D01*
X345276Y534077D02*
X352767Y526586D01*
X345276Y524583D02*
X352562Y531869D01*
X345276Y526893D02*
X353005Y519164D01*
X345276Y519709D02*
X345821Y519164D01*
X378422Y522484D02*
X382031Y518875D01*
X382812Y519014D02*
X386283Y522484D01*
X373364Y516750D02*
X379098Y522484D01*
X378024Y594724D02*
X474724Y498024D01*
X385208Y594724D02*
X474724Y505208D01*
X363656Y594724D02*
X439872Y518508D01*
X356471Y594724D02*
X432413Y518782D01*
X370840Y594724D02*
X474724Y490840D01*
X373364Y516750D02*
X379098Y522484D01*
X385606D02*
X389859Y518231D01*
X377811Y485276D02*
X383904Y491368D01*
X373364Y491621D02*
X379709Y485276D01*
X384995D02*
X398132Y498412D01*
X379937Y492232D02*
X386893Y485276D01*
X345276D02*
X474724D01*
X370627D02*
X378316Y492965D01*
X371238Y522484D02*
X376990Y516731D01*
X373364Y513103D02*
Y519164D01*
X368594D02*
X371914Y522484D01*
X373364Y495197D02*
X374321Y496154D01*
X373364Y491336D02*
Y497397D01*
X345536Y517659D02*
X347041Y519164D01*
X345536Y491336D02*
Y519164D01*
X345276Y488662D02*
X347950Y491336D01*
X345276Y485276D02*
Y594724D01*
X356259Y485276D02*
X362319Y491336D01*
X359281D02*
X365340Y485276D01*
X352096Y491336D02*
X358156Y485276D01*
X366465Y491336D02*
X372525Y485276D01*
X363443D02*
X369503Y491336D01*
X345536D02*
X373364D01*
X345276Y488662D02*
X347950Y491336D01*
X349074Y485276D02*
X355134Y491336D01*
X345276Y490972D02*
X350972Y485276D01*
X579964Y534458D02*
G03*
X575000Y536516I-4964J-4958D01*
G01*
X587266Y524250D02*
G03*
X585211Y529211I-7016J0D01*
G01*
X587266Y524250D02*
G03*
X585208Y529214I-7016J0D01*
G01*
X579961Y534461D02*
G03*
X575000Y536516I-4961J-4961D01*
G01*
X619564Y505250D02*
G03*
X592950Y510934I-13914J0D01*
G01*
Y499566D02*
G03*
X619564Y505250I12700J5684D01*
G01*
X567550Y499566D02*
G03*
X592950Y499566I12700J5684D01*
G01*
Y510934D02*
G03*
X587266Y517266I-12700J-5684D01*
G01*
X573234D02*
G03*
X567550Y510934I7016J-12016D01*
G01*
X532391Y536516D02*
G03*
X532391Y522484I-2695J-7016D01*
G01*
X543364Y497397D02*
G03*
X567550Y499566I11486J7853D01*
G01*
Y510934D02*
G03*
X543364Y513103I-12700J-5684D01*
G01*
X634235Y594724D02*
X644724Y584234D01*
X627050Y594724D02*
X644724Y577050D01*
X641419Y594724D02*
X644724Y591419D01*
X612682Y594724D02*
X644724Y562682D01*
X619866Y594724D02*
X644724Y569866D01*
X598313Y594724D02*
X644724Y548313D01*
X591129Y594724D02*
X644724Y541129D01*
X605498Y594724D02*
X644724Y555498D01*
X569577Y594724D02*
X644724Y519576D01*
X581295Y533128D02*
X642891Y594724D01*
X587266Y517546D02*
X644724Y575004D01*
X609802Y518530D02*
X644724Y553452D01*
X602996Y518909D02*
X644724Y560636D01*
X590994Y514091D02*
X644724Y567820D01*
X614469Y516012D02*
X644724Y546268D01*
X584887Y529535D02*
X644724Y589373D01*
X583945Y594724D02*
X644724Y533945D01*
X587251Y524715D02*
X644724Y582189D01*
X576761Y594724D02*
X644724Y526761D01*
X577158Y536176D02*
X635707Y594724D01*
X579964Y534458D02*
X585208Y529214D01*
X563130Y536516D02*
X621338Y594724D01*
X563130Y536516D02*
X621338Y594724D01*
X570314Y536516D02*
X628522Y594724D01*
X587266Y517266D02*
Y524250D01*
X573234Y517266D02*
Y521344D01*
X572094Y522484D02*
X573234Y521344D01*
X586418Y527593D02*
X597491Y516521D01*
X570954Y515603D02*
X573234Y517883D01*
X569975Y522484D02*
X573234Y519225D01*
X559386Y518404D02*
X563467Y522484D01*
X563946Y515779D02*
X570651Y522484D01*
X562790D02*
X570299Y514975D01*
X617754Y512113D02*
X644724Y539083D01*
X619492Y506667D02*
X644724Y531899D01*
X618908Y509472D02*
X643104Y485276D01*
X644724D02*
Y594724D01*
X619653Y485276D02*
X644724Y510346D01*
X562392Y594724D02*
X644724Y512392D01*
X612469Y485276D02*
X644724Y517531D01*
X616274Y496265D02*
X644724Y524715D01*
X626838Y485276D02*
X644724Y503162D01*
X619182Y502013D02*
X635919Y485276D01*
X616921Y497091D02*
X628735Y485276D01*
X641206D02*
X644724Y488794D01*
X634022Y485276D02*
X644724Y495978D01*
X605285Y485276D02*
X614635Y494626D01*
X613239Y493588D02*
X621551Y485276D01*
X608091Y491552D02*
X614367Y485276D01*
X587266Y519561D02*
X593988Y512839D01*
X589975Y495299D02*
X599998Y485276D01*
X583732D02*
X594888Y496431D01*
X567135Y511783D02*
X569897Y514546D01*
X566331Y497390D02*
X578446Y485276D01*
X562180D02*
X571409Y494506D01*
X590916Y485276D02*
X598787Y493146D01*
X585660Y492431D02*
X592814Y485276D01*
X579552Y491353D02*
X585630Y485276D01*
X599861Y492597D02*
X607183Y485276D01*
X598101D02*
X604233Y491408D01*
X562745Y493793D02*
X571261Y485276D01*
X557719Y491635D02*
X564077Y485276D01*
X576548D02*
X582854Y491582D01*
X569364Y485276D02*
X576067Y491979D01*
X534393Y536516D02*
X592601Y594724D01*
X541578Y536516D02*
X599786Y594724D01*
X527326Y536633D02*
X585417Y594724D01*
X548762Y536516D02*
X606970Y594724D01*
X519287D02*
X578343Y535668D01*
X515276Y553320D02*
X556680Y594724D01*
X515276Y546135D02*
X563865Y594724D01*
X515276Y560504D02*
X549496Y594724D01*
X515276Y531767D02*
X578233Y594724D01*
X515276Y538951D02*
X571049Y594724D01*
X555946Y536516D02*
X614154Y594724D01*
X532391Y536516D02*
X575000D01*
X515276Y569998D02*
X548758Y536516D01*
X532391Y522484D02*
X572094D01*
X515536Y519164D02*
X543364D01*
X515276Y594724D02*
X644724D01*
X515276Y591551D02*
X570311Y536516D01*
X515276Y584367D02*
X563127Y536516D01*
X515276Y577183D02*
X555943Y536516D01*
X515276Y562814D02*
X541574Y536516D01*
X515276Y555630D02*
X534390Y536516D01*
X515276Y548446D02*
X527150Y536572D01*
X515276Y541261D02*
X523220Y533317D01*
X515276Y582056D02*
X527943Y594724D01*
X515276Y589241D02*
X520759Y594724D01*
X515276Y567688D02*
X542312Y594724D01*
X515276Y574872D02*
X535128Y594724D01*
X526782Y522572D02*
X530189Y519164D01*
X524226D02*
X527403Y522342D01*
X517041Y519164D02*
X523350Y525472D01*
X534053Y522484D02*
X537374Y519164D01*
X531410D02*
X534730Y522484D01*
X515276Y534077D02*
X522767Y526586D01*
X515276Y524583D02*
X522562Y531869D01*
X515276Y526893D02*
X523005Y519164D01*
X515276Y519709D02*
X515821Y519164D01*
X548422Y522484D02*
X552031Y518875D01*
X552812Y519014D02*
X556283Y522484D01*
X543364Y516750D02*
X549098Y522484D01*
X548024Y594724D02*
X644724Y498024D01*
X555208Y594724D02*
X644724Y505208D01*
X533656Y594724D02*
X609872Y518508D01*
X526471Y594724D02*
X602413Y518782D01*
X540840Y594724D02*
X644724Y490840D01*
X543364Y516750D02*
X549098Y522484D01*
X555606D02*
X559859Y518231D01*
X547811Y485276D02*
X553904Y491368D01*
X543364Y491621D02*
X549709Y485276D01*
X554995D02*
X568132Y498412D01*
X549937Y492232D02*
X556893Y485276D01*
X515276D02*
X644724D01*
X540627D02*
X548316Y492965D01*
X541238Y522484D02*
X546990Y516731D01*
X543364Y513103D02*
Y519164D01*
X538594D02*
X541914Y522484D01*
X543364Y495197D02*
X544321Y496154D01*
X543364Y491336D02*
Y497397D01*
X515536Y517659D02*
X517041Y519164D01*
X515536Y491336D02*
Y519164D01*
X515276Y488662D02*
X517950Y491336D01*
X515276Y485276D02*
Y594724D01*
X526259Y485276D02*
X532319Y491336D01*
X529281D02*
X535340Y485276D01*
X522096Y491336D02*
X528156Y485276D01*
X536465Y491336D02*
X542525Y485276D01*
X533443D02*
X539503Y491336D01*
X515536D02*
X543364D01*
X515276Y488662D02*
X517950Y491336D01*
X519074Y485276D02*
X525134Y491336D01*
X515276Y490972D02*
X520972Y485276D01*
X749964Y534458D02*
G03*
X745000Y536516I-4964J-4958D01*
G01*
X757266Y524250D02*
G03*
X755211Y529211I-7016J0D01*
G01*
X757266Y524250D02*
G03*
X755208Y529214I-7016J0D01*
G01*
X749961Y534461D02*
G03*
X745000Y536516I-4961J-4961D01*
G01*
X789564Y505250D02*
G03*
X762950Y510934I-13914J0D01*
G01*
Y499566D02*
G03*
X789564Y505250I12700J5684D01*
G01*
X737550Y499566D02*
G03*
X762950Y499566I12700J5684D01*
G01*
Y510934D02*
G03*
X757266Y517266I-12700J-5684D01*
G01*
X743234D02*
G03*
X737550Y510934I7016J-12016D01*
G01*
X702391Y536516D02*
G03*
X702391Y522484I-2695J-7016D01*
G01*
X713364Y497397D02*
G03*
X737550Y499566I11486J7853D01*
G01*
Y510934D02*
G03*
X713364Y513103I-12700J-5684D01*
G01*
X804234Y594724D02*
X814724Y584234D01*
X797050Y594724D02*
X814724Y577050D01*
X811419Y594724D02*
X814724Y591419D01*
X782682Y594724D02*
X814724Y562682D01*
X789866Y594724D02*
X814724Y569866D01*
X768313Y594724D02*
X814724Y548313D01*
X761129Y594724D02*
X814724Y541129D01*
X775498Y594724D02*
X814724Y555498D01*
X739576Y594724D02*
X814724Y519576D01*
X751294Y533128D02*
X812891Y594724D01*
X757266Y517546D02*
X814724Y575004D01*
X779802Y518530D02*
X814724Y553452D01*
X772997Y518909D02*
X814724Y560636D01*
X760994Y514091D02*
X814724Y567820D01*
X784469Y516012D02*
X814724Y546268D01*
X754887Y529535D02*
X814724Y589373D01*
X753945Y594724D02*
X814724Y533945D01*
X757251Y524715D02*
X814724Y582189D01*
X746761Y594724D02*
X814724Y526761D01*
X747158Y536176D02*
X805707Y594724D01*
X749964Y534458D02*
X755208Y529214D01*
X733130Y536516D02*
X791338Y594724D01*
X733130Y536516D02*
X791338Y594724D01*
X740314Y536516D02*
X798522Y594724D01*
X757266Y517266D02*
Y524250D01*
X743234Y517266D02*
Y521344D01*
X742094Y522484D02*
X743234Y521344D01*
X756419Y527593D02*
X767491Y516521D01*
X740954Y515603D02*
X743234Y517883D01*
X739975Y522484D02*
X743234Y519225D01*
X729386Y518404D02*
X733467Y522484D01*
X733946Y515779D02*
X740651Y522484D01*
X732790D02*
X740299Y514975D01*
X787754Y512113D02*
X814724Y539083D01*
X789492Y506667D02*
X814724Y531899D01*
X788908Y509472D02*
X813104Y485276D01*
X814724D02*
Y594724D01*
X789653Y485276D02*
X814724Y510346D01*
X732392Y594724D02*
X814724Y512392D01*
X782469Y485276D02*
X814724Y517531D01*
X786274Y496265D02*
X814724Y524715D01*
X796838Y485276D02*
X814724Y503162D01*
X789182Y502013D02*
X805919Y485276D01*
X786920Y497091D02*
X798735Y485276D01*
X811206D02*
X814724Y488794D01*
X804022Y485276D02*
X814724Y495978D01*
X775285Y485276D02*
X784635Y494626D01*
X783239Y493588D02*
X791551Y485276D01*
X778091Y491552D02*
X784367Y485276D01*
X757266Y519561D02*
X763988Y512839D01*
X759975Y495299D02*
X769998Y485276D01*
X753732D02*
X764888Y496431D01*
X737135Y511783D02*
X739897Y514546D01*
X736331Y497390D02*
X748446Y485276D01*
X732180D02*
X741409Y494506D01*
X760917Y485276D02*
X768787Y493146D01*
X755660Y492431D02*
X762814Y485276D01*
X749553Y491353D02*
X755630Y485276D01*
X769861Y492597D02*
X777183Y485276D01*
X768101D02*
X774233Y491408D01*
X732745Y493793D02*
X741262Y485276D01*
X727719Y491635D02*
X734077Y485276D01*
X746548D02*
X752854Y491582D01*
X739364Y485276D02*
X746067Y491979D01*
X704393Y536516D02*
X762601Y594724D01*
X711578Y536516D02*
X769786Y594724D01*
X697326Y536633D02*
X755417Y594724D01*
X718762Y536516D02*
X776970Y594724D01*
X689287D02*
X748343Y535668D01*
X685276Y553320D02*
X726680Y594724D01*
X685276Y546135D02*
X733865Y594724D01*
X685276Y560504D02*
X719496Y594724D01*
X685276Y531767D02*
X748233Y594724D01*
X685276Y538951D02*
X741049Y594724D01*
X725946Y536516D02*
X784154Y594724D01*
X702391Y536516D02*
X745000D01*
X685276Y569998D02*
X718758Y536516D01*
X702391Y522484D02*
X742094D01*
X685536Y519164D02*
X713364D01*
X685276Y594724D02*
X814724D01*
X685276Y591551D02*
X740311Y536516D01*
X685276Y584367D02*
X733127Y536516D01*
X685276Y577183D02*
X725943Y536516D01*
X685276Y562814D02*
X711574Y536516D01*
X685276Y555630D02*
X704390Y536516D01*
X685276Y548446D02*
X697150Y536572D01*
X685276Y541261D02*
X693221Y533317D01*
X685276Y582056D02*
X697943Y594724D01*
X685276Y589241D02*
X690759Y594724D01*
X685276Y567688D02*
X712312Y594724D01*
X685276Y574872D02*
X705128Y594724D01*
X696782Y522572D02*
X700189Y519164D01*
X694225D02*
X697403Y522342D01*
X687041Y519164D02*
X693350Y525472D01*
X704053Y522484D02*
X707374Y519164D01*
X701410D02*
X704730Y522484D01*
X685276Y534077D02*
X692767Y526586D01*
X685276Y524583D02*
X692562Y531869D01*
X685276Y526893D02*
X693005Y519164D01*
X685276Y519709D02*
X685821Y519164D01*
X718422Y522484D02*
X722031Y518875D01*
X722812Y519014D02*
X726282Y522484D01*
X713364Y516750D02*
X719098Y522484D01*
X718024Y594724D02*
X814724Y498024D01*
X725208Y594724D02*
X814724Y505208D01*
X703656Y594724D02*
X779872Y518508D01*
X696471Y594724D02*
X772413Y518782D01*
X710840Y594724D02*
X814724Y490840D01*
X713364Y516750D02*
X719098Y522484D01*
X725606D02*
X729859Y518231D01*
X717811Y485276D02*
X723904Y491368D01*
X713364Y491621D02*
X719709Y485276D01*
X724995D02*
X738132Y498412D01*
X719937Y492232D02*
X726893Y485276D01*
X685276D02*
X814724D01*
X710627D02*
X718316Y492965D01*
X711238Y522484D02*
X716990Y516731D01*
X713364Y513103D02*
Y519164D01*
X708594D02*
X711914Y522484D01*
X713364Y495197D02*
X714321Y496154D01*
X713364Y491336D02*
Y497397D01*
X685536Y517659D02*
X687041Y519164D01*
X685536Y491336D02*
Y519164D01*
X685276Y488662D02*
X687950Y491336D01*
X685276Y485276D02*
Y594724D01*
X696259Y485276D02*
X702319Y491336D01*
X699280D02*
X705340Y485276D01*
X692096Y491336D02*
X698156Y485276D01*
X706465Y491336D02*
X712525Y485276D01*
X703443D02*
X709503Y491336D01*
X685536D02*
X713364D01*
X685276Y488662D02*
X687950Y491336D01*
X689074Y485276D02*
X695134Y491336D01*
X685276Y490972D02*
X690972Y485276D01*
M02*
