G04*
G04 #@! TF.GenerationSoftware,Altium Limited,Altium Designer,23.8.1 (32)*
G04*
G04 Layer_Color=16711935*
%FSLAX44Y44*%
%MOMM*%
G71*
G04*
G04 #@! TF.SameCoordinates,016EFE59-DA19-4AE6-B192-11953897C182*
G04*
G04*
G04 #@! TF.FilePolarity,Positive*
G04*
G01*
G75*
%ADD30C,0.1000*%
%ADD32C,0.0700*%
D30*
X92305Y83152D02*
X106305Y83152D01*
X92305Y53152D02*
X106305D01*
X92305D02*
X92305Y83152D01*
X106305Y83152D02*
X106305Y53152D01*
X42055Y83152D02*
X56055D01*
X42055Y53152D02*
X56055D01*
X42055D02*
Y83152D01*
X56055Y53152D02*
Y83152D01*
X41055Y93902D02*
X57055D01*
X41055Y101902D02*
X57055D01*
Y93902D02*
Y101902D01*
X41055Y93902D02*
Y101902D01*
X74805Y93902D02*
X90805D01*
X74805Y101902D02*
X90805D01*
Y93902D02*
Y101902D01*
X74805Y93902D02*
Y101902D01*
X23555Y67652D02*
Y83652D01*
X15555Y67652D02*
Y83652D01*
X23555D01*
X15555Y67652D02*
X23555D01*
X262305Y83152D02*
X276305Y83152D01*
X262305Y53152D02*
X276305D01*
X262305D02*
X262305Y83152D01*
X276305Y83152D02*
X276305Y53152D01*
X212055Y83152D02*
X226055D01*
X212055Y53152D02*
X226055D01*
X212055D02*
Y83152D01*
X226055Y53152D02*
Y83152D01*
X211055Y93902D02*
X227055D01*
X211055Y101902D02*
X227055D01*
Y93902D02*
Y101902D01*
X211055Y93902D02*
Y101902D01*
X244805Y93902D02*
X260805D01*
X244805Y101902D02*
X260805D01*
Y93902D02*
Y101902D01*
X244805Y93902D02*
Y101902D01*
X193555Y67652D02*
Y83652D01*
X185555Y67652D02*
Y83652D01*
X193555D01*
X185555Y67652D02*
X193555D01*
X432305Y83152D02*
X446305Y83152D01*
X432305Y53152D02*
X446305D01*
X432305D02*
X432305Y83152D01*
X446305Y83152D02*
X446305Y53152D01*
X382055Y83152D02*
X396055D01*
X382055Y53152D02*
X396055D01*
X382055D02*
Y83152D01*
X396055Y53152D02*
Y83152D01*
X381055Y93902D02*
X397055D01*
X381055Y101902D02*
X397055D01*
Y93902D02*
Y101902D01*
X381055Y93902D02*
Y101902D01*
X414805Y93902D02*
X430805D01*
X414805Y101902D02*
X430805D01*
Y93902D02*
Y101902D01*
X414805Y93902D02*
Y101902D01*
X363555Y67652D02*
Y83652D01*
X355555Y67652D02*
Y83652D01*
X363555D01*
X355555Y67652D02*
X363555D01*
X602305Y83152D02*
X616305Y83152D01*
X602305Y53152D02*
X616305D01*
X602305D02*
X602305Y83152D01*
X616305Y83152D02*
X616305Y53152D01*
X552055Y83152D02*
X566055D01*
X552055Y53152D02*
X566055D01*
X552055D02*
Y83152D01*
X566055Y53152D02*
Y83152D01*
X551055Y93902D02*
X567055D01*
X551055Y101902D02*
X567055D01*
Y93902D02*
Y101902D01*
X551055Y93902D02*
Y101902D01*
X584805Y93902D02*
X600805D01*
X584805Y101902D02*
X600805D01*
Y93902D02*
Y101902D01*
X584805Y93902D02*
Y101902D01*
X533555Y67652D02*
Y83652D01*
X525555Y67652D02*
Y83652D01*
X533555D01*
X525555Y67652D02*
X533555D01*
X772305Y83152D02*
X786305Y83152D01*
X772305Y53152D02*
X786305D01*
X772305D02*
X772305Y83152D01*
X786305Y83152D02*
X786305Y53152D01*
X722055Y83152D02*
X736055D01*
X722055Y53152D02*
X736055D01*
X722055D02*
Y83152D01*
X736055Y53152D02*
Y83152D01*
X721055Y93902D02*
X737055D01*
X721055Y101902D02*
X737055D01*
Y93902D02*
Y101902D01*
X721055Y93902D02*
Y101902D01*
X754805Y93902D02*
X770805D01*
X754805Y101902D02*
X770805D01*
Y93902D02*
Y101902D01*
X754805Y93902D02*
Y101902D01*
X703555Y67652D02*
Y83652D01*
X695555Y67652D02*
Y83652D01*
X703555D01*
X695555Y67652D02*
X703555D01*
X92305Y203152D02*
X106305Y203152D01*
X92305Y173152D02*
X106305D01*
X92305D02*
X92305Y203152D01*
X106305Y203152D02*
X106305Y173152D01*
X42055Y203152D02*
X56055D01*
X42055Y173152D02*
X56055D01*
X42055D02*
Y203152D01*
X56055Y173152D02*
Y203152D01*
X41055Y213902D02*
X57055D01*
X41055Y221902D02*
X57055D01*
Y213902D02*
Y221902D01*
X41055Y213902D02*
Y221902D01*
X74805Y213902D02*
X90805D01*
X74805Y221902D02*
X90805D01*
Y213902D02*
Y221902D01*
X74805Y213902D02*
Y221902D01*
X23555Y187652D02*
Y203652D01*
X15555Y187652D02*
Y203652D01*
X23555D01*
X15555Y187652D02*
X23555D01*
X262305Y203152D02*
X276305Y203152D01*
X262305Y173152D02*
X276305D01*
X262305D02*
X262305Y203152D01*
X276305Y203152D02*
X276305Y173152D01*
X212055Y203152D02*
X226055D01*
X212055Y173152D02*
X226055D01*
X212055D02*
Y203152D01*
X226055Y173152D02*
Y203152D01*
X211055Y213902D02*
X227055D01*
X211055Y221902D02*
X227055D01*
Y213902D02*
Y221902D01*
X211055Y213902D02*
Y221902D01*
X244805Y213902D02*
X260805D01*
X244805Y221902D02*
X260805D01*
Y213902D02*
Y221902D01*
X244805Y213902D02*
Y221902D01*
X193555Y187652D02*
Y203652D01*
X185555Y187652D02*
Y203652D01*
X193555D01*
X185555Y187652D02*
X193555D01*
X432305Y203152D02*
X446305Y203152D01*
X432305Y173152D02*
X446305D01*
X432305D02*
X432305Y203152D01*
X446305Y203152D02*
X446305Y173152D01*
X382055Y203152D02*
X396055D01*
X382055Y173152D02*
X396055D01*
X382055D02*
Y203152D01*
X396055Y173152D02*
Y203152D01*
X381055Y213902D02*
X397055D01*
X381055Y221902D02*
X397055D01*
Y213902D02*
Y221902D01*
X381055Y213902D02*
Y221902D01*
X414805Y213902D02*
X430805D01*
X414805Y221902D02*
X430805D01*
Y213902D02*
Y221902D01*
X414805Y213902D02*
Y221902D01*
X363555Y187652D02*
Y203652D01*
X355555Y187652D02*
Y203652D01*
X363555D01*
X355555Y187652D02*
X363555D01*
X602305Y203152D02*
X616305Y203152D01*
X602305Y173152D02*
X616305D01*
X602305D02*
X602305Y203152D01*
X616305Y203152D02*
X616305Y173152D01*
X552055Y203152D02*
X566055D01*
X552055Y173152D02*
X566055D01*
X552055D02*
Y203152D01*
X566055Y173152D02*
Y203152D01*
X551055Y213902D02*
X567055D01*
X551055Y221902D02*
X567055D01*
Y213902D02*
Y221902D01*
X551055Y213902D02*
Y221902D01*
X584805Y213902D02*
X600805D01*
X584805Y221902D02*
X600805D01*
Y213902D02*
Y221902D01*
X584805Y213902D02*
Y221902D01*
X533555Y187652D02*
Y203652D01*
X525555Y187652D02*
Y203652D01*
X533555D01*
X525555Y187652D02*
X533555D01*
X772305Y203152D02*
X786305Y203152D01*
X772305Y173152D02*
X786305D01*
X772305D02*
X772305Y203152D01*
X786305Y203152D02*
X786305Y173152D01*
X722055Y203152D02*
X736055D01*
X722055Y173152D02*
X736055D01*
X722055D02*
Y203152D01*
X736055Y173152D02*
Y203152D01*
X721055Y213902D02*
X737055D01*
X721055Y221902D02*
X737055D01*
Y213902D02*
Y221902D01*
X721055Y213902D02*
Y221902D01*
X754805Y213902D02*
X770805D01*
X754805Y221902D02*
X770805D01*
Y213902D02*
Y221902D01*
X754805Y213902D02*
Y221902D01*
X703555Y187652D02*
Y203652D01*
X695555Y187652D02*
Y203652D01*
X703555D01*
X695555Y187652D02*
X703555D01*
X92305Y323152D02*
X106305Y323152D01*
X92305Y293152D02*
X106305D01*
X92305D02*
X92305Y323152D01*
X106305Y323152D02*
X106305Y293152D01*
X42055Y323152D02*
X56055D01*
X42055Y293152D02*
X56055D01*
X42055D02*
Y323152D01*
X56055Y293152D02*
Y323152D01*
X41055Y333902D02*
X57055D01*
X41055Y341902D02*
X57055D01*
Y333902D02*
Y341902D01*
X41055Y333902D02*
Y341902D01*
X74805Y333902D02*
X90805D01*
X74805Y341902D02*
X90805D01*
Y333902D02*
Y341902D01*
X74805Y333902D02*
Y341902D01*
X23555Y307652D02*
Y323652D01*
X15555Y307652D02*
Y323652D01*
X23555D01*
X15555Y307652D02*
X23555D01*
X262305Y323152D02*
X276305Y323152D01*
X262305Y293152D02*
X276305D01*
X262305D02*
X262305Y323152D01*
X276305Y323152D02*
X276305Y293152D01*
X212055Y323152D02*
X226055D01*
X212055Y293152D02*
X226055D01*
X212055D02*
Y323152D01*
X226055Y293152D02*
Y323152D01*
X211055Y333902D02*
X227055D01*
X211055Y341902D02*
X227055D01*
Y333902D02*
Y341902D01*
X211055Y333902D02*
Y341902D01*
X244805Y333902D02*
X260805D01*
X244805Y341902D02*
X260805D01*
Y333902D02*
Y341902D01*
X244805Y333902D02*
Y341902D01*
X193555Y307652D02*
Y323652D01*
X185555Y307652D02*
Y323652D01*
X193555D01*
X185555Y307652D02*
X193555D01*
X432305Y323152D02*
X446305Y323152D01*
X432305Y293152D02*
X446305D01*
X432305D02*
X432305Y323152D01*
X446305Y323152D02*
X446305Y293152D01*
X382055Y323152D02*
X396055D01*
X382055Y293152D02*
X396055D01*
X382055D02*
Y323152D01*
X396055Y293152D02*
Y323152D01*
X381055Y333902D02*
X397055D01*
X381055Y341902D02*
X397055D01*
Y333902D02*
Y341902D01*
X381055Y333902D02*
Y341902D01*
X414805Y333902D02*
X430805D01*
X414805Y341902D02*
X430805D01*
Y333902D02*
Y341902D01*
X414805Y333902D02*
Y341902D01*
X363555Y307652D02*
Y323652D01*
X355555Y307652D02*
Y323652D01*
X363555D01*
X355555Y307652D02*
X363555D01*
X602305Y323152D02*
X616305Y323152D01*
X602305Y293152D02*
X616305D01*
X602305D02*
X602305Y323152D01*
X616305Y323152D02*
X616305Y293152D01*
X552055Y323152D02*
X566055D01*
X552055Y293152D02*
X566055D01*
X552055D02*
Y323152D01*
X566055Y293152D02*
Y323152D01*
X551055Y333902D02*
X567055D01*
X551055Y341902D02*
X567055D01*
Y333902D02*
Y341902D01*
X551055Y333902D02*
Y341902D01*
X584805Y333902D02*
X600805D01*
X584805Y341902D02*
X600805D01*
Y333902D02*
Y341902D01*
X584805Y333902D02*
Y341902D01*
X533555Y307652D02*
Y323652D01*
X525555Y307652D02*
Y323652D01*
X533555D01*
X525555Y307652D02*
X533555D01*
X772305Y323152D02*
X786305Y323152D01*
X772305Y293152D02*
X786305D01*
X772305D02*
X772305Y323152D01*
X786305Y323152D02*
X786305Y293152D01*
X722055Y323152D02*
X736055D01*
X722055Y293152D02*
X736055D01*
X722055D02*
Y323152D01*
X736055Y293152D02*
Y323152D01*
X721055Y333902D02*
X737055D01*
X721055Y341902D02*
X737055D01*
Y333902D02*
Y341902D01*
X721055Y333902D02*
Y341902D01*
X754805Y333902D02*
X770805D01*
X754805Y341902D02*
X770805D01*
Y333902D02*
Y341902D01*
X754805Y333902D02*
Y341902D01*
X703555Y307652D02*
Y323652D01*
X695555Y307652D02*
Y323652D01*
X703555D01*
X695555Y307652D02*
X703555D01*
X92305Y443152D02*
X106305Y443152D01*
X92305Y413152D02*
X106305D01*
X92305D02*
X92305Y443152D01*
X106305Y443152D02*
X106305Y413152D01*
X42055Y443152D02*
X56055D01*
X42055Y413152D02*
X56055D01*
X42055D02*
Y443152D01*
X56055Y413152D02*
Y443152D01*
X41055Y453902D02*
X57055D01*
X41055Y461902D02*
X57055D01*
Y453902D02*
Y461902D01*
X41055Y453902D02*
Y461902D01*
X74805Y453902D02*
X90805D01*
X74805Y461902D02*
X90805D01*
Y453902D02*
Y461902D01*
X74805Y453902D02*
Y461902D01*
X23555Y427652D02*
Y443652D01*
X15555Y427652D02*
Y443652D01*
X23555D01*
X15555Y427652D02*
X23555D01*
X262305Y443152D02*
X276305Y443152D01*
X262305Y413152D02*
X276305D01*
X262305D02*
X262305Y443152D01*
X276305Y443152D02*
X276305Y413152D01*
X212055Y443152D02*
X226055D01*
X212055Y413152D02*
X226055D01*
X212055D02*
Y443152D01*
X226055Y413152D02*
Y443152D01*
X211055Y453902D02*
X227055D01*
X211055Y461902D02*
X227055D01*
Y453902D02*
Y461902D01*
X211055Y453902D02*
Y461902D01*
X244805Y453902D02*
X260805D01*
X244805Y461902D02*
X260805D01*
Y453902D02*
Y461902D01*
X244805Y453902D02*
Y461902D01*
X193555Y427652D02*
Y443652D01*
X185555Y427652D02*
Y443652D01*
X193555D01*
X185555Y427652D02*
X193555D01*
X432305Y443152D02*
X446305Y443152D01*
X432305Y413152D02*
X446305D01*
X432305D02*
X432305Y443152D01*
X446305Y443152D02*
X446305Y413152D01*
X382055Y443152D02*
X396055D01*
X382055Y413152D02*
X396055D01*
X382055D02*
Y443152D01*
X396055Y413152D02*
Y443152D01*
X381055Y453902D02*
X397055D01*
X381055Y461902D02*
X397055D01*
Y453902D02*
Y461902D01*
X381055Y453902D02*
Y461902D01*
X414805Y453902D02*
X430805D01*
X414805Y461902D02*
X430805D01*
Y453902D02*
Y461902D01*
X414805Y453902D02*
Y461902D01*
X363555Y427652D02*
Y443652D01*
X355555Y427652D02*
Y443652D01*
X363555D01*
X355555Y427652D02*
X363555D01*
X602305Y443152D02*
X616305Y443152D01*
X602305Y413152D02*
X616305D01*
X602305D02*
X602305Y443152D01*
X616305Y443152D02*
X616305Y413152D01*
X552055Y443152D02*
X566055D01*
X552055Y413152D02*
X566055D01*
X552055D02*
Y443152D01*
X566055Y413152D02*
Y443152D01*
X551055Y453902D02*
X567055D01*
X551055Y461902D02*
X567055D01*
Y453902D02*
Y461902D01*
X551055Y453902D02*
Y461902D01*
X584805Y453902D02*
X600805D01*
X584805Y461902D02*
X600805D01*
Y453902D02*
Y461902D01*
X584805Y453902D02*
Y461902D01*
X533555Y427652D02*
Y443652D01*
X525555Y427652D02*
Y443652D01*
X533555D01*
X525555Y427652D02*
X533555D01*
X772305Y443152D02*
X786305Y443152D01*
X772305Y413152D02*
X786305D01*
X772305D02*
X772305Y443152D01*
X786305Y443152D02*
X786305Y413152D01*
X722055Y443152D02*
X736055D01*
X722055Y413152D02*
X736055D01*
X722055D02*
Y443152D01*
X736055Y413152D02*
Y443152D01*
X721055Y453902D02*
X737055D01*
X721055Y461902D02*
X737055D01*
Y453902D02*
Y461902D01*
X721055Y453902D02*
Y461902D01*
X754805Y453902D02*
X770805D01*
X754805Y461902D02*
X770805D01*
Y453902D02*
Y461902D01*
X754805Y453902D02*
Y461902D01*
X703555Y427652D02*
Y443652D01*
X695555Y427652D02*
Y443652D01*
X703555D01*
X695555Y427652D02*
X703555D01*
X92305Y563152D02*
X106305Y563152D01*
X92305Y533152D02*
X106305D01*
X92305D02*
X92305Y563152D01*
X106305Y563152D02*
X106305Y533152D01*
X42055Y563152D02*
X56055D01*
X42055Y533152D02*
X56055D01*
X42055D02*
Y563152D01*
X56055Y533152D02*
Y563152D01*
X41055Y573902D02*
X57055D01*
X41055Y581902D02*
X57055D01*
Y573902D02*
Y581902D01*
X41055Y573902D02*
Y581902D01*
X74805Y573902D02*
X90805D01*
X74805Y581902D02*
X90805D01*
Y573902D02*
Y581902D01*
X74805Y573902D02*
Y581902D01*
X23555Y547652D02*
Y563652D01*
X15555Y547652D02*
Y563652D01*
X23555D01*
X15555Y547652D02*
X23555D01*
X262305Y563152D02*
X276305Y563152D01*
X262305Y533152D02*
X276305D01*
X262305D02*
X262305Y563152D01*
X276305Y563152D02*
X276305Y533152D01*
X212055Y563152D02*
X226055D01*
X212055Y533152D02*
X226055D01*
X212055D02*
Y563152D01*
X226055Y533152D02*
Y563152D01*
X211055Y573902D02*
X227055D01*
X211055Y581902D02*
X227055D01*
Y573902D02*
Y581902D01*
X211055Y573902D02*
Y581902D01*
X244805Y573902D02*
X260805D01*
X244805Y581902D02*
X260805D01*
Y573902D02*
Y581902D01*
X244805Y573902D02*
Y581902D01*
X193555Y547652D02*
Y563652D01*
X185555Y547652D02*
Y563652D01*
X193555D01*
X185555Y547652D02*
X193555D01*
X432305Y563152D02*
X446305Y563152D01*
X432305Y533152D02*
X446305D01*
X432305D02*
X432305Y563152D01*
X446305Y563152D02*
X446305Y533152D01*
X382055Y563152D02*
X396055D01*
X382055Y533152D02*
X396055D01*
X382055D02*
Y563152D01*
X396055Y533152D02*
Y563152D01*
X381055Y573902D02*
X397055D01*
X381055Y581902D02*
X397055D01*
Y573902D02*
Y581902D01*
X381055Y573902D02*
Y581902D01*
X414805Y573902D02*
X430805D01*
X414805Y581902D02*
X430805D01*
Y573902D02*
Y581902D01*
X414805Y573902D02*
Y581902D01*
X363555Y547652D02*
Y563652D01*
X355555Y547652D02*
Y563652D01*
X363555D01*
X355555Y547652D02*
X363555D01*
X602305Y563152D02*
X616305Y563152D01*
X602305Y533152D02*
X616305D01*
X602305D02*
X602305Y563152D01*
X616305Y563152D02*
X616305Y533152D01*
X552055Y563152D02*
X566055D01*
X552055Y533152D02*
X566055D01*
X552055D02*
Y563152D01*
X566055Y533152D02*
Y563152D01*
X551055Y573902D02*
X567055D01*
X551055Y581902D02*
X567055D01*
Y573902D02*
Y581902D01*
X551055Y573902D02*
Y581902D01*
X584805Y573902D02*
X600805D01*
X584805Y581902D02*
X600805D01*
Y573902D02*
Y581902D01*
X584805Y573902D02*
Y581902D01*
X533555Y547652D02*
Y563652D01*
X525555Y547652D02*
Y563652D01*
X533555D01*
X525555Y547652D02*
X533555D01*
X772305Y563152D02*
X786305Y563152D01*
X772305Y533152D02*
X786305D01*
X772305D02*
X772305Y563152D01*
X786305Y563152D02*
X786305Y533152D01*
X722055Y563152D02*
X736055D01*
X722055Y533152D02*
X736055D01*
X722055D02*
Y563152D01*
X736055Y533152D02*
Y563152D01*
X721055Y573902D02*
X737055D01*
X721055Y581902D02*
X737055D01*
Y573902D02*
Y581902D01*
X721055Y573902D02*
Y581902D01*
X754805Y573902D02*
X770805D01*
X754805Y581902D02*
X770805D01*
Y573902D02*
Y581902D01*
X754805Y573902D02*
Y581902D01*
X703555Y547652D02*
Y563652D01*
X695555Y547652D02*
Y563652D01*
X703555D01*
X695555Y547652D02*
X703555D01*
D32*
X99681Y61072D02*
X97988D01*
X97565Y60648D01*
Y59802D01*
X97988Y59379D01*
X99681D01*
X100104Y59802D01*
Y60648D01*
X99257Y60225D02*
X100104Y61072D01*
Y60648D02*
X99681Y61072D01*
X100104Y63611D02*
Y61918D01*
X98411Y63611D01*
X97988D01*
X97565Y63187D01*
Y62341D01*
X97988Y61918D01*
X49431Y61072D02*
X47738D01*
X47315Y60648D01*
Y59802D01*
X47738Y59379D01*
X49431D01*
X49854Y59802D01*
Y60648D01*
X49007Y60225D02*
X49854Y61072D01*
Y60648D02*
X49431Y61072D01*
X49854Y61918D02*
Y62764D01*
Y62341D01*
X47315D01*
X47738Y61918D01*
X269681Y61072D02*
X267988D01*
X267565Y60648D01*
Y59802D01*
X267988Y59379D01*
X269681D01*
X270104Y59802D01*
Y60648D01*
X269257Y60225D02*
X270104Y61072D01*
Y60648D02*
X269681Y61072D01*
X270104Y63611D02*
Y61918D01*
X268411Y63611D01*
X267988D01*
X267565Y63187D01*
Y62341D01*
X267988Y61918D01*
X219431Y61072D02*
X217738D01*
X217315Y60648D01*
Y59802D01*
X217738Y59379D01*
X219431D01*
X219854Y59802D01*
Y60648D01*
X219007Y60225D02*
X219854Y61072D01*
Y60648D02*
X219431Y61072D01*
X219854Y61918D02*
Y62764D01*
Y62341D01*
X217315D01*
X217738Y61918D01*
X439681Y61072D02*
X437988D01*
X437565Y60648D01*
Y59802D01*
X437988Y59379D01*
X439681D01*
X440104Y59802D01*
Y60648D01*
X439257Y60225D02*
X440104Y61072D01*
Y60648D02*
X439681Y61072D01*
X440104Y63611D02*
Y61918D01*
X438411Y63611D01*
X437988D01*
X437565Y63187D01*
Y62341D01*
X437988Y61918D01*
X389431Y61072D02*
X387738D01*
X387315Y60648D01*
Y59802D01*
X387738Y59379D01*
X389431D01*
X389854Y59802D01*
Y60648D01*
X389007Y60225D02*
X389854Y61072D01*
Y60648D02*
X389431Y61072D01*
X389854Y61918D02*
Y62764D01*
Y62341D01*
X387315D01*
X387738Y61918D01*
X609681Y61072D02*
X607988D01*
X607565Y60648D01*
Y59802D01*
X607988Y59379D01*
X609681D01*
X610104Y59802D01*
Y60648D01*
X609257Y60225D02*
X610104Y61072D01*
Y60648D02*
X609681Y61072D01*
X610104Y63611D02*
Y61918D01*
X608411Y63611D01*
X607988D01*
X607565Y63187D01*
Y62341D01*
X607988Y61918D01*
X559431Y61072D02*
X557738D01*
X557315Y60648D01*
Y59802D01*
X557738Y59379D01*
X559431D01*
X559854Y59802D01*
Y60648D01*
X559007Y60225D02*
X559854Y61072D01*
Y60648D02*
X559431Y61072D01*
X559854Y61918D02*
Y62764D01*
Y62341D01*
X557315D01*
X557738Y61918D01*
X779681Y61072D02*
X777988D01*
X777565Y60648D01*
Y59802D01*
X777988Y59379D01*
X779681D01*
X780104Y59802D01*
Y60648D01*
X779257Y60225D02*
X780104Y61072D01*
Y60648D02*
X779681Y61072D01*
X780104Y63611D02*
Y61918D01*
X778411Y63611D01*
X777988D01*
X777565Y63187D01*
Y62341D01*
X777988Y61918D01*
X729431Y61072D02*
X727738D01*
X727315Y60648D01*
Y59802D01*
X727738Y59379D01*
X729431D01*
X729854Y59802D01*
Y60648D01*
X729007Y60225D02*
X729854Y61072D01*
Y60648D02*
X729431Y61072D01*
X729854Y61918D02*
Y62764D01*
Y62341D01*
X727315D01*
X727738Y61918D01*
X99681Y181071D02*
X97988D01*
X97565Y180648D01*
Y179802D01*
X97988Y179379D01*
X99681D01*
X100104Y179802D01*
Y180648D01*
X99257Y180225D02*
X100104Y181071D01*
Y180648D02*
X99681Y181071D01*
X100104Y183611D02*
Y181918D01*
X98411Y183611D01*
X97988D01*
X97565Y183188D01*
Y182341D01*
X97988Y181918D01*
X49431Y181071D02*
X47738D01*
X47315Y180648D01*
Y179802D01*
X47738Y179379D01*
X49431D01*
X49854Y179802D01*
Y180648D01*
X49007Y180225D02*
X49854Y181071D01*
Y180648D02*
X49431Y181071D01*
X49854Y181918D02*
Y182764D01*
Y182341D01*
X47315D01*
X47738Y181918D01*
X269681Y181071D02*
X267988D01*
X267565Y180648D01*
Y179802D01*
X267988Y179379D01*
X269681D01*
X270104Y179802D01*
Y180648D01*
X269257Y180225D02*
X270104Y181071D01*
Y180648D02*
X269681Y181071D01*
X270104Y183611D02*
Y181918D01*
X268411Y183611D01*
X267988D01*
X267565Y183188D01*
Y182341D01*
X267988Y181918D01*
X219431Y181071D02*
X217738D01*
X217315Y180648D01*
Y179802D01*
X217738Y179379D01*
X219431D01*
X219854Y179802D01*
Y180648D01*
X219007Y180225D02*
X219854Y181071D01*
Y180648D02*
X219431Y181071D01*
X219854Y181918D02*
Y182764D01*
Y182341D01*
X217315D01*
X217738Y181918D01*
X439681Y181071D02*
X437988D01*
X437565Y180648D01*
Y179802D01*
X437988Y179379D01*
X439681D01*
X440104Y179802D01*
Y180648D01*
X439257Y180225D02*
X440104Y181071D01*
Y180648D02*
X439681Y181071D01*
X440104Y183611D02*
Y181918D01*
X438411Y183611D01*
X437988D01*
X437565Y183188D01*
Y182341D01*
X437988Y181918D01*
X389431Y181071D02*
X387738D01*
X387315Y180648D01*
Y179802D01*
X387738Y179379D01*
X389431D01*
X389854Y179802D01*
Y180648D01*
X389007Y180225D02*
X389854Y181071D01*
Y180648D02*
X389431Y181071D01*
X389854Y181918D02*
Y182764D01*
Y182341D01*
X387315D01*
X387738Y181918D01*
X609681Y181071D02*
X607988D01*
X607565Y180648D01*
Y179802D01*
X607988Y179379D01*
X609681D01*
X610104Y179802D01*
Y180648D01*
X609257Y180225D02*
X610104Y181071D01*
Y180648D02*
X609681Y181071D01*
X610104Y183611D02*
Y181918D01*
X608411Y183611D01*
X607988D01*
X607565Y183188D01*
Y182341D01*
X607988Y181918D01*
X559431Y181071D02*
X557738D01*
X557315Y180648D01*
Y179802D01*
X557738Y179379D01*
X559431D01*
X559854Y179802D01*
Y180648D01*
X559007Y180225D02*
X559854Y181071D01*
Y180648D02*
X559431Y181071D01*
X559854Y181918D02*
Y182764D01*
Y182341D01*
X557315D01*
X557738Y181918D01*
X779681Y181071D02*
X777988D01*
X777565Y180648D01*
Y179802D01*
X777988Y179379D01*
X779681D01*
X780104Y179802D01*
Y180648D01*
X779257Y180225D02*
X780104Y181071D01*
Y180648D02*
X779681Y181071D01*
X780104Y183611D02*
Y181918D01*
X778411Y183611D01*
X777988D01*
X777565Y183188D01*
Y182341D01*
X777988Y181918D01*
X729431Y181071D02*
X727738D01*
X727315Y180648D01*
Y179802D01*
X727738Y179379D01*
X729431D01*
X729854Y179802D01*
Y180648D01*
X729007Y180225D02*
X729854Y181071D01*
Y180648D02*
X729431Y181071D01*
X729854Y181918D02*
Y182764D01*
Y182341D01*
X727315D01*
X727738Y181918D01*
X99681Y301071D02*
X97988D01*
X97565Y300648D01*
Y299802D01*
X97988Y299379D01*
X99681D01*
X100104Y299802D01*
Y300648D01*
X99257Y300225D02*
X100104Y301071D01*
Y300648D02*
X99681Y301071D01*
X100104Y303611D02*
Y301918D01*
X98411Y303611D01*
X97988D01*
X97565Y303188D01*
Y302341D01*
X97988Y301918D01*
X49431Y301071D02*
X47738D01*
X47315Y300648D01*
Y299802D01*
X47738Y299379D01*
X49431D01*
X49854Y299802D01*
Y300648D01*
X49007Y300225D02*
X49854Y301071D01*
Y300648D02*
X49431Y301071D01*
X49854Y301918D02*
Y302764D01*
Y302341D01*
X47315D01*
X47738Y301918D01*
X269681Y301071D02*
X267988D01*
X267565Y300648D01*
Y299802D01*
X267988Y299379D01*
X269681D01*
X270104Y299802D01*
Y300648D01*
X269257Y300225D02*
X270104Y301071D01*
Y300648D02*
X269681Y301071D01*
X270104Y303611D02*
Y301918D01*
X268411Y303611D01*
X267988D01*
X267565Y303188D01*
Y302341D01*
X267988Y301918D01*
X219431Y301071D02*
X217738D01*
X217315Y300648D01*
Y299802D01*
X217738Y299379D01*
X219431D01*
X219854Y299802D01*
Y300648D01*
X219007Y300225D02*
X219854Y301071D01*
Y300648D02*
X219431Y301071D01*
X219854Y301918D02*
Y302764D01*
Y302341D01*
X217315D01*
X217738Y301918D01*
X439681Y301071D02*
X437988D01*
X437565Y300648D01*
Y299802D01*
X437988Y299379D01*
X439681D01*
X440104Y299802D01*
Y300648D01*
X439257Y300225D02*
X440104Y301071D01*
Y300648D02*
X439681Y301071D01*
X440104Y303611D02*
Y301918D01*
X438411Y303611D01*
X437988D01*
X437565Y303188D01*
Y302341D01*
X437988Y301918D01*
X389431Y301071D02*
X387738D01*
X387315Y300648D01*
Y299802D01*
X387738Y299379D01*
X389431D01*
X389854Y299802D01*
Y300648D01*
X389007Y300225D02*
X389854Y301071D01*
Y300648D02*
X389431Y301071D01*
X389854Y301918D02*
Y302764D01*
Y302341D01*
X387315D01*
X387738Y301918D01*
X609681Y301071D02*
X607988D01*
X607565Y300648D01*
Y299802D01*
X607988Y299379D01*
X609681D01*
X610104Y299802D01*
Y300648D01*
X609257Y300225D02*
X610104Y301071D01*
Y300648D02*
X609681Y301071D01*
X610104Y303611D02*
Y301918D01*
X608411Y303611D01*
X607988D01*
X607565Y303188D01*
Y302341D01*
X607988Y301918D01*
X559431Y301071D02*
X557738D01*
X557315Y300648D01*
Y299802D01*
X557738Y299379D01*
X559431D01*
X559854Y299802D01*
Y300648D01*
X559007Y300225D02*
X559854Y301071D01*
Y300648D02*
X559431Y301071D01*
X559854Y301918D02*
Y302764D01*
Y302341D01*
X557315D01*
X557738Y301918D01*
X779681Y301071D02*
X777988D01*
X777565Y300648D01*
Y299802D01*
X777988Y299379D01*
X779681D01*
X780104Y299802D01*
Y300648D01*
X779257Y300225D02*
X780104Y301071D01*
Y300648D02*
X779681Y301071D01*
X780104Y303611D02*
Y301918D01*
X778411Y303611D01*
X777988D01*
X777565Y303188D01*
Y302341D01*
X777988Y301918D01*
X729431Y301071D02*
X727738D01*
X727315Y300648D01*
Y299802D01*
X727738Y299379D01*
X729431D01*
X729854Y299802D01*
Y300648D01*
X729007Y300225D02*
X729854Y301071D01*
Y300648D02*
X729431Y301071D01*
X729854Y301918D02*
Y302764D01*
Y302341D01*
X727315D01*
X727738Y301918D01*
X99681Y421071D02*
X97988D01*
X97565Y420648D01*
Y419802D01*
X97988Y419379D01*
X99681D01*
X100104Y419802D01*
Y420648D01*
X99257Y420225D02*
X100104Y421071D01*
Y420648D02*
X99681Y421071D01*
X100104Y423611D02*
Y421918D01*
X98411Y423611D01*
X97988D01*
X97565Y423187D01*
Y422341D01*
X97988Y421918D01*
X49431Y421072D02*
X47738D01*
X47315Y420648D01*
Y419802D01*
X47738Y419379D01*
X49431D01*
X49854Y419802D01*
Y420648D01*
X49007Y420225D02*
X49854Y421072D01*
Y420648D02*
X49431Y421072D01*
X49854Y421918D02*
Y422764D01*
Y422341D01*
X47315D01*
X47738Y421918D01*
X269681Y421071D02*
X267988D01*
X267565Y420648D01*
Y419802D01*
X267988Y419379D01*
X269681D01*
X270104Y419802D01*
Y420648D01*
X269257Y420225D02*
X270104Y421071D01*
Y420648D02*
X269681Y421071D01*
X270104Y423611D02*
Y421918D01*
X268411Y423611D01*
X267988D01*
X267565Y423187D01*
Y422341D01*
X267988Y421918D01*
X219431Y421072D02*
X217738D01*
X217315Y420648D01*
Y419802D01*
X217738Y419379D01*
X219431D01*
X219854Y419802D01*
Y420648D01*
X219007Y420225D02*
X219854Y421072D01*
Y420648D02*
X219431Y421072D01*
X219854Y421918D02*
Y422764D01*
Y422341D01*
X217315D01*
X217738Y421918D01*
X439681Y421071D02*
X437988D01*
X437565Y420648D01*
Y419802D01*
X437988Y419379D01*
X439681D01*
X440104Y419802D01*
Y420648D01*
X439257Y420225D02*
X440104Y421071D01*
Y420648D02*
X439681Y421071D01*
X440104Y423611D02*
Y421918D01*
X438411Y423611D01*
X437988D01*
X437565Y423187D01*
Y422341D01*
X437988Y421918D01*
X389431Y421072D02*
X387738D01*
X387315Y420648D01*
Y419802D01*
X387738Y419379D01*
X389431D01*
X389854Y419802D01*
Y420648D01*
X389007Y420225D02*
X389854Y421072D01*
Y420648D02*
X389431Y421072D01*
X389854Y421918D02*
Y422764D01*
Y422341D01*
X387315D01*
X387738Y421918D01*
X609681Y421071D02*
X607988D01*
X607565Y420648D01*
Y419802D01*
X607988Y419379D01*
X609681D01*
X610104Y419802D01*
Y420648D01*
X609257Y420225D02*
X610104Y421071D01*
Y420648D02*
X609681Y421071D01*
X610104Y423611D02*
Y421918D01*
X608411Y423611D01*
X607988D01*
X607565Y423187D01*
Y422341D01*
X607988Y421918D01*
X559431Y421072D02*
X557738D01*
X557315Y420648D01*
Y419802D01*
X557738Y419379D01*
X559431D01*
X559854Y419802D01*
Y420648D01*
X559007Y420225D02*
X559854Y421072D01*
Y420648D02*
X559431Y421072D01*
X559854Y421918D02*
Y422764D01*
Y422341D01*
X557315D01*
X557738Y421918D01*
X779681Y421071D02*
X777988D01*
X777565Y420648D01*
Y419802D01*
X777988Y419379D01*
X779681D01*
X780104Y419802D01*
Y420648D01*
X779257Y420225D02*
X780104Y421071D01*
Y420648D02*
X779681Y421071D01*
X780104Y423611D02*
Y421918D01*
X778411Y423611D01*
X777988D01*
X777565Y423187D01*
Y422341D01*
X777988Y421918D01*
X729431Y421072D02*
X727738D01*
X727315Y420648D01*
Y419802D01*
X727738Y419379D01*
X729431D01*
X729854Y419802D01*
Y420648D01*
X729007Y420225D02*
X729854Y421072D01*
Y420648D02*
X729431Y421072D01*
X729854Y421918D02*
Y422764D01*
Y422341D01*
X727315D01*
X727738Y421918D01*
X99681Y541071D02*
X97988D01*
X97565Y540648D01*
Y539802D01*
X97988Y539379D01*
X99681D01*
X100104Y539802D01*
Y540648D01*
X99257Y540225D02*
X100104Y541071D01*
Y540648D02*
X99681Y541071D01*
X100104Y543611D02*
Y541918D01*
X98411Y543611D01*
X97988D01*
X97565Y543187D01*
Y542341D01*
X97988Y541918D01*
X49431Y541072D02*
X47738D01*
X47315Y540648D01*
Y539802D01*
X47738Y539379D01*
X49431D01*
X49854Y539802D01*
Y540648D01*
X49007Y540225D02*
X49854Y541072D01*
Y540648D02*
X49431Y541072D01*
X49854Y541918D02*
Y542764D01*
Y542341D01*
X47315D01*
X47738Y541918D01*
X269681Y541071D02*
X267988D01*
X267565Y540648D01*
Y539802D01*
X267988Y539379D01*
X269681D01*
X270104Y539802D01*
Y540648D01*
X269257Y540225D02*
X270104Y541071D01*
Y540648D02*
X269681Y541071D01*
X270104Y543611D02*
Y541918D01*
X268411Y543611D01*
X267988D01*
X267565Y543187D01*
Y542341D01*
X267988Y541918D01*
X219431Y541072D02*
X217738D01*
X217315Y540648D01*
Y539802D01*
X217738Y539379D01*
X219431D01*
X219854Y539802D01*
Y540648D01*
X219007Y540225D02*
X219854Y541072D01*
Y540648D02*
X219431Y541072D01*
X219854Y541918D02*
Y542764D01*
Y542341D01*
X217315D01*
X217738Y541918D01*
X439681Y541071D02*
X437988D01*
X437565Y540648D01*
Y539802D01*
X437988Y539379D01*
X439681D01*
X440104Y539802D01*
Y540648D01*
X439257Y540225D02*
X440104Y541071D01*
Y540648D02*
X439681Y541071D01*
X440104Y543611D02*
Y541918D01*
X438411Y543611D01*
X437988D01*
X437565Y543187D01*
Y542341D01*
X437988Y541918D01*
X389431Y541072D02*
X387738D01*
X387315Y540648D01*
Y539802D01*
X387738Y539379D01*
X389431D01*
X389854Y539802D01*
Y540648D01*
X389007Y540225D02*
X389854Y541072D01*
Y540648D02*
X389431Y541072D01*
X389854Y541918D02*
Y542764D01*
Y542341D01*
X387315D01*
X387738Y541918D01*
X609681Y541071D02*
X607988D01*
X607565Y540648D01*
Y539802D01*
X607988Y539379D01*
X609681D01*
X610104Y539802D01*
Y540648D01*
X609257Y540225D02*
X610104Y541071D01*
Y540648D02*
X609681Y541071D01*
X610104Y543611D02*
Y541918D01*
X608411Y543611D01*
X607988D01*
X607565Y543187D01*
Y542341D01*
X607988Y541918D01*
X559431Y541072D02*
X557738D01*
X557315Y540648D01*
Y539802D01*
X557738Y539379D01*
X559431D01*
X559854Y539802D01*
Y540648D01*
X559007Y540225D02*
X559854Y541072D01*
Y540648D02*
X559431Y541072D01*
X559854Y541918D02*
Y542764D01*
Y542341D01*
X557315D01*
X557738Y541918D01*
X779681Y541071D02*
X777988D01*
X777565Y540648D01*
Y539802D01*
X777988Y539379D01*
X779681D01*
X780104Y539802D01*
Y540648D01*
X779257Y540225D02*
X780104Y541071D01*
Y540648D02*
X779681Y541071D01*
X780104Y543611D02*
Y541918D01*
X778411Y543611D01*
X777988D01*
X777565Y543187D01*
Y542341D01*
X777988Y541918D01*
X729431Y541072D02*
X727738D01*
X727315Y540648D01*
Y539802D01*
X727738Y539379D01*
X729431D01*
X729854Y539802D01*
Y540648D01*
X729007Y540225D02*
X729854Y541072D01*
Y540648D02*
X729431Y541072D01*
X729854Y541918D02*
Y542764D01*
Y542341D01*
X727315D01*
X727738Y541918D01*
M02*
