G04*
G04 #@! TF.GenerationSoftware,Altium Limited,Altium Designer,23.7.1 (13)*
G04*
G04 Layer_Physical_Order=1*
G04 Layer_Color=255*
%FSLAX44Y44*%
%MOMM*%
G71*
G04*
G04 #@! TF.SameCoordinates,565FC65D-8D52-4A7D-9B4B-E9A53F5C2DB2*
G04*
G04*
G04 #@! TF.FilePolarity,Positive*
G04*
G01*
G75*
%ADD10C,1.0000*%
%ADD11R,1.6000X0.6000*%
%ADD12R,0.8000X0.7500*%
%ADD13R,0.7500X0.8000*%
%ADD14C,0.5000*%
%ADD15C,2.0000*%
%ADD16R,1.8796X1.8796*%
%ADD17C,1.8796*%
%ADD18C,0.6000*%
D10*
X787250Y-60000D02*
D03*
X40000Y-64000D02*
D03*
Y658750D02*
D03*
X759250Y639750D02*
D03*
D11*
X90305Y68152D02*
D03*
X108305Y77652D02*
D03*
X108305Y58652D02*
D03*
X40055Y68152D02*
D03*
X58055Y77652D02*
D03*
Y58652D02*
D03*
X260305Y68152D02*
D03*
X278305Y77652D02*
D03*
X278305Y58652D02*
D03*
X210055Y68152D02*
D03*
X228055Y77652D02*
D03*
Y58652D02*
D03*
X430305Y68152D02*
D03*
X448305Y77652D02*
D03*
X448305Y58652D02*
D03*
X380055Y68152D02*
D03*
X398055Y77652D02*
D03*
Y58652D02*
D03*
X600305Y68152D02*
D03*
X618305Y77652D02*
D03*
X618305Y58652D02*
D03*
X550055Y68152D02*
D03*
X568055Y77652D02*
D03*
Y58652D02*
D03*
X770305Y68152D02*
D03*
X788305Y77652D02*
D03*
X788305Y58652D02*
D03*
X720055Y68152D02*
D03*
X738055Y77652D02*
D03*
Y58652D02*
D03*
X90305Y188152D02*
D03*
X108305Y197652D02*
D03*
X108305Y178652D02*
D03*
X40055Y188152D02*
D03*
X58055Y197652D02*
D03*
Y178652D02*
D03*
X260305Y188152D02*
D03*
X278305Y197652D02*
D03*
X278305Y178652D02*
D03*
X210055Y188152D02*
D03*
X228055Y197652D02*
D03*
Y178652D02*
D03*
X430305Y188152D02*
D03*
X448305Y197652D02*
D03*
X448305Y178652D02*
D03*
X380055Y188152D02*
D03*
X398055Y197652D02*
D03*
Y178652D02*
D03*
X600305Y188152D02*
D03*
X618305Y197652D02*
D03*
X618305Y178652D02*
D03*
X550055Y188152D02*
D03*
X568055Y197652D02*
D03*
Y178652D02*
D03*
X770305Y188152D02*
D03*
X788305Y197652D02*
D03*
X788305Y178652D02*
D03*
X720055Y188152D02*
D03*
X738055Y197652D02*
D03*
Y178652D02*
D03*
X90305Y308152D02*
D03*
X108305Y317652D02*
D03*
X108305Y298652D02*
D03*
X40055Y308152D02*
D03*
X58055Y317652D02*
D03*
Y298652D02*
D03*
X260305Y308152D02*
D03*
X278305Y317652D02*
D03*
X278305Y298652D02*
D03*
X210055Y308152D02*
D03*
X228055Y317652D02*
D03*
Y298652D02*
D03*
X430305Y308152D02*
D03*
X448305Y317652D02*
D03*
X448305Y298652D02*
D03*
X380055Y308152D02*
D03*
X398055Y317652D02*
D03*
Y298652D02*
D03*
X600305Y308152D02*
D03*
X618305Y317652D02*
D03*
X618305Y298652D02*
D03*
X550055Y308152D02*
D03*
X568055Y317652D02*
D03*
Y298652D02*
D03*
X770305Y308152D02*
D03*
X788305Y317652D02*
D03*
X788305Y298652D02*
D03*
X720055Y308152D02*
D03*
X738055Y317652D02*
D03*
Y298652D02*
D03*
X90305Y428152D02*
D03*
X108305Y437652D02*
D03*
X108305Y418652D02*
D03*
X40055Y428152D02*
D03*
X58055Y437652D02*
D03*
Y418652D02*
D03*
X260305Y428152D02*
D03*
X278305Y437652D02*
D03*
X278305Y418652D02*
D03*
X210055Y428152D02*
D03*
X228055Y437652D02*
D03*
Y418652D02*
D03*
X430305Y428152D02*
D03*
X448305Y437652D02*
D03*
X448305Y418652D02*
D03*
X380055Y428152D02*
D03*
X398055Y437652D02*
D03*
Y418652D02*
D03*
X600305Y428152D02*
D03*
X618305Y437652D02*
D03*
X618305Y418652D02*
D03*
X550055Y428152D02*
D03*
X568055Y437652D02*
D03*
Y418652D02*
D03*
X770305Y428152D02*
D03*
X788305Y437652D02*
D03*
X788305Y418652D02*
D03*
X720055Y428152D02*
D03*
X738055Y437652D02*
D03*
Y418652D02*
D03*
X90305Y548152D02*
D03*
X108305Y557652D02*
D03*
X108305Y538652D02*
D03*
X40055Y548152D02*
D03*
X58055Y557652D02*
D03*
Y538652D02*
D03*
X260305Y548152D02*
D03*
X278305Y557652D02*
D03*
X278305Y538652D02*
D03*
X210055Y548152D02*
D03*
X228055Y557652D02*
D03*
Y538652D02*
D03*
X430305Y548152D02*
D03*
X448305Y557652D02*
D03*
X448305Y538652D02*
D03*
X380055Y548152D02*
D03*
X398055Y557652D02*
D03*
Y538652D02*
D03*
X600305Y548152D02*
D03*
X618305Y557652D02*
D03*
X618305Y538652D02*
D03*
X550055Y548152D02*
D03*
X568055Y557652D02*
D03*
Y538652D02*
D03*
X770305Y548152D02*
D03*
X788305Y557652D02*
D03*
X788305Y538652D02*
D03*
X720055Y548152D02*
D03*
X738055Y557652D02*
D03*
Y538652D02*
D03*
D12*
X56555Y97902D02*
D03*
X41555D02*
D03*
X90305D02*
D03*
X75305D02*
D03*
X226555D02*
D03*
X211555D02*
D03*
X260305D02*
D03*
X245305D02*
D03*
X396555D02*
D03*
X381555D02*
D03*
X430305D02*
D03*
X415305D02*
D03*
X566555D02*
D03*
X551555D02*
D03*
X600305D02*
D03*
X585305D02*
D03*
X736555D02*
D03*
X721555D02*
D03*
X770305D02*
D03*
X755305D02*
D03*
X56555Y217902D02*
D03*
X41555D02*
D03*
X90305D02*
D03*
X75305D02*
D03*
X226555D02*
D03*
X211555D02*
D03*
X260305D02*
D03*
X245305D02*
D03*
X396555D02*
D03*
X381555D02*
D03*
X430305D02*
D03*
X415305D02*
D03*
X566555D02*
D03*
X551555D02*
D03*
X600305D02*
D03*
X585305D02*
D03*
X736555D02*
D03*
X721555D02*
D03*
X770305D02*
D03*
X755305D02*
D03*
X56555Y337902D02*
D03*
X41555D02*
D03*
X90305D02*
D03*
X75305D02*
D03*
X226555D02*
D03*
X211555D02*
D03*
X260305D02*
D03*
X245305D02*
D03*
X396555D02*
D03*
X381555D02*
D03*
X430305D02*
D03*
X415305D02*
D03*
X566555D02*
D03*
X551555D02*
D03*
X600305D02*
D03*
X585305D02*
D03*
X736555D02*
D03*
X721555D02*
D03*
X770305D02*
D03*
X755305D02*
D03*
X56555Y457902D02*
D03*
X41555D02*
D03*
X90305D02*
D03*
X75305D02*
D03*
X226555D02*
D03*
X211555D02*
D03*
X260305D02*
D03*
X245305D02*
D03*
X396555D02*
D03*
X381555D02*
D03*
X430305D02*
D03*
X415305D02*
D03*
X566555D02*
D03*
X551555D02*
D03*
X600305D02*
D03*
X585305D02*
D03*
X736555D02*
D03*
X721555D02*
D03*
X770305D02*
D03*
X755305D02*
D03*
X56555Y577902D02*
D03*
X41555D02*
D03*
X90305D02*
D03*
X75305D02*
D03*
X226555D02*
D03*
X211555D02*
D03*
X260305D02*
D03*
X245305D02*
D03*
X396555D02*
D03*
X381555D02*
D03*
X430305D02*
D03*
X415305D02*
D03*
X566555D02*
D03*
X551555D02*
D03*
X600305D02*
D03*
X585305D02*
D03*
X736555D02*
D03*
X721555D02*
D03*
X770305D02*
D03*
X755305D02*
D03*
D13*
X19555Y83152D02*
D03*
Y68152D02*
D03*
X189555Y83152D02*
D03*
Y68152D02*
D03*
X359555Y83152D02*
D03*
Y68152D02*
D03*
X529555Y83152D02*
D03*
Y68152D02*
D03*
X699555Y83152D02*
D03*
Y68152D02*
D03*
X19555Y203152D02*
D03*
Y188152D02*
D03*
X189555Y203152D02*
D03*
Y188152D02*
D03*
X359555Y203152D02*
D03*
Y188152D02*
D03*
X529555Y203152D02*
D03*
Y188152D02*
D03*
X699555Y203152D02*
D03*
Y188152D02*
D03*
X19555Y323152D02*
D03*
Y308152D02*
D03*
X189555Y323152D02*
D03*
Y308152D02*
D03*
X359555Y323152D02*
D03*
Y308152D02*
D03*
X529555Y323152D02*
D03*
Y308152D02*
D03*
X699555Y323152D02*
D03*
Y308152D02*
D03*
X19555Y443152D02*
D03*
Y428152D02*
D03*
X189555Y443152D02*
D03*
Y428152D02*
D03*
X359555Y443152D02*
D03*
Y428152D02*
D03*
X529555Y443152D02*
D03*
Y428152D02*
D03*
X699555Y443152D02*
D03*
Y428152D02*
D03*
X19555Y563152D02*
D03*
Y548152D02*
D03*
X189555Y563152D02*
D03*
Y548152D02*
D03*
X359555Y563152D02*
D03*
Y548152D02*
D03*
X529555Y563152D02*
D03*
Y548152D02*
D03*
X699555Y563152D02*
D03*
Y548152D02*
D03*
D14*
X41652Y58652D02*
X58055D01*
X19450Y25250D02*
X22219Y28019D01*
Y39219D01*
X41652Y58652D01*
X19555Y49695D02*
X19750Y49500D01*
X19555Y49695D02*
Y68152D01*
X95650Y25250D02*
X130250Y59850D01*
Y103500D01*
X124000Y109750D02*
X130250Y103500D01*
X53152Y51152D02*
X85152D01*
X44850Y42850D02*
X53152Y51152D01*
X44850Y25250D02*
Y42850D01*
X85152Y51152D02*
X92652Y58652D01*
X108305D01*
X58055Y58652D02*
X70652D01*
X75305Y63305D01*
Y97902D01*
X19555Y68152D02*
X40055D01*
X56555Y97902D02*
X75305D01*
X90305Y68152D02*
Y97902D01*
X19555Y83152D02*
Y93055D01*
X24402Y97902D01*
X41555D01*
Y106305D01*
X45000Y109750D01*
X108402Y77750D02*
Y85652D01*
X108305Y77652D02*
X108402Y77750D01*
X45000Y109750D02*
X124000D01*
X58055Y77652D02*
Y86055D01*
X211652Y58652D02*
X228055D01*
X189450Y25250D02*
X192219Y28019D01*
Y39219D01*
X211652Y58652D01*
X189555Y49695D02*
X189750Y49500D01*
X189555Y49695D02*
Y68152D01*
X265650Y25250D02*
X300250Y59850D01*
Y103500D01*
X294000Y109750D02*
X300250Y103500D01*
X223152Y51152D02*
X255152D01*
X214850Y42850D02*
X223152Y51152D01*
X214850Y25250D02*
Y42850D01*
X255152Y51152D02*
X262652Y58652D01*
X278305D01*
X228055Y58652D02*
X240652D01*
X245305Y63305D01*
Y97902D01*
X189555Y68152D02*
X210055D01*
X226555Y97902D02*
X245305D01*
X260305Y68152D02*
Y97902D01*
X189555Y83152D02*
Y93055D01*
X194402Y97902D01*
X211555D01*
Y106305D01*
X215000Y109750D01*
X278402Y77750D02*
Y85652D01*
X278305Y77652D02*
X278402Y77750D01*
X215000Y109750D02*
X294000D01*
X228055Y77652D02*
Y86055D01*
X381652Y58652D02*
X398055D01*
X359450Y25250D02*
X362219Y28019D01*
Y39219D01*
X381652Y58652D01*
X359555Y49695D02*
X359750Y49500D01*
X359555Y49695D02*
Y68152D01*
X435650Y25250D02*
X470250Y59850D01*
Y103500D01*
X464000Y109750D02*
X470250Y103500D01*
X393152Y51152D02*
X425152D01*
X384850Y42850D02*
X393152Y51152D01*
X384850Y25250D02*
Y42850D01*
X425152Y51152D02*
X432652Y58652D01*
X448305D01*
X398055Y58652D02*
X410652D01*
X415305Y63305D01*
Y97902D01*
X359555Y68152D02*
X380055D01*
X396555Y97902D02*
X415305D01*
X430305Y68152D02*
Y97902D01*
X359555Y83152D02*
Y93055D01*
X364402Y97902D01*
X381555D01*
Y106305D01*
X385000Y109750D01*
X448402Y77750D02*
Y85652D01*
X448305Y77652D02*
X448402Y77750D01*
X385000Y109750D02*
X464000D01*
X398055Y77652D02*
Y86055D01*
X551652Y58652D02*
X568055D01*
X529450Y25250D02*
X532219Y28019D01*
Y39219D01*
X551652Y58652D01*
X529555Y49695D02*
X529750Y49500D01*
X529555Y49695D02*
Y68152D01*
X605650Y25250D02*
X640250Y59850D01*
Y103500D01*
X634000Y109750D02*
X640250Y103500D01*
X563152Y51152D02*
X595152D01*
X554850Y42850D02*
X563152Y51152D01*
X554850Y25250D02*
Y42850D01*
X595152Y51152D02*
X602652Y58652D01*
X618305D01*
X568055Y58652D02*
X580652D01*
X585305Y63305D01*
Y97902D01*
X529555Y68152D02*
X550055D01*
X566555Y97902D02*
X585305D01*
X600305Y68152D02*
Y97902D01*
X529555Y83152D02*
Y93055D01*
X534402Y97902D01*
X551555D01*
Y106305D01*
X555000Y109750D01*
X618402Y77750D02*
Y85652D01*
X618305Y77652D02*
X618402Y77750D01*
X555000Y109750D02*
X634000D01*
X568055Y77652D02*
Y86055D01*
X721652Y58652D02*
X738055D01*
X699450Y25250D02*
X702219Y28019D01*
Y39219D01*
X721652Y58652D01*
X699555Y49695D02*
X699750Y49500D01*
X699555Y49695D02*
Y68152D01*
X775650Y25250D02*
X810250Y59850D01*
Y103500D01*
X804000Y109750D02*
X810250Y103500D01*
X733152Y51152D02*
X765152D01*
X724850Y42850D02*
X733152Y51152D01*
X724850Y25250D02*
Y42850D01*
X765152Y51152D02*
X772652Y58652D01*
X788305D01*
X738055Y58652D02*
X750652D01*
X755305Y63305D01*
Y97902D01*
X699555Y68152D02*
X720055D01*
X736555Y97902D02*
X755305D01*
X770305Y68152D02*
Y97902D01*
X699555Y83152D02*
Y93055D01*
X704402Y97902D01*
X721555D01*
Y106305D01*
X725000Y109750D01*
X788402Y77750D02*
Y85652D01*
X788305Y77652D02*
X788402Y77750D01*
X725000Y109750D02*
X804000D01*
X738055Y77652D02*
Y86055D01*
X41652Y178652D02*
X58055D01*
X19450Y145250D02*
X22219Y148019D01*
Y159219D01*
X41652Y178652D01*
X19555Y169695D02*
X19750Y169500D01*
X19555Y169695D02*
Y188152D01*
X95650Y145250D02*
X130250Y179850D01*
Y223500D01*
X124000Y229750D02*
X130250Y223500D01*
X53152Y171152D02*
X85152D01*
X44850Y162850D02*
X53152Y171152D01*
X44850Y145250D02*
Y162850D01*
X85152Y171152D02*
X92652Y178652D01*
X108305D01*
X58055Y178652D02*
X70652D01*
X75305Y183305D01*
Y217902D01*
X19555Y188152D02*
X40055D01*
X56555Y217902D02*
X75305D01*
X90305Y188152D02*
Y217902D01*
X19555Y203152D02*
Y213055D01*
X24402Y217902D01*
X41555D01*
Y226305D01*
X45000Y229750D01*
X108402Y197750D02*
Y205652D01*
X108305Y197652D02*
X108402Y197750D01*
X45000Y229750D02*
X124000D01*
X58055Y197652D02*
Y206055D01*
X211652Y178652D02*
X228055D01*
X189450Y145250D02*
X192219Y148019D01*
Y159219D01*
X211652Y178652D01*
X189555Y169695D02*
X189750Y169500D01*
X189555Y169695D02*
Y188152D01*
X265650Y145250D02*
X300250Y179850D01*
Y223500D01*
X294000Y229750D02*
X300250Y223500D01*
X223152Y171152D02*
X255152D01*
X214850Y162850D02*
X223152Y171152D01*
X214850Y145250D02*
Y162850D01*
X255152Y171152D02*
X262652Y178652D01*
X278305D01*
X228055Y178652D02*
X240652D01*
X245305Y183305D01*
Y217902D01*
X189555Y188152D02*
X210055D01*
X226555Y217902D02*
X245305D01*
X260305Y188152D02*
Y217902D01*
X189555Y203152D02*
Y213055D01*
X194402Y217902D01*
X211555D01*
Y226305D01*
X215000Y229750D01*
X278402Y197750D02*
Y205652D01*
X278305Y197652D02*
X278402Y197750D01*
X215000Y229750D02*
X294000D01*
X228055Y197652D02*
Y206055D01*
X381652Y178652D02*
X398055D01*
X359450Y145250D02*
X362219Y148019D01*
Y159219D01*
X381652Y178652D01*
X359555Y169695D02*
X359750Y169500D01*
X359555Y169695D02*
Y188152D01*
X435650Y145250D02*
X470250Y179850D01*
Y223500D01*
X464000Y229750D02*
X470250Y223500D01*
X393152Y171152D02*
X425152D01*
X384850Y162850D02*
X393152Y171152D01*
X384850Y145250D02*
Y162850D01*
X425152Y171152D02*
X432652Y178652D01*
X448305D01*
X398055Y178652D02*
X410652D01*
X415305Y183305D01*
Y217902D01*
X359555Y188152D02*
X380055D01*
X396555Y217902D02*
X415305D01*
X430305Y188152D02*
Y217902D01*
X359555Y203152D02*
Y213055D01*
X364402Y217902D01*
X381555D01*
Y226305D01*
X385000Y229750D01*
X448402Y197750D02*
Y205652D01*
X448305Y197652D02*
X448402Y197750D01*
X385000Y229750D02*
X464000D01*
X398055Y197652D02*
Y206055D01*
X551652Y178652D02*
X568055D01*
X529450Y145250D02*
X532219Y148019D01*
Y159219D01*
X551652Y178652D01*
X529555Y169695D02*
X529750Y169500D01*
X529555Y169695D02*
Y188152D01*
X605650Y145250D02*
X640250Y179850D01*
Y223500D01*
X634000Y229750D02*
X640250Y223500D01*
X563152Y171152D02*
X595152D01*
X554850Y162850D02*
X563152Y171152D01*
X554850Y145250D02*
Y162850D01*
X595152Y171152D02*
X602652Y178652D01*
X618305D01*
X568055Y178652D02*
X580652D01*
X585305Y183305D01*
Y217902D01*
X529555Y188152D02*
X550055D01*
X566555Y217902D02*
X585305D01*
X600305Y188152D02*
Y217902D01*
X529555Y203152D02*
Y213055D01*
X534402Y217902D01*
X551555D01*
Y226305D01*
X555000Y229750D01*
X618402Y197750D02*
Y205652D01*
X618305Y197652D02*
X618402Y197750D01*
X555000Y229750D02*
X634000D01*
X568055Y197652D02*
Y206055D01*
X721652Y178652D02*
X738055D01*
X699450Y145250D02*
X702219Y148019D01*
Y159219D01*
X721652Y178652D01*
X699555Y169695D02*
X699750Y169500D01*
X699555Y169695D02*
Y188152D01*
X775650Y145250D02*
X810250Y179850D01*
Y223500D01*
X804000Y229750D02*
X810250Y223500D01*
X733152Y171152D02*
X765152D01*
X724850Y162850D02*
X733152Y171152D01*
X724850Y145250D02*
Y162850D01*
X765152Y171152D02*
X772652Y178652D01*
X788305D01*
X738055Y178652D02*
X750652D01*
X755305Y183305D01*
Y217902D01*
X699555Y188152D02*
X720055D01*
X736555Y217902D02*
X755305D01*
X770305Y188152D02*
Y217902D01*
X699555Y203152D02*
Y213055D01*
X704402Y217902D01*
X721555D01*
Y226305D01*
X725000Y229750D01*
X788402Y197750D02*
Y205652D01*
X788305Y197652D02*
X788402Y197750D01*
X725000Y229750D02*
X804000D01*
X738055Y197652D02*
Y206055D01*
X41652Y298652D02*
X58055D01*
X19450Y265250D02*
X22219Y268019D01*
Y279219D01*
X41652Y298652D01*
X19555Y289695D02*
X19750Y289500D01*
X19555Y289695D02*
Y308152D01*
X95650Y265250D02*
X130250Y299850D01*
Y343500D01*
X124000Y349750D02*
X130250Y343500D01*
X53152Y291152D02*
X85152D01*
X44850Y282850D02*
X53152Y291152D01*
X44850Y265250D02*
Y282850D01*
X85152Y291152D02*
X92652Y298652D01*
X108305D01*
X58055Y298652D02*
X70652D01*
X75305Y303305D01*
Y337902D01*
X19555Y308152D02*
X40055D01*
X56555Y337902D02*
X75305D01*
X90305Y308152D02*
Y337902D01*
X19555Y323152D02*
Y333055D01*
X24402Y337902D01*
X41555D01*
Y346305D01*
X45000Y349750D01*
X108402Y317750D02*
Y325652D01*
X108305Y317652D02*
X108402Y317750D01*
X45000Y349750D02*
X124000D01*
X58055Y317652D02*
Y326055D01*
X211652Y298652D02*
X228055D01*
X189450Y265250D02*
X192219Y268019D01*
Y279219D01*
X211652Y298652D01*
X189555Y289695D02*
X189750Y289500D01*
X189555Y289695D02*
Y308152D01*
X265650Y265250D02*
X300250Y299850D01*
Y343500D01*
X294000Y349750D02*
X300250Y343500D01*
X223152Y291152D02*
X255152D01*
X214850Y282850D02*
X223152Y291152D01*
X214850Y265250D02*
Y282850D01*
X255152Y291152D02*
X262652Y298652D01*
X278305D01*
X228055Y298652D02*
X240652D01*
X245305Y303305D01*
Y337902D01*
X189555Y308152D02*
X210055D01*
X226555Y337902D02*
X245305D01*
X260305Y308152D02*
Y337902D01*
X189555Y323152D02*
Y333055D01*
X194402Y337902D01*
X211555D01*
Y346305D01*
X215000Y349750D01*
X278402Y317750D02*
Y325652D01*
X278305Y317652D02*
X278402Y317750D01*
X215000Y349750D02*
X294000D01*
X228055Y317652D02*
Y326055D01*
X381652Y298652D02*
X398055D01*
X359450Y265250D02*
X362219Y268019D01*
Y279219D01*
X381652Y298652D01*
X359555Y289695D02*
X359750Y289500D01*
X359555Y289695D02*
Y308152D01*
X435650Y265250D02*
X470250Y299850D01*
Y343500D01*
X464000Y349750D02*
X470250Y343500D01*
X393152Y291152D02*
X425152D01*
X384850Y282850D02*
X393152Y291152D01*
X384850Y265250D02*
Y282850D01*
X425152Y291152D02*
X432652Y298652D01*
X448305D01*
X398055Y298652D02*
X410652D01*
X415305Y303305D01*
Y337902D01*
X359555Y308152D02*
X380055D01*
X396555Y337902D02*
X415305D01*
X430305Y308152D02*
Y337902D01*
X359555Y323152D02*
Y333055D01*
X364402Y337902D01*
X381555D01*
Y346305D01*
X385000Y349750D01*
X448402Y317750D02*
Y325652D01*
X448305Y317652D02*
X448402Y317750D01*
X385000Y349750D02*
X464000D01*
X398055Y317652D02*
Y326055D01*
X551652Y298652D02*
X568055D01*
X529450Y265250D02*
X532219Y268019D01*
Y279219D01*
X551652Y298652D01*
X529555Y289695D02*
X529750Y289500D01*
X529555Y289695D02*
Y308152D01*
X605650Y265250D02*
X640250Y299850D01*
Y343500D01*
X634000Y349750D02*
X640250Y343500D01*
X563152Y291152D02*
X595152D01*
X554850Y282850D02*
X563152Y291152D01*
X554850Y265250D02*
Y282850D01*
X595152Y291152D02*
X602652Y298652D01*
X618305D01*
X568055Y298652D02*
X580652D01*
X585305Y303305D01*
Y337902D01*
X529555Y308152D02*
X550055D01*
X566555Y337902D02*
X585305D01*
X600305Y308152D02*
Y337902D01*
X529555Y323152D02*
Y333055D01*
X534402Y337902D01*
X551555D01*
Y346305D01*
X555000Y349750D01*
X618402Y317750D02*
Y325652D01*
X618305Y317652D02*
X618402Y317750D01*
X555000Y349750D02*
X634000D01*
X568055Y317652D02*
Y326055D01*
X721652Y298652D02*
X738055D01*
X699450Y265250D02*
X702219Y268019D01*
Y279219D01*
X721652Y298652D01*
X699555Y289695D02*
X699750Y289500D01*
X699555Y289695D02*
Y308152D01*
X775650Y265250D02*
X810250Y299850D01*
Y343500D01*
X804000Y349750D02*
X810250Y343500D01*
X733152Y291152D02*
X765152D01*
X724850Y282850D02*
X733152Y291152D01*
X724850Y265250D02*
Y282850D01*
X765152Y291152D02*
X772652Y298652D01*
X788305D01*
X738055Y298652D02*
X750652D01*
X755305Y303305D01*
Y337902D01*
X699555Y308152D02*
X720055D01*
X736555Y337902D02*
X755305D01*
X770305Y308152D02*
Y337902D01*
X699555Y323152D02*
Y333055D01*
X704402Y337902D01*
X721555D01*
Y346305D01*
X725000Y349750D01*
X788402Y317750D02*
Y325652D01*
X788305Y317652D02*
X788402Y317750D01*
X725000Y349750D02*
X804000D01*
X738055Y317652D02*
Y326055D01*
X41652Y418652D02*
X58055D01*
X19450Y385250D02*
X22219Y388019D01*
Y399219D01*
X41652Y418652D01*
X19555Y409695D02*
X19750Y409500D01*
X19555Y409695D02*
Y428152D01*
X95650Y385250D02*
X130250Y419850D01*
Y463500D01*
X124000Y469750D02*
X130250Y463500D01*
X53152Y411152D02*
X85152D01*
X44850Y402850D02*
X53152Y411152D01*
X44850Y385250D02*
Y402850D01*
X85152Y411152D02*
X92652Y418652D01*
X108305D01*
X58055Y418652D02*
X70652D01*
X75305Y423305D01*
Y457902D01*
X19555Y428152D02*
X40055D01*
X56555Y457902D02*
X75305D01*
X90305Y428152D02*
Y457902D01*
X19555Y443152D02*
Y453055D01*
X24402Y457902D01*
X41555D01*
Y466305D01*
X45000Y469750D01*
X108402Y437750D02*
Y445652D01*
X108305Y437652D02*
X108402Y437750D01*
X45000Y469750D02*
X124000D01*
X58055Y437652D02*
Y446055D01*
X211652Y418652D02*
X228055D01*
X189450Y385250D02*
X192219Y388019D01*
Y399219D01*
X211652Y418652D01*
X189555Y409695D02*
X189750Y409500D01*
X189555Y409695D02*
Y428152D01*
X265650Y385250D02*
X300250Y419850D01*
Y463500D01*
X294000Y469750D02*
X300250Y463500D01*
X223152Y411152D02*
X255152D01*
X214850Y402850D02*
X223152Y411152D01*
X214850Y385250D02*
Y402850D01*
X255152Y411152D02*
X262652Y418652D01*
X278305D01*
X228055Y418652D02*
X240652D01*
X245305Y423305D01*
Y457902D01*
X189555Y428152D02*
X210055D01*
X226555Y457902D02*
X245305D01*
X260305Y428152D02*
Y457902D01*
X189555Y443152D02*
Y453055D01*
X194402Y457902D01*
X211555D01*
Y466305D01*
X215000Y469750D01*
X278402Y437750D02*
Y445652D01*
X278305Y437652D02*
X278402Y437750D01*
X215000Y469750D02*
X294000D01*
X228055Y437652D02*
Y446055D01*
X381652Y418652D02*
X398055D01*
X359450Y385250D02*
X362219Y388019D01*
Y399219D01*
X381652Y418652D01*
X359555Y409695D02*
X359750Y409500D01*
X359555Y409695D02*
Y428152D01*
X435650Y385250D02*
X470250Y419850D01*
Y463500D01*
X464000Y469750D02*
X470250Y463500D01*
X393152Y411152D02*
X425152D01*
X384850Y402850D02*
X393152Y411152D01*
X384850Y385250D02*
Y402850D01*
X425152Y411152D02*
X432652Y418652D01*
X448305D01*
X398055Y418652D02*
X410652D01*
X415305Y423305D01*
Y457902D01*
X359555Y428152D02*
X380055D01*
X396555Y457902D02*
X415305D01*
X430305Y428152D02*
Y457902D01*
X359555Y443152D02*
Y453055D01*
X364402Y457902D01*
X381555D01*
Y466305D01*
X385000Y469750D01*
X448402Y437750D02*
Y445652D01*
X448305Y437652D02*
X448402Y437750D01*
X385000Y469750D02*
X464000D01*
X398055Y437652D02*
Y446055D01*
X551652Y418652D02*
X568055D01*
X529450Y385250D02*
X532219Y388019D01*
Y399219D01*
X551652Y418652D01*
X529555Y409695D02*
X529750Y409500D01*
X529555Y409695D02*
Y428152D01*
X605650Y385250D02*
X640250Y419850D01*
Y463500D01*
X634000Y469750D02*
X640250Y463500D01*
X563152Y411152D02*
X595152D01*
X554850Y402850D02*
X563152Y411152D01*
X554850Y385250D02*
Y402850D01*
X595152Y411152D02*
X602652Y418652D01*
X618305D01*
X568055Y418652D02*
X580652D01*
X585305Y423305D01*
Y457902D01*
X529555Y428152D02*
X550055D01*
X566555Y457902D02*
X585305D01*
X600305Y428152D02*
Y457902D01*
X529555Y443152D02*
Y453055D01*
X534402Y457902D01*
X551555D01*
Y466305D01*
X555000Y469750D01*
X618402Y437750D02*
Y445652D01*
X618305Y437652D02*
X618402Y437750D01*
X555000Y469750D02*
X634000D01*
X568055Y437652D02*
Y446055D01*
X721652Y418652D02*
X738055D01*
X699450Y385250D02*
X702219Y388019D01*
Y399219D01*
X721652Y418652D01*
X699555Y409695D02*
X699750Y409500D01*
X699555Y409695D02*
Y428152D01*
X775650Y385250D02*
X810250Y419850D01*
Y463500D01*
X804000Y469750D02*
X810250Y463500D01*
X733152Y411152D02*
X765152D01*
X724850Y402850D02*
X733152Y411152D01*
X724850Y385250D02*
Y402850D01*
X765152Y411152D02*
X772652Y418652D01*
X788305D01*
X738055Y418652D02*
X750652D01*
X755305Y423305D01*
Y457902D01*
X699555Y428152D02*
X720055D01*
X736555Y457902D02*
X755305D01*
X770305Y428152D02*
Y457902D01*
X699555Y443152D02*
Y453055D01*
X704402Y457902D01*
X721555D01*
Y466305D01*
X725000Y469750D01*
X788402Y437750D02*
Y445652D01*
X788305Y437652D02*
X788402Y437750D01*
X725000Y469750D02*
X804000D01*
X738055Y437652D02*
Y446055D01*
X41652Y538652D02*
X58055D01*
X19450Y505250D02*
X22219Y508019D01*
Y519219D01*
X41652Y538652D01*
X19555Y529695D02*
X19750Y529500D01*
X19555Y529695D02*
Y548152D01*
X95650Y505250D02*
X130250Y539850D01*
Y583500D01*
X124000Y589750D02*
X130250Y583500D01*
X53152Y531152D02*
X85152D01*
X44850Y522850D02*
X53152Y531152D01*
X44850Y505250D02*
Y522850D01*
X85152Y531152D02*
X92652Y538652D01*
X108305D01*
X58055Y538652D02*
X70652D01*
X75305Y543305D01*
Y577902D01*
X19555Y548152D02*
X40055D01*
X56555Y577902D02*
X75305D01*
X90305Y548152D02*
Y577902D01*
X19555Y563152D02*
Y573055D01*
X24402Y577902D01*
X41555D01*
Y586305D01*
X45000Y589750D01*
X108402Y557750D02*
Y565652D01*
X108305Y557652D02*
X108402Y557750D01*
X45000Y589750D02*
X124000D01*
X58055Y557652D02*
Y566055D01*
X211652Y538652D02*
X228055D01*
X189450Y505250D02*
X192219Y508019D01*
Y519219D01*
X211652Y538652D01*
X189555Y529695D02*
X189750Y529500D01*
X189555Y529695D02*
Y548152D01*
X265650Y505250D02*
X300250Y539850D01*
Y583500D01*
X294000Y589750D02*
X300250Y583500D01*
X223152Y531152D02*
X255152D01*
X214850Y522850D02*
X223152Y531152D01*
X214850Y505250D02*
Y522850D01*
X255152Y531152D02*
X262652Y538652D01*
X278305D01*
X228055Y538652D02*
X240652D01*
X245305Y543305D01*
Y577902D01*
X189555Y548152D02*
X210055D01*
X226555Y577902D02*
X245305D01*
X260305Y548152D02*
Y577902D01*
X189555Y563152D02*
Y573055D01*
X194402Y577902D01*
X211555D01*
Y586305D01*
X215000Y589750D01*
X278402Y557750D02*
Y565652D01*
X278305Y557652D02*
X278402Y557750D01*
X215000Y589750D02*
X294000D01*
X228055Y557652D02*
Y566055D01*
X381652Y538652D02*
X398055D01*
X359450Y505250D02*
X362219Y508019D01*
Y519219D01*
X381652Y538652D01*
X359555Y529695D02*
X359750Y529500D01*
X359555Y529695D02*
Y548152D01*
X435650Y505250D02*
X470250Y539850D01*
Y583500D01*
X464000Y589750D02*
X470250Y583500D01*
X393152Y531152D02*
X425152D01*
X384850Y522850D02*
X393152Y531152D01*
X384850Y505250D02*
Y522850D01*
X425152Y531152D02*
X432652Y538652D01*
X448305D01*
X398055Y538652D02*
X410652D01*
X415305Y543305D01*
Y577902D01*
X359555Y548152D02*
X380055D01*
X396555Y577902D02*
X415305D01*
X430305Y548152D02*
Y577902D01*
X359555Y563152D02*
Y573055D01*
X364402Y577902D01*
X381555D01*
Y586305D01*
X385000Y589750D01*
X448402Y557750D02*
Y565652D01*
X448305Y557652D02*
X448402Y557750D01*
X385000Y589750D02*
X464000D01*
X398055Y557652D02*
Y566055D01*
X551652Y538652D02*
X568055D01*
X529450Y505250D02*
X532219Y508019D01*
Y519219D01*
X551652Y538652D01*
X529555Y529695D02*
X529750Y529500D01*
X529555Y529695D02*
Y548152D01*
X605650Y505250D02*
X640250Y539850D01*
Y583500D01*
X634000Y589750D02*
X640250Y583500D01*
X563152Y531152D02*
X595152D01*
X554850Y522850D02*
X563152Y531152D01*
X554850Y505250D02*
Y522850D01*
X595152Y531152D02*
X602652Y538652D01*
X618305D01*
X568055Y538652D02*
X580652D01*
X585305Y543305D01*
Y577902D01*
X529555Y548152D02*
X550055D01*
X566555Y577902D02*
X585305D01*
X600305Y548152D02*
Y577902D01*
X529555Y563152D02*
Y573055D01*
X534402Y577902D01*
X551555D01*
Y586305D01*
X555000Y589750D01*
X618402Y557750D02*
Y565652D01*
X618305Y557652D02*
X618402Y557750D01*
X555000Y589750D02*
X634000D01*
X568055Y557652D02*
Y566055D01*
X721652Y538652D02*
X738055D01*
X699450Y505250D02*
X702219Y508019D01*
Y519219D01*
X721652Y538652D01*
X699555Y529695D02*
X699750Y529500D01*
X699555Y529695D02*
Y548152D01*
X775650Y505250D02*
X810250Y539850D01*
Y583500D01*
X804000Y589750D02*
X810250Y583500D01*
X733152Y531152D02*
X765152D01*
X724850Y522850D02*
X733152Y531152D01*
X724850Y505250D02*
Y522850D01*
X765152Y531152D02*
X772652Y538652D01*
X788305D01*
X738055Y538652D02*
X750652D01*
X755305Y543305D01*
Y577902D01*
X699555Y548152D02*
X720055D01*
X736555Y577902D02*
X755305D01*
X770305Y548152D02*
Y577902D01*
X699555Y563152D02*
Y573055D01*
X704402Y577902D01*
X721555D01*
Y586305D01*
X725000Y589750D01*
X788402Y557750D02*
Y565652D01*
X788305Y557652D02*
X788402Y557750D01*
X725000Y589750D02*
X804000D01*
X738055Y557652D02*
Y566055D01*
D15*
X757250Y-30000D02*
D03*
X70000Y-34000D02*
D03*
X70000Y628750D02*
D03*
D16*
X19450Y25250D02*
D03*
X189450D02*
D03*
X359450D02*
D03*
X529450D02*
D03*
X699450D02*
D03*
X19450Y145250D02*
D03*
X189450D02*
D03*
X359450D02*
D03*
X529450D02*
D03*
X699450D02*
D03*
X19450Y265250D02*
D03*
X189450D02*
D03*
X359450D02*
D03*
X529450D02*
D03*
X699450D02*
D03*
X19450Y385250D02*
D03*
X189450D02*
D03*
X359450D02*
D03*
X529450D02*
D03*
X699450D02*
D03*
X19450Y505250D02*
D03*
X189450D02*
D03*
X359450D02*
D03*
X529450D02*
D03*
X699450D02*
D03*
D17*
X44850Y25250D02*
D03*
X70250D02*
D03*
X95650D02*
D03*
X121050D02*
D03*
X214850D02*
D03*
X240250D02*
D03*
X265650D02*
D03*
X291050D02*
D03*
X384850D02*
D03*
X410250D02*
D03*
X435650D02*
D03*
X461050D02*
D03*
X554850D02*
D03*
X580250D02*
D03*
X605650D02*
D03*
X631050D02*
D03*
X724850D02*
D03*
X750250D02*
D03*
X775650D02*
D03*
X801050D02*
D03*
X44850Y145250D02*
D03*
X70250D02*
D03*
X95650D02*
D03*
X121050D02*
D03*
X214850D02*
D03*
X240250D02*
D03*
X265650D02*
D03*
X291050D02*
D03*
X384850D02*
D03*
X410250D02*
D03*
X435650D02*
D03*
X461050D02*
D03*
X554850D02*
D03*
X580250D02*
D03*
X605650D02*
D03*
X631050D02*
D03*
X724850D02*
D03*
X750250D02*
D03*
X775650D02*
D03*
X801050D02*
D03*
X44850Y265250D02*
D03*
X70250D02*
D03*
X95650D02*
D03*
X121050D02*
D03*
X214850D02*
D03*
X240250D02*
D03*
X265650D02*
D03*
X291050D02*
D03*
X384850D02*
D03*
X410250D02*
D03*
X435650D02*
D03*
X461050D02*
D03*
X554850D02*
D03*
X580250D02*
D03*
X605650D02*
D03*
X631050D02*
D03*
X724850D02*
D03*
X750250D02*
D03*
X775650D02*
D03*
X801050D02*
D03*
X44850Y385250D02*
D03*
X70250D02*
D03*
X95650D02*
D03*
X121050D02*
D03*
X214850D02*
D03*
X240250D02*
D03*
X265650D02*
D03*
X291050D02*
D03*
X384850D02*
D03*
X410250D02*
D03*
X435650D02*
D03*
X461050D02*
D03*
X554850D02*
D03*
X580250D02*
D03*
X605650D02*
D03*
X631050D02*
D03*
X724850D02*
D03*
X750250D02*
D03*
X775650D02*
D03*
X801050D02*
D03*
X44850Y505250D02*
D03*
X70250D02*
D03*
X95650D02*
D03*
X121050D02*
D03*
X214850D02*
D03*
X240250D02*
D03*
X265650D02*
D03*
X291050D02*
D03*
X384850D02*
D03*
X410250D02*
D03*
X435650D02*
D03*
X461050D02*
D03*
X554850D02*
D03*
X580250D02*
D03*
X605650D02*
D03*
X631050D02*
D03*
X724850D02*
D03*
X750250D02*
D03*
X775650D02*
D03*
X801050D02*
D03*
D18*
X19695Y49500D02*
D03*
X58000Y85652D02*
D03*
X108402D02*
D03*
X189695Y49500D02*
D03*
X228000Y85652D02*
D03*
X278402D02*
D03*
X359695Y49500D02*
D03*
X398000Y85652D02*
D03*
X448402D02*
D03*
X529695Y49500D02*
D03*
X568000Y85652D02*
D03*
X618402D02*
D03*
X699695Y49500D02*
D03*
X738000Y85652D02*
D03*
X788402D02*
D03*
X19695Y169500D02*
D03*
X58000Y205652D02*
D03*
X108402D02*
D03*
X189695Y169500D02*
D03*
X228000Y205652D02*
D03*
X278402D02*
D03*
X359695Y169500D02*
D03*
X398000Y205652D02*
D03*
X448402D02*
D03*
X529695Y169500D02*
D03*
X568000Y205652D02*
D03*
X618402D02*
D03*
X699695Y169500D02*
D03*
X738000Y205652D02*
D03*
X788402D02*
D03*
X19695Y289500D02*
D03*
X58000Y325652D02*
D03*
X108402D02*
D03*
X189695Y289500D02*
D03*
X228000Y325652D02*
D03*
X278402D02*
D03*
X359695Y289500D02*
D03*
X398000Y325652D02*
D03*
X448402D02*
D03*
X529695Y289500D02*
D03*
X568000Y325652D02*
D03*
X618402D02*
D03*
X699695Y289500D02*
D03*
X738000Y325652D02*
D03*
X788402D02*
D03*
X19695Y409500D02*
D03*
X58000Y445652D02*
D03*
X108402D02*
D03*
X189695Y409500D02*
D03*
X228000Y445652D02*
D03*
X278402D02*
D03*
X359695Y409500D02*
D03*
X398000Y445652D02*
D03*
X448402D02*
D03*
X529695Y409500D02*
D03*
X568000Y445652D02*
D03*
X618402D02*
D03*
X699695Y409500D02*
D03*
X738000Y445652D02*
D03*
X788402D02*
D03*
X19695Y529500D02*
D03*
X58000Y565652D02*
D03*
X108402D02*
D03*
X189695Y529500D02*
D03*
X228000Y565652D02*
D03*
X278402D02*
D03*
X359695Y529500D02*
D03*
X398000Y565652D02*
D03*
X448402D02*
D03*
X529695Y529500D02*
D03*
X568000Y565652D02*
D03*
X618402D02*
D03*
X699695Y529500D02*
D03*
X738000Y565652D02*
D03*
X788402D02*
D03*
M02*
