G04*
G04 #@! TF.GenerationSoftware,Altium Limited,Altium Designer,23.7.1 (13)*
G04*
G04 Layer_Color=32768*
%FSLAX44Y44*%
%MOMM*%
G71*
G04*
G04 #@! TF.SameCoordinates,565FC65D-8D52-4A7D-9B4B-E9A53F5C2DB2*
G04*
G04*
G04 #@! TF.FilePolarity,Positive*
G04*
G01*
G75*
%ADD30C,0.1000*%
D30*
X99305Y63152D02*
Y73152D01*
X94305Y68152D02*
X104305D01*
X80055Y85652D02*
X118555D01*
X80055Y50652D02*
X118555Y50652D01*
X80055Y50652D02*
Y85652D01*
X118555D02*
X118555Y50652D01*
X49055Y63152D02*
Y73152D01*
X44055Y68152D02*
X54055D01*
X29805Y85652D02*
X68305D01*
X29805Y50652D02*
X68305D01*
X29805D02*
Y85652D01*
X68305Y50652D02*
Y85652D01*
X49055Y93402D02*
Y102402D01*
X44555Y97902D02*
X53555D01*
X34805Y91402D02*
X63305D01*
X34805Y104402D02*
X63305D01*
Y91402D02*
Y104402D01*
X34805Y91402D02*
Y104402D01*
X82805Y93402D02*
Y102402D01*
X78305Y97902D02*
X87305D01*
X68555Y91402D02*
X97055D01*
X68555Y104402D02*
X97055D01*
Y91402D02*
Y104402D01*
X68555Y91402D02*
Y104402D01*
X15055Y75652D02*
X24055D01*
X19555Y71152D02*
Y80152D01*
X26055Y61402D02*
Y89902D01*
X13055Y61402D02*
Y89902D01*
X26055D01*
X13055Y61402D02*
X26055D01*
X269305Y63152D02*
Y73152D01*
X264305Y68152D02*
X274305D01*
X250055Y85652D02*
X288555D01*
X250055Y50652D02*
X288555Y50652D01*
X250055Y50652D02*
Y85652D01*
X288555D02*
X288555Y50652D01*
X219055Y63152D02*
Y73152D01*
X214055Y68152D02*
X224055D01*
X199805Y85652D02*
X238305D01*
X199805Y50652D02*
X238305D01*
X199805D02*
Y85652D01*
X238305Y50652D02*
Y85652D01*
X219055Y93402D02*
Y102402D01*
X214555Y97902D02*
X223555D01*
X204805Y91402D02*
X233305D01*
X204805Y104402D02*
X233305D01*
Y91402D02*
Y104402D01*
X204805Y91402D02*
Y104402D01*
X252805Y93402D02*
Y102402D01*
X248305Y97902D02*
X257305D01*
X238555Y91402D02*
X267055D01*
X238555Y104402D02*
X267055D01*
Y91402D02*
Y104402D01*
X238555Y91402D02*
Y104402D01*
X185055Y75652D02*
X194055D01*
X189555Y71152D02*
Y80152D01*
X196055Y61402D02*
Y89902D01*
X183055Y61402D02*
Y89902D01*
X196055D01*
X183055Y61402D02*
X196055D01*
X439305Y63152D02*
Y73152D01*
X434305Y68152D02*
X444305D01*
X420055Y85652D02*
X458555D01*
X420055Y50652D02*
X458555Y50652D01*
X420055Y50652D02*
Y85652D01*
X458555D02*
X458555Y50652D01*
X389055Y63152D02*
Y73152D01*
X384055Y68152D02*
X394055D01*
X369805Y85652D02*
X408305D01*
X369805Y50652D02*
X408305D01*
X369805D02*
Y85652D01*
X408305Y50652D02*
Y85652D01*
X389055Y93402D02*
Y102402D01*
X384555Y97902D02*
X393555D01*
X374805Y91402D02*
X403305D01*
X374805Y104402D02*
X403305D01*
Y91402D02*
Y104402D01*
X374805Y91402D02*
Y104402D01*
X422805Y93402D02*
Y102402D01*
X418305Y97902D02*
X427305D01*
X408555Y91402D02*
X437055D01*
X408555Y104402D02*
X437055D01*
Y91402D02*
Y104402D01*
X408555Y91402D02*
Y104402D01*
X355055Y75652D02*
X364055D01*
X359555Y71152D02*
Y80152D01*
X366055Y61402D02*
Y89902D01*
X353055Y61402D02*
Y89902D01*
X366055D01*
X353055Y61402D02*
X366055D01*
X609305Y63152D02*
Y73152D01*
X604305Y68152D02*
X614305D01*
X590055Y85652D02*
X628555D01*
X590055Y50652D02*
X628555Y50652D01*
X590055Y50652D02*
Y85652D01*
X628555D02*
X628555Y50652D01*
X559055Y63152D02*
Y73152D01*
X554055Y68152D02*
X564055D01*
X539805Y85652D02*
X578305D01*
X539805Y50652D02*
X578305D01*
X539805D02*
Y85652D01*
X578305Y50652D02*
Y85652D01*
X559055Y93402D02*
Y102402D01*
X554555Y97902D02*
X563555D01*
X544805Y91402D02*
X573305D01*
X544805Y104402D02*
X573305D01*
Y91402D02*
Y104402D01*
X544805Y91402D02*
Y104402D01*
X592805Y93402D02*
Y102402D01*
X588305Y97902D02*
X597305D01*
X578555Y91402D02*
X607055D01*
X578555Y104402D02*
X607055D01*
Y91402D02*
Y104402D01*
X578555Y91402D02*
Y104402D01*
X525055Y75652D02*
X534055D01*
X529555Y71152D02*
Y80152D01*
X536055Y61402D02*
Y89902D01*
X523055Y61402D02*
Y89902D01*
X536055D01*
X523055Y61402D02*
X536055D01*
X779305Y63152D02*
Y73152D01*
X774305Y68152D02*
X784305D01*
X760055Y85652D02*
X798555D01*
X760055Y50652D02*
X798555Y50652D01*
X760055Y50652D02*
Y85652D01*
X798555D02*
X798555Y50652D01*
X729055Y63152D02*
Y73152D01*
X724055Y68152D02*
X734055D01*
X709805Y85652D02*
X748305D01*
X709805Y50652D02*
X748305D01*
X709805D02*
Y85652D01*
X748305Y50652D02*
Y85652D01*
X729055Y93402D02*
Y102402D01*
X724555Y97902D02*
X733555D01*
X714805Y91402D02*
X743305D01*
X714805Y104402D02*
X743305D01*
Y91402D02*
Y104402D01*
X714805Y91402D02*
Y104402D01*
X762805Y93402D02*
Y102402D01*
X758305Y97902D02*
X767305D01*
X748555Y91402D02*
X777055D01*
X748555Y104402D02*
X777055D01*
Y91402D02*
Y104402D01*
X748555Y91402D02*
Y104402D01*
X695055Y75652D02*
X704055D01*
X699555Y71152D02*
Y80152D01*
X706055Y61402D02*
Y89902D01*
X693055Y61402D02*
Y89902D01*
X706055D01*
X693055Y61402D02*
X706055D01*
X99305Y183152D02*
Y193152D01*
X94305Y188152D02*
X104305D01*
X80055Y205652D02*
X118555D01*
X80055Y170652D02*
X118555Y170652D01*
X80055Y170652D02*
Y205652D01*
X118555D02*
X118555Y170652D01*
X49055Y183152D02*
Y193152D01*
X44055Y188152D02*
X54055D01*
X29805Y205652D02*
X68305D01*
X29805Y170652D02*
X68305D01*
X29805D02*
Y205652D01*
X68305Y170652D02*
Y205652D01*
X49055Y213402D02*
Y222402D01*
X44555Y217902D02*
X53555D01*
X34805Y211402D02*
X63305D01*
X34805Y224402D02*
X63305D01*
Y211402D02*
Y224402D01*
X34805Y211402D02*
Y224402D01*
X82805Y213402D02*
Y222402D01*
X78305Y217902D02*
X87305D01*
X68555Y211402D02*
X97055D01*
X68555Y224402D02*
X97055D01*
Y211402D02*
Y224402D01*
X68555Y211402D02*
Y224402D01*
X15055Y195652D02*
X24055D01*
X19555Y191152D02*
Y200152D01*
X26055Y181402D02*
Y209902D01*
X13055Y181402D02*
Y209902D01*
X26055D01*
X13055Y181402D02*
X26055D01*
X269305Y183152D02*
Y193152D01*
X264305Y188152D02*
X274305D01*
X250055Y205652D02*
X288555D01*
X250055Y170652D02*
X288555Y170652D01*
X250055Y170652D02*
Y205652D01*
X288555D02*
X288555Y170652D01*
X219055Y183152D02*
Y193152D01*
X214055Y188152D02*
X224055D01*
X199805Y205652D02*
X238305D01*
X199805Y170652D02*
X238305D01*
X199805D02*
Y205652D01*
X238305Y170652D02*
Y205652D01*
X219055Y213402D02*
Y222402D01*
X214555Y217902D02*
X223555D01*
X204805Y211402D02*
X233305D01*
X204805Y224402D02*
X233305D01*
Y211402D02*
Y224402D01*
X204805Y211402D02*
Y224402D01*
X252805Y213402D02*
Y222402D01*
X248305Y217902D02*
X257305D01*
X238555Y211402D02*
X267055D01*
X238555Y224402D02*
X267055D01*
Y211402D02*
Y224402D01*
X238555Y211402D02*
Y224402D01*
X185055Y195652D02*
X194055D01*
X189555Y191152D02*
Y200152D01*
X196055Y181402D02*
Y209902D01*
X183055Y181402D02*
Y209902D01*
X196055D01*
X183055Y181402D02*
X196055D01*
X439305Y183152D02*
Y193152D01*
X434305Y188152D02*
X444305D01*
X420055Y205652D02*
X458555D01*
X420055Y170652D02*
X458555Y170652D01*
X420055Y170652D02*
Y205652D01*
X458555D02*
X458555Y170652D01*
X389055Y183152D02*
Y193152D01*
X384055Y188152D02*
X394055D01*
X369805Y205652D02*
X408305D01*
X369805Y170652D02*
X408305D01*
X369805D02*
Y205652D01*
X408305Y170652D02*
Y205652D01*
X389055Y213402D02*
Y222402D01*
X384555Y217902D02*
X393555D01*
X374805Y211402D02*
X403305D01*
X374805Y224402D02*
X403305D01*
Y211402D02*
Y224402D01*
X374805Y211402D02*
Y224402D01*
X422805Y213402D02*
Y222402D01*
X418305Y217902D02*
X427305D01*
X408555Y211402D02*
X437055D01*
X408555Y224402D02*
X437055D01*
Y211402D02*
Y224402D01*
X408555Y211402D02*
Y224402D01*
X355055Y195652D02*
X364055D01*
X359555Y191152D02*
Y200152D01*
X366055Y181402D02*
Y209902D01*
X353055Y181402D02*
Y209902D01*
X366055D01*
X353055Y181402D02*
X366055D01*
X609305Y183152D02*
Y193152D01*
X604305Y188152D02*
X614305D01*
X590055Y205652D02*
X628555D01*
X590055Y170652D02*
X628555Y170652D01*
X590055Y170652D02*
Y205652D01*
X628555D02*
X628555Y170652D01*
X559055Y183152D02*
Y193152D01*
X554055Y188152D02*
X564055D01*
X539805Y205652D02*
X578305D01*
X539805Y170652D02*
X578305D01*
X539805D02*
Y205652D01*
X578305Y170652D02*
Y205652D01*
X559055Y213402D02*
Y222402D01*
X554555Y217902D02*
X563555D01*
X544805Y211402D02*
X573305D01*
X544805Y224402D02*
X573305D01*
Y211402D02*
Y224402D01*
X544805Y211402D02*
Y224402D01*
X592805Y213402D02*
Y222402D01*
X588305Y217902D02*
X597305D01*
X578555Y211402D02*
X607055D01*
X578555Y224402D02*
X607055D01*
Y211402D02*
Y224402D01*
X578555Y211402D02*
Y224402D01*
X525055Y195652D02*
X534055D01*
X529555Y191152D02*
Y200152D01*
X536055Y181402D02*
Y209902D01*
X523055Y181402D02*
Y209902D01*
X536055D01*
X523055Y181402D02*
X536055D01*
X779305Y183152D02*
Y193152D01*
X774305Y188152D02*
X784305D01*
X760055Y205652D02*
X798555D01*
X760055Y170652D02*
X798555Y170652D01*
X760055Y170652D02*
Y205652D01*
X798555D02*
X798555Y170652D01*
X729055Y183152D02*
Y193152D01*
X724055Y188152D02*
X734055D01*
X709805Y205652D02*
X748305D01*
X709805Y170652D02*
X748305D01*
X709805D02*
Y205652D01*
X748305Y170652D02*
Y205652D01*
X729055Y213402D02*
Y222402D01*
X724555Y217902D02*
X733555D01*
X714805Y211402D02*
X743305D01*
X714805Y224402D02*
X743305D01*
Y211402D02*
Y224402D01*
X714805Y211402D02*
Y224402D01*
X762805Y213402D02*
Y222402D01*
X758305Y217902D02*
X767305D01*
X748555Y211402D02*
X777055D01*
X748555Y224402D02*
X777055D01*
Y211402D02*
Y224402D01*
X748555Y211402D02*
Y224402D01*
X695055Y195652D02*
X704055D01*
X699555Y191152D02*
Y200152D01*
X706055Y181402D02*
Y209902D01*
X693055Y181402D02*
Y209902D01*
X706055D01*
X693055Y181402D02*
X706055D01*
X99305Y303152D02*
Y313152D01*
X94305Y308152D02*
X104305D01*
X80055Y325652D02*
X118555D01*
X80055Y290652D02*
X118555Y290652D01*
X80055Y290652D02*
Y325652D01*
X118555D02*
X118555Y290652D01*
X49055Y303152D02*
Y313152D01*
X44055Y308152D02*
X54055D01*
X29805Y325652D02*
X68305D01*
X29805Y290652D02*
X68305D01*
X29805D02*
Y325652D01*
X68305Y290652D02*
Y325652D01*
X49055Y333402D02*
Y342402D01*
X44555Y337902D02*
X53555D01*
X34805Y331402D02*
X63305D01*
X34805Y344402D02*
X63305D01*
Y331402D02*
Y344402D01*
X34805Y331402D02*
Y344402D01*
X82805Y333402D02*
Y342402D01*
X78305Y337902D02*
X87305D01*
X68555Y331402D02*
X97055D01*
X68555Y344402D02*
X97055D01*
Y331402D02*
Y344402D01*
X68555Y331402D02*
Y344402D01*
X15055Y315652D02*
X24055D01*
X19555Y311152D02*
Y320152D01*
X26055Y301402D02*
Y329902D01*
X13055Y301402D02*
Y329902D01*
X26055D01*
X13055Y301402D02*
X26055D01*
X269305Y303152D02*
Y313152D01*
X264305Y308152D02*
X274305D01*
X250055Y325652D02*
X288555D01*
X250055Y290652D02*
X288555Y290652D01*
X250055Y290652D02*
Y325652D01*
X288555D02*
X288555Y290652D01*
X219055Y303152D02*
Y313152D01*
X214055Y308152D02*
X224055D01*
X199805Y325652D02*
X238305D01*
X199805Y290652D02*
X238305D01*
X199805D02*
Y325652D01*
X238305Y290652D02*
Y325652D01*
X219055Y333402D02*
Y342402D01*
X214555Y337902D02*
X223555D01*
X204805Y331402D02*
X233305D01*
X204805Y344402D02*
X233305D01*
Y331402D02*
Y344402D01*
X204805Y331402D02*
Y344402D01*
X252805Y333402D02*
Y342402D01*
X248305Y337902D02*
X257305D01*
X238555Y331402D02*
X267055D01*
X238555Y344402D02*
X267055D01*
Y331402D02*
Y344402D01*
X238555Y331402D02*
Y344402D01*
X185055Y315652D02*
X194055D01*
X189555Y311152D02*
Y320152D01*
X196055Y301402D02*
Y329902D01*
X183055Y301402D02*
Y329902D01*
X196055D01*
X183055Y301402D02*
X196055D01*
X439305Y303152D02*
Y313152D01*
X434305Y308152D02*
X444305D01*
X420055Y325652D02*
X458555D01*
X420055Y290652D02*
X458555Y290652D01*
X420055Y290652D02*
Y325652D01*
X458555D02*
X458555Y290652D01*
X389055Y303152D02*
Y313152D01*
X384055Y308152D02*
X394055D01*
X369805Y325652D02*
X408305D01*
X369805Y290652D02*
X408305D01*
X369805D02*
Y325652D01*
X408305Y290652D02*
Y325652D01*
X389055Y333402D02*
Y342402D01*
X384555Y337902D02*
X393555D01*
X374805Y331402D02*
X403305D01*
X374805Y344402D02*
X403305D01*
Y331402D02*
Y344402D01*
X374805Y331402D02*
Y344402D01*
X422805Y333402D02*
Y342402D01*
X418305Y337902D02*
X427305D01*
X408555Y331402D02*
X437055D01*
X408555Y344402D02*
X437055D01*
Y331402D02*
Y344402D01*
X408555Y331402D02*
Y344402D01*
X355055Y315652D02*
X364055D01*
X359555Y311152D02*
Y320152D01*
X366055Y301402D02*
Y329902D01*
X353055Y301402D02*
Y329902D01*
X366055D01*
X353055Y301402D02*
X366055D01*
X609305Y303152D02*
Y313152D01*
X604305Y308152D02*
X614305D01*
X590055Y325652D02*
X628555D01*
X590055Y290652D02*
X628555Y290652D01*
X590055Y290652D02*
Y325652D01*
X628555D02*
X628555Y290652D01*
X559055Y303152D02*
Y313152D01*
X554055Y308152D02*
X564055D01*
X539805Y325652D02*
X578305D01*
X539805Y290652D02*
X578305D01*
X539805D02*
Y325652D01*
X578305Y290652D02*
Y325652D01*
X559055Y333402D02*
Y342402D01*
X554555Y337902D02*
X563555D01*
X544805Y331402D02*
X573305D01*
X544805Y344402D02*
X573305D01*
Y331402D02*
Y344402D01*
X544805Y331402D02*
Y344402D01*
X592805Y333402D02*
Y342402D01*
X588305Y337902D02*
X597305D01*
X578555Y331402D02*
X607055D01*
X578555Y344402D02*
X607055D01*
Y331402D02*
Y344402D01*
X578555Y331402D02*
Y344402D01*
X525055Y315652D02*
X534055D01*
X529555Y311152D02*
Y320152D01*
X536055Y301402D02*
Y329902D01*
X523055Y301402D02*
Y329902D01*
X536055D01*
X523055Y301402D02*
X536055D01*
X779305Y303152D02*
Y313152D01*
X774305Y308152D02*
X784305D01*
X760055Y325652D02*
X798555D01*
X760055Y290652D02*
X798555Y290652D01*
X760055Y290652D02*
Y325652D01*
X798555D02*
X798555Y290652D01*
X729055Y303152D02*
Y313152D01*
X724055Y308152D02*
X734055D01*
X709805Y325652D02*
X748305D01*
X709805Y290652D02*
X748305D01*
X709805D02*
Y325652D01*
X748305Y290652D02*
Y325652D01*
X729055Y333402D02*
Y342402D01*
X724555Y337902D02*
X733555D01*
X714805Y331402D02*
X743305D01*
X714805Y344402D02*
X743305D01*
Y331402D02*
Y344402D01*
X714805Y331402D02*
Y344402D01*
X762805Y333402D02*
Y342402D01*
X758305Y337902D02*
X767305D01*
X748555Y331402D02*
X777055D01*
X748555Y344402D02*
X777055D01*
Y331402D02*
Y344402D01*
X748555Y331402D02*
Y344402D01*
X695055Y315652D02*
X704055D01*
X699555Y311152D02*
Y320152D01*
X706055Y301402D02*
Y329902D01*
X693055Y301402D02*
Y329902D01*
X706055D01*
X693055Y301402D02*
X706055D01*
X99305Y423152D02*
Y433152D01*
X94305Y428152D02*
X104305D01*
X80055Y445652D02*
X118555D01*
X80055Y410652D02*
X118555Y410652D01*
X80055Y410652D02*
Y445652D01*
X118555D02*
X118555Y410652D01*
X49055Y423152D02*
Y433152D01*
X44055Y428152D02*
X54055D01*
X29805Y445652D02*
X68305D01*
X29805Y410652D02*
X68305D01*
X29805D02*
Y445652D01*
X68305Y410652D02*
Y445652D01*
X49055Y453402D02*
Y462402D01*
X44555Y457902D02*
X53555D01*
X34805Y451402D02*
X63305D01*
X34805Y464402D02*
X63305D01*
Y451402D02*
Y464402D01*
X34805Y451402D02*
Y464402D01*
X82805Y453402D02*
Y462402D01*
X78305Y457902D02*
X87305D01*
X68555Y451402D02*
X97055D01*
X68555Y464402D02*
X97055D01*
Y451402D02*
Y464402D01*
X68555Y451402D02*
Y464402D01*
X15055Y435652D02*
X24055D01*
X19555Y431152D02*
Y440152D01*
X26055Y421402D02*
Y449902D01*
X13055Y421402D02*
Y449902D01*
X26055D01*
X13055Y421402D02*
X26055D01*
X269305Y423152D02*
Y433152D01*
X264305Y428152D02*
X274305D01*
X250055Y445652D02*
X288555D01*
X250055Y410652D02*
X288555Y410652D01*
X250055Y410652D02*
Y445652D01*
X288555D02*
X288555Y410652D01*
X219055Y423152D02*
Y433152D01*
X214055Y428152D02*
X224055D01*
X199805Y445652D02*
X238305D01*
X199805Y410652D02*
X238305D01*
X199805D02*
Y445652D01*
X238305Y410652D02*
Y445652D01*
X219055Y453402D02*
Y462402D01*
X214555Y457902D02*
X223555D01*
X204805Y451402D02*
X233305D01*
X204805Y464402D02*
X233305D01*
Y451402D02*
Y464402D01*
X204805Y451402D02*
Y464402D01*
X252805Y453402D02*
Y462402D01*
X248305Y457902D02*
X257305D01*
X238555Y451402D02*
X267055D01*
X238555Y464402D02*
X267055D01*
Y451402D02*
Y464402D01*
X238555Y451402D02*
Y464402D01*
X185055Y435652D02*
X194055D01*
X189555Y431152D02*
Y440152D01*
X196055Y421402D02*
Y449902D01*
X183055Y421402D02*
Y449902D01*
X196055D01*
X183055Y421402D02*
X196055D01*
X439305Y423152D02*
Y433152D01*
X434305Y428152D02*
X444305D01*
X420055Y445652D02*
X458555D01*
X420055Y410652D02*
X458555Y410652D01*
X420055Y410652D02*
Y445652D01*
X458555D02*
X458555Y410652D01*
X389055Y423152D02*
Y433152D01*
X384055Y428152D02*
X394055D01*
X369805Y445652D02*
X408305D01*
X369805Y410652D02*
X408305D01*
X369805D02*
Y445652D01*
X408305Y410652D02*
Y445652D01*
X389055Y453402D02*
Y462402D01*
X384555Y457902D02*
X393555D01*
X374805Y451402D02*
X403305D01*
X374805Y464402D02*
X403305D01*
Y451402D02*
Y464402D01*
X374805Y451402D02*
Y464402D01*
X422805Y453402D02*
Y462402D01*
X418305Y457902D02*
X427305D01*
X408555Y451402D02*
X437055D01*
X408555Y464402D02*
X437055D01*
Y451402D02*
Y464402D01*
X408555Y451402D02*
Y464402D01*
X355055Y435652D02*
X364055D01*
X359555Y431152D02*
Y440152D01*
X366055Y421402D02*
Y449902D01*
X353055Y421402D02*
Y449902D01*
X366055D01*
X353055Y421402D02*
X366055D01*
X609305Y423152D02*
Y433152D01*
X604305Y428152D02*
X614305D01*
X590055Y445652D02*
X628555D01*
X590055Y410652D02*
X628555Y410652D01*
X590055Y410652D02*
Y445652D01*
X628555D02*
X628555Y410652D01*
X559055Y423152D02*
Y433152D01*
X554055Y428152D02*
X564055D01*
X539805Y445652D02*
X578305D01*
X539805Y410652D02*
X578305D01*
X539805D02*
Y445652D01*
X578305Y410652D02*
Y445652D01*
X559055Y453402D02*
Y462402D01*
X554555Y457902D02*
X563555D01*
X544805Y451402D02*
X573305D01*
X544805Y464402D02*
X573305D01*
Y451402D02*
Y464402D01*
X544805Y451402D02*
Y464402D01*
X592805Y453402D02*
Y462402D01*
X588305Y457902D02*
X597305D01*
X578555Y451402D02*
X607055D01*
X578555Y464402D02*
X607055D01*
Y451402D02*
Y464402D01*
X578555Y451402D02*
Y464402D01*
X525055Y435652D02*
X534055D01*
X529555Y431152D02*
Y440152D01*
X536055Y421402D02*
Y449902D01*
X523055Y421402D02*
Y449902D01*
X536055D01*
X523055Y421402D02*
X536055D01*
X779305Y423152D02*
Y433152D01*
X774305Y428152D02*
X784305D01*
X760055Y445652D02*
X798555D01*
X760055Y410652D02*
X798555Y410652D01*
X760055Y410652D02*
Y445652D01*
X798555D02*
X798555Y410652D01*
X729055Y423152D02*
Y433152D01*
X724055Y428152D02*
X734055D01*
X709805Y445652D02*
X748305D01*
X709805Y410652D02*
X748305D01*
X709805D02*
Y445652D01*
X748305Y410652D02*
Y445652D01*
X729055Y453402D02*
Y462402D01*
X724555Y457902D02*
X733555D01*
X714805Y451402D02*
X743305D01*
X714805Y464402D02*
X743305D01*
Y451402D02*
Y464402D01*
X714805Y451402D02*
Y464402D01*
X762805Y453402D02*
Y462402D01*
X758305Y457902D02*
X767305D01*
X748555Y451402D02*
X777055D01*
X748555Y464402D02*
X777055D01*
Y451402D02*
Y464402D01*
X748555Y451402D02*
Y464402D01*
X695055Y435652D02*
X704055D01*
X699555Y431152D02*
Y440152D01*
X706055Y421402D02*
Y449902D01*
X693055Y421402D02*
Y449902D01*
X706055D01*
X693055Y421402D02*
X706055D01*
X99305Y543152D02*
Y553152D01*
X94305Y548152D02*
X104305D01*
X80055Y565652D02*
X118555D01*
X80055Y530652D02*
X118555Y530652D01*
X80055Y530652D02*
Y565652D01*
X118555D02*
X118555Y530652D01*
X49055Y543152D02*
Y553152D01*
X44055Y548152D02*
X54055D01*
X29805Y565652D02*
X68305D01*
X29805Y530652D02*
X68305D01*
X29805D02*
Y565652D01*
X68305Y530652D02*
Y565652D01*
X49055Y573402D02*
Y582402D01*
X44555Y577902D02*
X53555D01*
X34805Y571402D02*
X63305D01*
X34805Y584402D02*
X63305D01*
Y571402D02*
Y584402D01*
X34805Y571402D02*
Y584402D01*
X82805Y573402D02*
Y582402D01*
X78305Y577902D02*
X87305D01*
X68555Y571402D02*
X97055D01*
X68555Y584402D02*
X97055D01*
Y571402D02*
Y584402D01*
X68555Y571402D02*
Y584402D01*
X15055Y555652D02*
X24055D01*
X19555Y551152D02*
Y560152D01*
X26055Y541402D02*
Y569902D01*
X13055Y541402D02*
Y569902D01*
X26055D01*
X13055Y541402D02*
X26055D01*
X269305Y543152D02*
Y553152D01*
X264305Y548152D02*
X274305D01*
X250055Y565652D02*
X288555D01*
X250055Y530652D02*
X288555Y530652D01*
X250055Y530652D02*
Y565652D01*
X288555D02*
X288555Y530652D01*
X219055Y543152D02*
Y553152D01*
X214055Y548152D02*
X224055D01*
X199805Y565652D02*
X238305D01*
X199805Y530652D02*
X238305D01*
X199805D02*
Y565652D01*
X238305Y530652D02*
Y565652D01*
X219055Y573402D02*
Y582402D01*
X214555Y577902D02*
X223555D01*
X204805Y571402D02*
X233305D01*
X204805Y584402D02*
X233305D01*
Y571402D02*
Y584402D01*
X204805Y571402D02*
Y584402D01*
X252805Y573402D02*
Y582402D01*
X248305Y577902D02*
X257305D01*
X238555Y571402D02*
X267055D01*
X238555Y584402D02*
X267055D01*
Y571402D02*
Y584402D01*
X238555Y571402D02*
Y584402D01*
X185055Y555652D02*
X194055D01*
X189555Y551152D02*
Y560152D01*
X196055Y541402D02*
Y569902D01*
X183055Y541402D02*
Y569902D01*
X196055D01*
X183055Y541402D02*
X196055D01*
X439305Y543152D02*
Y553152D01*
X434305Y548152D02*
X444305D01*
X420055Y565652D02*
X458555D01*
X420055Y530652D02*
X458555Y530652D01*
X420055Y530652D02*
Y565652D01*
X458555D02*
X458555Y530652D01*
X389055Y543152D02*
Y553152D01*
X384055Y548152D02*
X394055D01*
X369805Y565652D02*
X408305D01*
X369805Y530652D02*
X408305D01*
X369805D02*
Y565652D01*
X408305Y530652D02*
Y565652D01*
X389055Y573402D02*
Y582402D01*
X384555Y577902D02*
X393555D01*
X374805Y571402D02*
X403305D01*
X374805Y584402D02*
X403305D01*
Y571402D02*
Y584402D01*
X374805Y571402D02*
Y584402D01*
X422805Y573402D02*
Y582402D01*
X418305Y577902D02*
X427305D01*
X408555Y571402D02*
X437055D01*
X408555Y584402D02*
X437055D01*
Y571402D02*
Y584402D01*
X408555Y571402D02*
Y584402D01*
X355055Y555652D02*
X364055D01*
X359555Y551152D02*
Y560152D01*
X366055Y541402D02*
Y569902D01*
X353055Y541402D02*
Y569902D01*
X366055D01*
X353055Y541402D02*
X366055D01*
X609305Y543152D02*
Y553152D01*
X604305Y548152D02*
X614305D01*
X590055Y565652D02*
X628555D01*
X590055Y530652D02*
X628555Y530652D01*
X590055Y530652D02*
Y565652D01*
X628555D02*
X628555Y530652D01*
X559055Y543152D02*
Y553152D01*
X554055Y548152D02*
X564055D01*
X539805Y565652D02*
X578305D01*
X539805Y530652D02*
X578305D01*
X539805D02*
Y565652D01*
X578305Y530652D02*
Y565652D01*
X559055Y573402D02*
Y582402D01*
X554555Y577902D02*
X563555D01*
X544805Y571402D02*
X573305D01*
X544805Y584402D02*
X573305D01*
Y571402D02*
Y584402D01*
X544805Y571402D02*
Y584402D01*
X592805Y573402D02*
Y582402D01*
X588305Y577902D02*
X597305D01*
X578555Y571402D02*
X607055D01*
X578555Y584402D02*
X607055D01*
Y571402D02*
Y584402D01*
X578555Y571402D02*
Y584402D01*
X525055Y555652D02*
X534055D01*
X529555Y551152D02*
Y560152D01*
X536055Y541402D02*
Y569902D01*
X523055Y541402D02*
Y569902D01*
X536055D01*
X523055Y541402D02*
X536055D01*
X779305Y543152D02*
Y553152D01*
X774305Y548152D02*
X784305D01*
X760055Y565652D02*
X798555D01*
X760055Y530652D02*
X798555Y530652D01*
X760055Y530652D02*
Y565652D01*
X798555D02*
X798555Y530652D01*
X729055Y543152D02*
Y553152D01*
X724055Y548152D02*
X734055D01*
X709805Y565652D02*
X748305D01*
X709805Y530652D02*
X748305D01*
X709805D02*
Y565652D01*
X748305Y530652D02*
Y565652D01*
X729055Y573402D02*
Y582402D01*
X724555Y577902D02*
X733555D01*
X714805Y571402D02*
X743305D01*
X714805Y584402D02*
X743305D01*
Y571402D02*
Y584402D01*
X714805Y571402D02*
Y584402D01*
X762805Y573402D02*
Y582402D01*
X758305Y577902D02*
X767305D01*
X748555Y571402D02*
X777055D01*
X748555Y584402D02*
X777055D01*
Y571402D02*
Y584402D01*
X748555Y571402D02*
Y584402D01*
X695055Y555652D02*
X704055D01*
X699555Y551152D02*
Y560152D01*
X706055Y541402D02*
Y569902D01*
X693055Y541402D02*
Y569902D01*
X706055D01*
X693055Y541402D02*
X706055D01*
M02*
