G04*
G04 #@! TF.GenerationSoftware,Altium Limited,Altium Designer,23.8.1 (32)*
G04*
G04 Layer_Color=8421504*
%FSLAX44Y44*%
%MOMM*%
G71*
G04*
G04 #@! TF.SameCoordinates,016EFE59-DA19-4AE6-B192-11953897C182*
G04*
G04*
G04 #@! TF.FilePolarity,Positive*
G04*
G01*
G75*
%ADD11R,1.6000X0.6000*%
%ADD12R,0.8000X0.7500*%
%ADD13R,0.7500X0.8000*%
D11*
X90305Y68152D02*
D03*
X108305Y77652D02*
D03*
X108305Y58652D02*
D03*
X40055Y68152D02*
D03*
X58055Y77652D02*
D03*
Y58652D02*
D03*
X260305Y68152D02*
D03*
X278305Y77652D02*
D03*
X278305Y58652D02*
D03*
X210055Y68152D02*
D03*
X228055Y77652D02*
D03*
Y58652D02*
D03*
X430305Y68152D02*
D03*
X448305Y77652D02*
D03*
X448305Y58652D02*
D03*
X380055Y68152D02*
D03*
X398055Y77652D02*
D03*
Y58652D02*
D03*
X600305Y68152D02*
D03*
X618305Y77652D02*
D03*
X618305Y58652D02*
D03*
X550055Y68152D02*
D03*
X568055Y77652D02*
D03*
Y58652D02*
D03*
X770305Y68152D02*
D03*
X788305Y77652D02*
D03*
X788305Y58652D02*
D03*
X720055Y68152D02*
D03*
X738055Y77652D02*
D03*
Y58652D02*
D03*
X90305Y188152D02*
D03*
X108305Y197652D02*
D03*
X108305Y178652D02*
D03*
X40055Y188152D02*
D03*
X58055Y197652D02*
D03*
Y178652D02*
D03*
X260305Y188152D02*
D03*
X278305Y197652D02*
D03*
X278305Y178652D02*
D03*
X210055Y188152D02*
D03*
X228055Y197652D02*
D03*
Y178652D02*
D03*
X430305Y188152D02*
D03*
X448305Y197652D02*
D03*
X448305Y178652D02*
D03*
X380055Y188152D02*
D03*
X398055Y197652D02*
D03*
Y178652D02*
D03*
X600305Y188152D02*
D03*
X618305Y197652D02*
D03*
X618305Y178652D02*
D03*
X550055Y188152D02*
D03*
X568055Y197652D02*
D03*
Y178652D02*
D03*
X770305Y188152D02*
D03*
X788305Y197652D02*
D03*
X788305Y178652D02*
D03*
X720055Y188152D02*
D03*
X738055Y197652D02*
D03*
Y178652D02*
D03*
X90305Y308152D02*
D03*
X108305Y317652D02*
D03*
X108305Y298652D02*
D03*
X40055Y308152D02*
D03*
X58055Y317652D02*
D03*
Y298652D02*
D03*
X260305Y308152D02*
D03*
X278305Y317652D02*
D03*
X278305Y298652D02*
D03*
X210055Y308152D02*
D03*
X228055Y317652D02*
D03*
Y298652D02*
D03*
X430305Y308152D02*
D03*
X448305Y317652D02*
D03*
X448305Y298652D02*
D03*
X380055Y308152D02*
D03*
X398055Y317652D02*
D03*
Y298652D02*
D03*
X600305Y308152D02*
D03*
X618305Y317652D02*
D03*
X618305Y298652D02*
D03*
X550055Y308152D02*
D03*
X568055Y317652D02*
D03*
Y298652D02*
D03*
X770305Y308152D02*
D03*
X788305Y317652D02*
D03*
X788305Y298652D02*
D03*
X720055Y308152D02*
D03*
X738055Y317652D02*
D03*
Y298652D02*
D03*
X90305Y428152D02*
D03*
X108305Y437652D02*
D03*
X108305Y418652D02*
D03*
X40055Y428152D02*
D03*
X58055Y437652D02*
D03*
Y418652D02*
D03*
X260305Y428152D02*
D03*
X278305Y437652D02*
D03*
X278305Y418652D02*
D03*
X210055Y428152D02*
D03*
X228055Y437652D02*
D03*
Y418652D02*
D03*
X430305Y428152D02*
D03*
X448305Y437652D02*
D03*
X448305Y418652D02*
D03*
X380055Y428152D02*
D03*
X398055Y437652D02*
D03*
Y418652D02*
D03*
X600305Y428152D02*
D03*
X618305Y437652D02*
D03*
X618305Y418652D02*
D03*
X550055Y428152D02*
D03*
X568055Y437652D02*
D03*
Y418652D02*
D03*
X770305Y428152D02*
D03*
X788305Y437652D02*
D03*
X788305Y418652D02*
D03*
X720055Y428152D02*
D03*
X738055Y437652D02*
D03*
Y418652D02*
D03*
X90305Y548152D02*
D03*
X108305Y557652D02*
D03*
X108305Y538652D02*
D03*
X40055Y548152D02*
D03*
X58055Y557652D02*
D03*
Y538652D02*
D03*
X260305Y548152D02*
D03*
X278305Y557652D02*
D03*
X278305Y538652D02*
D03*
X210055Y548152D02*
D03*
X228055Y557652D02*
D03*
Y538652D02*
D03*
X430305Y548152D02*
D03*
X448305Y557652D02*
D03*
X448305Y538652D02*
D03*
X380055Y548152D02*
D03*
X398055Y557652D02*
D03*
Y538652D02*
D03*
X600305Y548152D02*
D03*
X618305Y557652D02*
D03*
X618305Y538652D02*
D03*
X550055Y548152D02*
D03*
X568055Y557652D02*
D03*
Y538652D02*
D03*
X770305Y548152D02*
D03*
X788305Y557652D02*
D03*
X788305Y538652D02*
D03*
X720055Y548152D02*
D03*
X738055Y557652D02*
D03*
Y538652D02*
D03*
D12*
X56555Y97902D02*
D03*
X41555D02*
D03*
X90305D02*
D03*
X75305D02*
D03*
X226555D02*
D03*
X211555D02*
D03*
X260305D02*
D03*
X245305D02*
D03*
X396555D02*
D03*
X381555D02*
D03*
X430305D02*
D03*
X415305D02*
D03*
X566555D02*
D03*
X551555D02*
D03*
X600305D02*
D03*
X585305D02*
D03*
X736555D02*
D03*
X721555D02*
D03*
X770305D02*
D03*
X755305D02*
D03*
X56555Y217902D02*
D03*
X41555D02*
D03*
X90305D02*
D03*
X75305D02*
D03*
X226555D02*
D03*
X211555D02*
D03*
X260305D02*
D03*
X245305D02*
D03*
X396555D02*
D03*
X381555D02*
D03*
X430305D02*
D03*
X415305D02*
D03*
X566555D02*
D03*
X551555D02*
D03*
X600305D02*
D03*
X585305D02*
D03*
X736555D02*
D03*
X721555D02*
D03*
X770305D02*
D03*
X755305D02*
D03*
X56555Y337902D02*
D03*
X41555D02*
D03*
X90305D02*
D03*
X75305D02*
D03*
X226555D02*
D03*
X211555D02*
D03*
X260305D02*
D03*
X245305D02*
D03*
X396555D02*
D03*
X381555D02*
D03*
X430305D02*
D03*
X415305D02*
D03*
X566555D02*
D03*
X551555D02*
D03*
X600305D02*
D03*
X585305D02*
D03*
X736555D02*
D03*
X721555D02*
D03*
X770305D02*
D03*
X755305D02*
D03*
X56555Y457902D02*
D03*
X41555D02*
D03*
X90305D02*
D03*
X75305D02*
D03*
X226555D02*
D03*
X211555D02*
D03*
X260305D02*
D03*
X245305D02*
D03*
X396555D02*
D03*
X381555D02*
D03*
X430305D02*
D03*
X415305D02*
D03*
X566555D02*
D03*
X551555D02*
D03*
X600305D02*
D03*
X585305D02*
D03*
X736555D02*
D03*
X721555D02*
D03*
X770305D02*
D03*
X755305D02*
D03*
X56555Y577902D02*
D03*
X41555D02*
D03*
X90305D02*
D03*
X75305D02*
D03*
X226555D02*
D03*
X211555D02*
D03*
X260305D02*
D03*
X245305D02*
D03*
X396555D02*
D03*
X381555D02*
D03*
X430305D02*
D03*
X415305D02*
D03*
X566555D02*
D03*
X551555D02*
D03*
X600305D02*
D03*
X585305D02*
D03*
X736555D02*
D03*
X721555D02*
D03*
X770305D02*
D03*
X755305D02*
D03*
D13*
X19555Y83152D02*
D03*
Y68152D02*
D03*
X189555Y83152D02*
D03*
Y68152D02*
D03*
X359555Y83152D02*
D03*
Y68152D02*
D03*
X529555Y83152D02*
D03*
Y68152D02*
D03*
X699555Y83152D02*
D03*
Y68152D02*
D03*
X19555Y203152D02*
D03*
Y188152D02*
D03*
X189555Y203152D02*
D03*
Y188152D02*
D03*
X359555Y203152D02*
D03*
Y188152D02*
D03*
X529555Y203152D02*
D03*
Y188152D02*
D03*
X699555Y203152D02*
D03*
Y188152D02*
D03*
X19555Y323152D02*
D03*
Y308152D02*
D03*
X189555Y323152D02*
D03*
Y308152D02*
D03*
X359555Y323152D02*
D03*
Y308152D02*
D03*
X529555Y323152D02*
D03*
Y308152D02*
D03*
X699555Y323152D02*
D03*
Y308152D02*
D03*
X19555Y443152D02*
D03*
Y428152D02*
D03*
X189555Y443152D02*
D03*
Y428152D02*
D03*
X359555Y443152D02*
D03*
Y428152D02*
D03*
X529555Y443152D02*
D03*
Y428152D02*
D03*
X699555Y443152D02*
D03*
Y428152D02*
D03*
X19555Y563152D02*
D03*
Y548152D02*
D03*
X189555Y563152D02*
D03*
Y548152D02*
D03*
X359555Y563152D02*
D03*
Y548152D02*
D03*
X529555Y563152D02*
D03*
Y548152D02*
D03*
X699555Y563152D02*
D03*
Y548152D02*
D03*
M02*
